<svg width="595" height="295" viewBox="0 0 595 295" fill="none" xmlns="http://www.w3.org/2000/svg">
<g clip-path="url(#clip0_18_10)">
<path d="M297.5 0C133.971 0 1.26204 131.861 0 295H595C593.738 131.861 461.029 0 297.5 0Z" fill="#2F2E41"/>
<path d="M282.133 33.7484C283.753 33.7484 285.067 32.4356 285.067 30.816C285.067 29.1965 283.753 27.8836 282.133 27.8836C280.513 27.8836 279.199 29.1965 279.199 30.816C279.199 32.4356 280.513 33.7484 282.133 33.7484Z" fill="#F2F2F2"/>
<path d="M190.003 128.758C190.651 128.758 191.177 128.233 191.177 127.585C191.177 126.938 190.651 126.412 190.003 126.412C189.355 126.412 188.83 126.938 188.83 127.585C188.83 128.233 189.355 128.758 190.003 128.758Z" fill="#F2F2F2"/>
<path d="M363.113 183.888C363.762 183.888 364.287 183.362 364.287 182.715C364.287 182.067 363.762 181.542 363.113 181.542C362.465 181.542 361.94 182.067 361.94 182.715C361.94 183.362 362.465 183.888 363.113 183.888Z" fill="#F2F2F2"/>
<path d="M57.3831 169.226C58.0313 169.226 58.5567 168.7 58.5567 168.053C58.5567 167.405 58.0313 166.88 57.3831 166.88C56.7349 166.88 56.2095 167.405 56.2095 168.053C56.2095 168.7 56.7349 169.226 57.3831 169.226Z" fill="#F2F2F2"/>
<path d="M515.098 127.585C515.747 127.585 516.272 127.06 516.272 126.412C516.272 125.765 515.747 125.24 515.098 125.24C514.45 125.24 513.925 125.765 513.925 126.412C513.925 127.06 514.45 127.585 515.098 127.585Z" fill="#F2F2F2"/>
<path d="M138.364 139.902C139.012 139.902 139.537 139.376 139.537 138.729C139.537 138.081 139.012 137.556 138.364 137.556C137.715 137.556 137.19 138.081 137.19 138.729C137.19 139.376 137.715 139.902 138.364 139.902Z" fill="#F2F2F2"/>
<path d="M330.839 116.442C331.487 116.442 332.012 115.917 332.012 115.269C332.012 114.621 331.487 114.096 330.839 114.096C330.19 114.096 329.665 114.621 329.665 115.269C329.665 115.917 330.19 116.442 330.839 116.442Z" fill="#F2F2F2"/>
<path d="M369.568 31.989C370.217 31.989 370.742 31.4638 370.742 30.816C370.742 30.1682 370.217 29.6431 369.568 29.6431C368.92 29.6431 368.395 30.1682 368.395 30.816C368.395 31.4638 368.92 31.989 369.568 31.989Z" fill="#F2F2F2"/>
<path d="M125.454 169.226H124.28V169.812H125.454V169.226Z" fill="#F2F2F2"/>
<path d="M160.076 79.494H158.902V80.0804H160.076V79.494Z" fill="#F2F2F2"/>
<path d="M244.577 146.353H243.403V146.939H244.577V146.353Z" fill="#F2F2F2"/>
<path d="M468.74 172.158H467.566V172.744H468.74V172.158Z" fill="#F2F2F2"/>
<path d="M398.909 82.4264H397.735V83.0128H398.909V82.4264Z" fill="#F2F2F2"/>
<path d="M134.151 213.292H132.086V294.814H134.151V213.292Z" fill="#3F3D56"/>
<path d="M153.209 199.048C153.34 227.555 133.273 250.757 133.273 250.757C133.273 250.757 112.992 227.741 112.861 199.234C112.73 170.728 132.797 147.526 132.797 147.526C132.797 147.526 153.077 170.542 153.209 199.048Z" fill="#3F3D56"/>
<path d="M108.662 189.124H105.984V294.814H108.662V189.124Z" fill="#3F3D56"/>
<path d="M133.369 177.961C133.54 214.918 107.524 244.998 107.524 244.998C107.524 244.998 81.2311 215.159 81.0606 178.202C80.8902 141.244 106.906 111.164 106.906 111.164C106.906 111.164 133.199 141.003 133.369 177.961Z" fill="#3F3D56"/>
<path d="M419.929 213.292H417.864V294.814H419.929V213.292Z" fill="#00A3FF"/>
<path d="M438.987 223.681C439.119 252.187 419.052 275.389 419.052 275.389C419.052 275.389 398.771 252.373 398.64 223.866C398.508 195.36 418.576 172.158 418.576 172.158C418.576 172.158 438.856 195.174 438.987 223.681Z" fill="#3F3D56"/>
<path d="M84.8583 213.292H82.7932V294.814H84.8583V213.292Z" fill="#3F3D56"/>
<path d="M103.916 199.048C104.048 227.555 83.9806 250.757 83.9806 250.757C83.9806 250.757 63.7002 227.741 63.5688 199.234C63.4373 170.728 83.5045 147.526 83.5045 147.526C83.5045 147.526 103.785 170.542 103.916 199.048Z" fill="#3F3D56"/>
<path d="M266.771 213.292H264.706V294.814H266.771V213.292Z" fill="#3F3D56"/>
<path d="M285.829 199.048C285.96 227.555 265.893 250.757 265.893 250.757C265.893 250.757 245.613 227.741 245.481 199.234C245.35 170.728 265.417 147.526 265.417 147.526C265.417 147.526 285.697 170.542 285.829 199.048Z" fill="#3F3D56"/>
<path d="M241.282 189.124H238.604V294.814H241.282V189.124Z" fill="#3F3D56"/>
<path d="M265.99 177.961C266.16 214.918 240.144 244.998 240.144 244.998C240.144 244.998 213.851 215.159 213.681 178.202C213.51 141.244 239.527 111.164 239.527 111.164C239.527 111.164 265.819 141.003 265.99 177.961Z" fill="#3F3D56"/>
<path d="M217.478 213.292H215.413V294.814H217.478V213.292Z" fill="#3F3D56"/>
<path d="M236.536 199.048C236.668 227.555 216.6 250.757 216.6 250.757C216.6 250.757 196.32 227.741 196.189 199.234C196.057 170.728 216.124 147.526 216.124 147.526C216.124 147.526 236.405 170.542 236.536 199.048Z" fill="#3F3D56"/>
<path d="M433.282 251.256L398.775 219.546C398.682 220.971 398.633 222.411 398.64 223.866C398.771 252.373 419.052 275.389 419.052 275.389C424.956 268.088 429.751 259.956 433.282 251.256Z" fill="#00A3FF"/>
<path d="M176.422 287.542C177.604 291.91 181.654 294.615 181.654 294.615C181.654 294.615 183.787 290.239 182.604 285.871C181.422 281.503 177.372 278.798 177.372 278.798C177.372 278.798 175.24 283.174 176.422 287.542Z" fill="#3F3D56"/>
<path d="M178.159 286.604C181.404 289.76 181.8 294.612 181.8 294.612C181.8 294.612 176.936 294.346 173.692 291.19C170.448 288.034 170.052 283.182 170.052 283.182C170.052 283.182 174.915 283.447 178.159 286.604Z" fill="#3F3D56"/>
<path d="M343.077 287.542C344.26 291.91 348.309 294.615 348.309 294.615C348.309 294.615 350.442 290.239 349.26 285.871C348.077 281.503 344.028 278.798 344.028 278.798C344.028 278.798 341.895 283.174 343.077 287.542Z" fill="#00A3FF"/>
<path d="M344.815 286.604C348.059 289.76 348.455 294.612 348.455 294.612C348.455 294.612 343.591 294.346 340.347 291.19C337.103 288.034 336.707 283.182 336.707 283.182C336.707 283.182 341.57 283.447 344.815 286.604Z" fill="#00A3FF"/>
<path d="M44.9757 287.542C46.158 291.91 50.2076 294.615 50.2076 294.615C50.2076 294.615 52.3403 290.239 51.158 285.871C49.9757 281.503 45.9261 278.798 45.9261 278.798C45.9261 278.798 43.7934 283.174 44.9757 287.542Z" fill="#3F3D56"/>
<path d="M46.7128 286.604C49.957 289.76 50.3533 294.612 50.3533 294.612C50.3533 294.612 45.4896 294.346 42.2454 291.19C39.0012 288.034 38.605 283.182 38.605 283.182C38.605 283.182 43.4686 283.447 46.7128 286.604Z" fill="#3F3D56"/>
<path d="M227.292 129.441L283.926 214.869C285.191 209.69 285.83 204.379 285.829 199.048C285.765 185.148 280.909 172.554 275.951 163.297L273.331 163.947L275.795 163.008C272.875 157.506 269.398 152.318 265.417 147.526C265.417 147.526 263.972 149.197 261.861 152.191C254.421 128.07 239.527 111.164 239.527 111.164C234.878 116.855 230.781 122.975 227.292 129.441Z" fill="#00A3FF"/>
<path opacity="0.1" d="M553.141 291.357C553.589 291.357 554.019 291.179 554.335 290.863C554.652 290.546 554.83 290.117 554.83 289.67C554.83 289.222 554.652 288.793 554.335 288.476C554.019 288.16 553.589 287.982 553.141 287.982H539.257C539.705 288.877 539.779 289.914 539.462 290.863C539.146 291.812 538.465 292.597 537.569 293.045C537.569 293.492 537.747 293.922 538.063 294.238C538.38 294.555 538.81 294.733 539.257 294.733H553.141C553.589 294.733 554.019 294.555 554.335 294.238C554.652 293.922 554.83 293.492 554.83 293.045C554.83 292.597 554.652 292.168 554.335 291.852C554.019 291.535 553.589 291.357 553.141 291.357Z" fill="#F2F2F2"/>
<path d="M520.143 287.875C520.38 297.078 514.81 294.733 508.057 294.733C501.304 294.733 495.734 295.906 495.688 287.875C495.666 283.921 501.203 283.06 507.956 283.06C514.708 283.06 520.041 283.922 520.143 287.875Z" fill="#3F3D56"/>
<path d="M535.941 291.512C535.832 291.454 535.713 291.416 535.591 291.4C534.978 291.302 534.371 291.173 533.772 291.011C533.17 290.848 532.618 290.541 532.162 290.116C531.992 289.916 531.802 289.734 531.595 289.573C531.49 289.494 531.365 289.447 531.233 289.437C531.102 289.428 530.971 289.457 530.856 289.52C530.832 289.539 530.81 289.559 530.79 289.582C530.707 289.527 530.623 289.472 530.539 289.416C530.092 289.122 529.643 288.832 529.192 288.544L529.174 288.533C529.186 288.462 529.187 288.389 529.175 288.318C529.096 288.085 528.937 287.888 528.726 287.761C529.308 287.755 529.893 287.702 530.472 287.641C531.023 287.651 531.555 287.443 531.954 287.062C532.014 286.996 532.05 286.912 532.057 286.823C532.058 286.641 531.87 286.521 531.701 286.452C531.477 286.361 531.243 286.292 531.005 286.247C530.838 286.224 530.673 286.189 530.511 286.144C530.367 286.092 530.228 286.026 530.095 285.948C529.808 285.79 529.522 285.632 529.235 285.474C529.113 285.415 529 285.337 528.902 285.244C528.756 285.089 528.691 284.871 528.542 284.719C528.405 284.579 527.85 284.395 527.771 284.681C527.74 284.795 527.859 284.92 527.874 285.046C527.682 284.926 527.483 284.817 527.278 284.719C527.289 284.694 527.304 284.671 527.314 284.645C526.362 283.882 525.605 282.904 525.108 281.79C525.193 281.792 525.278 281.798 525.364 281.797C525.509 281.81 525.654 281.775 525.777 281.696C525.827 281.65 525.867 281.593 525.892 281.53C525.918 281.466 525.928 281.398 525.923 281.33C525.912 281.194 525.879 281.06 525.824 280.935C525.703 280.56 525.509 280.212 525.253 279.911C525.006 279.672 524.724 279.472 524.416 279.317L524.367 279.289C524.346 279.226 524.327 279.162 524.302 279.1C524.116 278.715 523.907 278.342 523.674 277.984C523.347 277.384 523.105 276.741 522.956 276.074C522.901 275.667 522.746 275.281 522.504 274.95C522.056 274.457 521.288 274.469 520.625 274.544C520.248 274.587 519.872 274.643 519.496 274.702C519.492 274.692 519.492 274.682 519.488 274.673C519.441 274.584 519.412 274.488 519.402 274.388C519.411 274.306 519.429 274.226 519.455 274.148C519.475 274.052 519.471 273.952 519.442 273.857C519.413 273.763 519.361 273.677 519.291 273.608C519.275 273.593 519.26 273.576 519.244 273.56C519.286 273.462 519.323 273.364 519.358 273.265C519.389 273.228 519.413 273.186 519.427 273.14C519.441 273.094 519.446 273.045 519.441 272.997C519.509 272.757 519.545 272.509 519.548 272.259C519.471 271.707 519.451 271.149 519.489 270.593C519.469 270.455 519.419 270.324 519.342 270.208C519.328 270.189 519.305 270.181 519.29 270.164C519.404 270.013 519.536 269.876 519.683 269.756C519.972 269.533 520.282 269.337 520.607 269.17C520.685 269.128 520.794 269.097 520.868 269.048C520.983 269.067 521.098 269.079 521.214 269.083C521.644 269.085 522.068 268.983 522.449 268.784C522.83 268.585 523.157 268.295 523.401 267.941C523.644 267.587 523.797 267.179 523.846 266.752C523.896 266.325 523.84 265.892 523.683 265.492C523.802 265.463 523.914 265.41 524.013 265.337C524.112 265.265 524.195 265.173 524.258 265.068C524.387 264.844 524.464 264.594 524.484 264.337C524.504 264.238 524.505 264.136 524.486 264.037C524.467 263.938 524.429 263.844 524.373 263.759C524.274 263.664 524.161 263.585 524.037 263.525C523.866 263.418 523.723 263.273 523.619 263.101C523.544 262.979 523.491 262.845 523.424 262.718C523.314 262.483 523.141 262.284 522.924 262.14C522.708 261.997 522.457 261.916 522.197 261.905C521.951 261.937 521.707 261.985 521.467 262.051C520.646 262.195 519.753 261.76 518.991 262.099C518.803 262.19 518.629 262.306 518.473 262.444C518.258 262.621 518.052 262.808 517.854 263.003C517.682 263.15 517.552 263.339 517.477 263.552C517.373 263.94 517.619 264.375 517.463 264.745C517.409 264.851 517.345 264.952 517.272 265.045C517.099 265.298 517.287 266.288 517.268 266.594C517.245 266.744 517.284 266.896 517.374 267.018C517.396 267.041 517.422 267.061 517.451 267.077C516.173 267.533 514.923 268.064 513.707 268.667C512.248 269.373 511.037 270.503 510.233 271.91C510.027 272.312 509.87 272.737 509.684 273.149C509.435 273.698 509.134 274.221 508.833 274.744C508.466 275.381 508.099 276.019 507.675 276.619C507.433 276.938 507.209 277.269 507.005 277.613C506.999 277.663 506.998 277.713 507 277.763C507.008 277.811 507.004 277.859 506.987 277.904C506.968 277.931 506.944 277.952 506.917 277.968C506.889 277.984 506.858 277.994 506.826 277.996L506.816 278.022C506.72 278.331 506.641 278.644 506.578 278.961C506.453 279.465 506.253 279.951 506.177 280.465C506.132 280.529 506.107 280.605 506.105 280.683C506.103 280.761 506.125 280.839 506.166 280.905C506.208 280.971 506.268 281.024 506.339 281.056C506.41 281.089 506.49 281.1 506.567 281.088C507.007 281.283 507.43 281.512 507.852 281.743C507.846 281.774 507.837 281.803 507.833 281.835C507.819 282.162 507.897 282.486 508.06 282.769C508.222 283.053 508.462 283.285 508.751 283.438C509.333 283.736 509.971 283.909 510.624 283.947C510.877 283.977 511.132 283.992 511.386 284.017C511.756 284.223 512.149 284.383 512.558 284.492C512.648 284.518 512.74 284.533 512.833 284.535C512.957 284.527 513.078 284.491 513.187 284.43C513.295 284.369 513.389 284.284 513.46 284.182C515.642 284.303 517.83 284.258 520.006 284.049C520.608 283.908 521.241 284.007 521.772 284.322C522.244 284.706 522.339 285.385 522.69 285.881C522.944 286.188 523.23 286.466 523.543 286.713C524.164 287.371 524.714 288.092 525.182 288.866C525.655 289.648 526.339 290.279 527.156 290.688C527.303 290.454 527.517 290.268 527.769 290.155C527.834 290.116 527.897 290.071 527.961 290.029C528.047 290.169 528.148 290.3 528.261 290.42C528.345 290.51 528.428 290.606 528.507 290.705C528.504 290.706 528.502 290.704 528.5 290.705C528.385 290.722 528.347 290.865 528.334 290.98C528.284 291.42 528.234 291.859 528.183 292.299C528.165 292.386 528.172 292.476 528.201 292.56C528.255 292.651 528.339 292.72 528.438 292.757C528.847 292.952 529.288 293.069 529.74 293.1C529.968 293.115 530.196 293.109 530.423 293.129C530.795 293.177 531.164 293.251 531.526 293.349C532.512 293.574 533.526 293.653 534.535 293.585C534.743 293.58 534.949 293.541 535.145 293.469C535.377 293.358 535.582 293.199 535.747 293.003C535.958 292.804 536.114 292.554 536.201 292.278C536.241 292.139 536.238 291.991 536.191 291.854C536.145 291.717 536.057 291.598 535.941 291.512Z" fill="#3F3D56"/>
<path d="M519.707 262.051C519.804 262.034 519.9 262.007 519.996 261.982C519.687 261.944 519.374 261.974 519.078 262.071C519.288 262.09 519.499 262.083 519.707 262.051Z" fill="#FF6584"/>
<path d="M521.664 262.718C521.731 262.845 521.784 262.979 521.858 263.101C521.962 263.273 522.106 263.418 522.277 263.525C522.4 263.585 522.514 263.664 522.613 263.76C522.668 263.844 522.707 263.938 522.726 264.037C522.745 264.136 522.744 264.238 522.723 264.337C522.703 264.594 522.626 264.844 522.497 265.068C522.435 265.173 522.351 265.265 522.253 265.337C522.154 265.41 522.042 265.463 521.922 265.492C522.103 265.919 522.165 266.386 522.103 266.846C522.041 267.305 521.856 267.739 521.569 268.103C521.281 268.466 520.901 268.746 520.468 268.912C520.035 269.078 519.565 269.125 519.108 269.048C519.033 269.097 518.925 269.128 518.847 269.171C518.521 269.337 518.212 269.533 517.923 269.756C517.775 269.876 517.643 270.013 517.529 270.164C517.545 270.181 517.568 270.189 517.581 270.208C517.658 270.324 517.708 270.455 517.728 270.593C517.69 271.149 517.71 271.707 517.787 272.259C517.784 272.509 517.748 272.757 517.68 272.998C517.685 273.045 517.68 273.094 517.666 273.14C517.652 273.186 517.629 273.228 517.597 273.265C517.563 273.364 517.525 273.462 517.484 273.56C517.499 273.576 517.515 273.593 517.53 273.608C517.601 273.677 517.653 273.763 517.682 273.857C517.71 273.952 517.715 274.052 517.695 274.148C517.669 274.226 517.651 274.307 517.641 274.388C517.651 274.488 517.681 274.584 517.728 274.673C517.732 274.682 517.732 274.692 517.735 274.702C518.111 274.644 518.487 274.587 518.865 274.544C519.051 274.522 519.238 274.51 519.426 274.507C519.411 274.469 519.403 274.429 519.402 274.388C519.411 274.307 519.429 274.226 519.455 274.148C519.475 274.052 519.471 273.952 519.442 273.857C519.413 273.763 519.361 273.677 519.291 273.608C519.275 273.593 519.26 273.576 519.244 273.56C519.285 273.462 519.323 273.364 519.358 273.265C519.389 273.228 519.413 273.186 519.427 273.14C519.441 273.094 519.446 273.045 519.441 272.998C519.509 272.757 519.545 272.509 519.548 272.259C519.471 271.707 519.451 271.149 519.488 270.593C519.469 270.455 519.419 270.324 519.342 270.208C519.328 270.189 519.305 270.181 519.289 270.164C519.404 270.013 519.536 269.876 519.683 269.756C519.972 269.533 520.282 269.337 520.607 269.171C520.685 269.128 520.794 269.097 520.868 269.048C520.982 269.067 521.098 269.079 521.214 269.083C521.644 269.085 522.068 268.983 522.449 268.784C522.83 268.585 523.157 268.295 523.4 267.941C523.644 267.587 523.797 267.179 523.846 266.752C523.896 266.325 523.839 265.892 523.683 265.492C523.802 265.463 523.914 265.41 524.013 265.337C524.112 265.265 524.195 265.173 524.258 265.068C524.387 264.844 524.464 264.594 524.484 264.337C524.504 264.238 524.505 264.136 524.486 264.037C524.467 263.938 524.429 263.844 524.373 263.76C524.274 263.664 524.161 263.585 524.037 263.525C523.866 263.418 523.723 263.273 523.618 263.101C523.544 262.979 523.491 262.845 523.424 262.718C523.314 262.484 523.141 262.284 522.924 262.14C522.708 261.997 522.457 261.916 522.197 261.905C521.951 261.937 521.707 261.985 521.467 262.051C521.333 262.072 521.197 262.081 521.061 262.078C521.316 262.232 521.525 262.454 521.664 262.718Z" fill="#FF6584"/>
<path d="M535.941 291.512C535.832 291.454 535.713 291.416 535.591 291.4C534.978 291.302 534.371 291.173 533.772 291.011C533.17 290.848 532.618 290.541 532.162 290.116C531.992 289.916 531.802 289.734 531.595 289.573C531.49 289.494 531.364 289.447 531.233 289.437C531.102 289.428 530.971 289.457 530.856 289.52C530.832 289.539 530.81 289.559 530.79 289.582C530.706 289.527 530.623 289.472 530.539 289.416C530.092 289.122 529.643 288.832 529.192 288.544L529.173 288.533C529.186 288.462 529.187 288.389 529.175 288.318C529.096 288.085 528.937 287.888 528.725 287.761C529.308 287.755 529.893 287.702 530.472 287.641C531.023 287.651 531.555 287.443 531.954 287.062C532.014 286.996 532.05 286.912 532.057 286.823C532.058 286.641 531.87 286.521 531.701 286.452C531.477 286.361 531.243 286.292 531.005 286.247C530.838 286.224 530.673 286.189 530.511 286.144C530.367 286.092 530.227 286.026 530.095 285.948C529.808 285.79 529.521 285.632 529.235 285.474C529.112 285.415 529 285.337 528.902 285.244C528.756 285.089 528.691 284.871 528.542 284.719C528.405 284.579 527.85 284.395 527.771 284.681C527.739 284.795 527.859 284.92 527.874 285.046C527.682 284.926 527.483 284.817 527.278 284.719C527.289 284.694 527.304 284.671 527.314 284.645C526.362 283.882 525.605 282.904 525.107 281.79C525.193 281.792 525.278 281.798 525.363 281.797C525.509 281.81 525.654 281.775 525.777 281.696C525.827 281.65 525.867 281.593 525.892 281.53C525.918 281.466 525.928 281.398 525.923 281.33C525.912 281.194 525.879 281.06 525.824 280.935C525.703 280.56 525.509 280.212 525.253 279.911C525.006 279.672 524.723 279.472 524.416 279.317L524.367 279.289C524.346 279.226 524.327 279.162 524.301 279.1C524.116 278.715 523.907 278.342 523.674 277.984C523.346 277.384 523.105 276.741 522.956 276.074C522.901 275.667 522.746 275.281 522.503 274.95C522.056 274.457 521.287 274.469 520.625 274.544C520.477 274.561 520.33 274.586 520.183 274.606C520.397 274.669 520.59 274.788 520.743 274.95C520.985 275.281 521.141 275.667 521.196 276.074C521.344 276.741 521.586 277.384 521.913 277.984C522.146 278.342 522.356 278.715 522.541 279.1C522.566 279.162 522.585 279.226 522.606 279.289L522.656 279.317C522.963 279.472 523.245 279.672 523.493 279.911C523.748 280.212 523.942 280.56 524.064 280.935C524.118 281.06 524.152 281.194 524.163 281.33C524.168 281.398 524.157 281.466 524.132 281.53C524.106 281.593 524.067 281.65 524.016 281.696C523.894 281.775 523.748 281.81 523.603 281.797C523.518 281.798 523.432 281.792 523.347 281.79C523.845 282.904 524.601 283.882 525.553 284.645C525.544 284.671 525.529 284.694 525.518 284.719C525.722 284.817 525.921 284.926 526.113 285.046C526.099 284.92 525.979 284.795 526.01 284.681C526.09 284.395 526.645 284.579 526.782 284.719C526.931 284.871 526.995 285.089 527.141 285.244C527.24 285.337 527.352 285.415 527.474 285.474C527.761 285.632 528.048 285.79 528.335 285.948C528.467 286.026 528.606 286.092 528.75 286.144C528.913 286.189 529.078 286.224 529.244 286.247C529.483 286.292 529.716 286.361 529.941 286.452C530.109 286.521 530.297 286.641 530.297 286.823C530.29 286.912 530.253 286.996 530.193 287.062C529.795 287.443 529.262 287.651 528.711 287.641C528.132 287.702 527.547 287.755 526.965 287.761C527.176 287.888 527.335 288.085 527.414 288.318C527.426 288.389 527.426 288.462 527.413 288.533L527.431 288.544C527.882 288.832 528.331 289.122 528.778 289.416C528.862 289.471 528.946 289.527 529.03 289.582C529.05 289.559 529.072 289.539 529.095 289.52C529.211 289.457 529.342 289.428 529.473 289.437C529.604 289.447 529.73 289.494 529.835 289.573C530.041 289.734 530.231 289.916 530.402 290.116C530.857 290.541 531.41 290.848 532.011 291.011C532.61 291.173 533.217 291.302 533.83 291.4C533.953 291.416 534.071 291.454 534.18 291.512C534.297 291.598 534.384 291.717 534.431 291.854C534.477 291.991 534.48 292.139 534.44 292.278C534.353 292.554 534.197 292.804 533.987 293.003C533.821 293.199 533.616 293.358 533.384 293.469C533.241 293.523 533.091 293.556 532.938 293.567C533.469 293.614 534.003 293.62 534.535 293.585C534.743 293.58 534.949 293.541 535.145 293.469C535.376 293.358 535.582 293.199 535.747 293.003C535.958 292.804 536.113 292.554 536.2 292.278C536.241 292.139 536.238 291.991 536.191 291.854C536.145 291.717 536.057 291.598 535.941 291.512Z" fill="#FF6584"/>
<path d="M526.178 290.044C526.207 290.07 526.236 290.098 526.266 290.124C526.244 290.092 526.22 290.062 526.2 290.029L526.178 290.044Z" fill="#FF6584"/>
<path d="M552.391 285.169C552.391 291.383 549.619 289.67 546.2 289.67C542.78 289.67 540.008 291.383 540.008 285.169C540.008 278.956 546.2 267.168 546.2 267.168C546.2 267.168 552.391 278.956 552.391 285.169Z" fill="#FF6584"/>
<path opacity="0.1" d="M549.014 287.547C549.014 290.371 547.754 289.592 546.2 289.592C544.645 289.592 543.385 290.371 543.385 287.547C543.385 284.722 546.2 279.364 546.2 279.364C546.2 279.364 549.014 284.722 549.014 287.547Z" fill="black"/>
<path d="M553.96 268.566C553.96 268.566 555.246 267.229 555.221 265.918L553.96 268.566Z" fill="#FF6584"/>
<path d="M540.778 257.428C540.778 257.428 540.241 255.652 539.085 255.033L540.778 257.428Z" fill="#FF6584"/>
<path d="M527.868 233.382C527.868 233.382 527.331 231.607 526.175 230.987L527.868 233.382Z" fill="#FF6584"/>
<path d="M543.126 265.638C543.126 265.638 542.589 263.863 541.432 263.244L543.126 265.638Z" fill="#FF6584"/>
<path d="M541.365 236.901C541.365 236.901 540.828 235.125 539.671 234.506L541.365 236.901Z" fill="#FF6584"/>
<path d="M537.844 247.457C537.844 247.457 537.307 245.682 536.151 245.063L537.844 247.457Z" fill="#FF6584"/>
<path d="M552.787 286.747C552.787 286.747 554.073 285.41 554.047 284.099L552.787 286.747Z" fill="#FF6584"/>
<path d="M555.134 276.777C555.134 276.777 556.42 275.44 556.394 274.129L555.134 276.777Z" fill="#FF6584"/>
<path d="M539.065 275.1L524.981 279.792L525.167 280.349L539.251 275.657L539.065 275.1Z" fill="#FF6584"/>
<path d="M538.042 275.66C538.571 277.725 537.683 277.231 536.874 277.399C536.064 277.566 536.224 278.311 535.111 276.266C534.341 274.852 535.47 274.695 536.279 274.527C537.089 274.36 537.681 274.25 538.042 275.66Z" fill="#FF6584"/>
<path opacity="0.1" d="M337.259 163.017L337.258 163.016L324.454 151.25L324.339 151.279L319.212 146.62L318.965 146.548L319.232 146.447L264.705 96.3418L212.047 47.9519L185.215 62.1764L183.02 62.662L215.176 111.164L336.871 294.733H480.594L337.259 163.017Z" fill="#F2F2F2"/>
<path d="M196.458 70.1103C205.209 70.1103 212.302 63.0207 212.302 54.2753C212.302 45.5299 205.209 38.4403 196.458 38.4403C187.708 38.4403 180.614 45.5299 180.614 54.2753C180.614 63.0207 187.708 70.1103 196.458 70.1103Z" fill="#F2F2F2"/>
</g>
<defs>
<clipPath id="clip0_18_10">
<rect width="595" height="295" fill="white"/>
</clipPath>
</defs>
</svg>
