<svg width="435" height="380" viewBox="0 0 435 380" fill="none" xmlns="http://www.w3.org/2000/svg">
<path d="M411.72 287.603H60.3552C54.3476 287.596 48.5879 285.206 44.3398 280.958C40.0917 276.71 37.7021 270.951 37.6953 264.943V22.6597C37.7021 16.652 40.0917 10.8924 44.3398 6.64432C48.5879 2.39628 54.3476 0.00676767 60.3552 0H411.72C417.728 0.00676767 423.488 2.39628 427.736 6.64432C431.984 10.8924 434.373 16.652 434.38 22.6597V264.943C434.373 270.951 431.984 276.71 427.736 280.958C423.488 285.206 417.728 287.596 411.72 287.603ZM60.3552 2C54.8778 2.00621 49.6265 4.18482 45.7534 8.05791C41.8803 11.931 39.7016 17.1823 39.6953 22.6597V264.943C39.7016 270.42 41.8803 275.672 45.7534 279.545C49.6266 283.418 54.8778 285.596 60.3552 285.603H411.72C417.198 285.596 422.449 283.418 426.322 279.545C430.195 275.672 432.374 270.42 432.38 264.943V22.6597C432.374 17.1823 430.195 11.931 426.322 8.05791C422.449 4.18482 417.198 2.0062 411.72 2H60.3552Z" fill="#F0F0F0"/>
<path d="M0.696289 307.943V65.6597C0.702771 59.9171 2.98687 54.4116 7.04749 50.351C11.1081 46.2904 16.6136 44.0063 22.3561 43.9998H373.721C379.464 44.0063 384.969 46.2904 389.03 50.351C393.09 54.4116 395.375 59.9171 395.381 65.6597V307.943C395.375 313.685 393.09 319.191 389.03 323.252C384.969 327.312 379.464 329.596 373.721 329.603H22.3561C16.6136 329.596 11.1081 327.312 7.04749 323.252C2.98687 319.191 0.702771 313.685 0.696289 307.943Z" fill="#00A3FF"/>
<path d="M14.5156 308.369V65.2333C14.5176 63.4631 15.2217 61.7659 16.4734 60.5142C17.7252 59.2625 19.4223 58.5584 21.1925 58.5563H374.885C376.655 58.5584 378.352 59.2625 379.604 60.5142C380.855 61.7659 381.56 63.4631 381.562 65.2333V308.369C381.56 310.139 380.855 311.837 379.604 313.088C378.352 314.34 376.655 315.044 374.885 315.046H21.1926C19.4224 315.044 17.7253 314.34 16.4735 313.088C15.2218 311.837 14.5177 310.14 14.5156 308.369Z" fill="white"/>
<path d="M157.026 379.776C162.462 379.776 166.869 375.369 166.869 369.933C166.869 364.496 162.462 360.09 157.026 360.09C151.589 360.09 147.183 364.496 147.183 369.933C147.183 375.369 151.589 379.776 157.026 379.776Z" fill="#E6E6E6"/>
<path d="M198.038 379.776C203.474 379.776 207.881 375.369 207.881 369.933C207.881 364.496 203.474 360.09 198.038 360.09C192.602 360.09 188.195 364.496 188.195 369.933C188.195 375.369 192.602 379.776 198.038 379.776Z" fill="#00A3FF"/>
<path d="M239.051 379.776C244.487 379.776 248.894 375.369 248.894 369.933C248.894 364.496 244.487 360.09 239.051 360.09C233.615 360.09 229.208 364.496 229.208 369.933C229.208 375.369 233.615 379.776 239.051 379.776Z" fill="#E6E6E6"/>
<path d="M198.038 258.262C183.904 258.262 170.088 254.071 158.336 246.219C146.585 238.366 137.426 227.206 132.017 214.148C126.608 201.09 125.193 186.722 127.95 172.86C130.708 158.998 137.514 146.265 147.508 136.271C157.501 126.277 170.234 119.471 184.096 116.714C197.958 113.956 212.327 115.372 225.385 120.78C238.442 126.189 249.603 135.348 257.455 147.1C265.307 158.851 269.498 172.668 269.498 186.801C269.477 205.747 261.941 223.911 248.544 237.308C235.148 250.705 216.984 258.241 198.038 258.262Z" fill="#00B0FF"/>
<path d="M226.235 179.752H205.088V158.605C205.085 156.737 204.341 154.947 203.019 153.628C201.697 152.308 199.906 151.567 198.039 151.567C196.171 151.567 194.38 152.308 193.058 153.628C191.737 154.947 190.993 156.737 190.99 158.605V179.752H169.842C167.974 179.755 166.185 180.499 164.865 181.821C163.546 183.143 162.805 184.934 162.805 186.801C162.805 188.669 163.546 190.46 164.865 191.782C166.185 193.103 167.974 193.847 169.842 193.851H190.99V214.998C190.993 216.866 191.737 218.655 193.058 219.975C194.38 221.294 196.171 222.035 198.039 222.035C199.906 222.035 201.697 221.294 203.019 219.975C204.341 218.655 205.085 216.866 205.088 214.998V193.851H226.235C227.161 193.853 228.079 193.672 228.936 193.32C229.792 192.967 230.571 192.449 231.227 191.795C231.883 191.141 232.404 190.365 232.76 189.51C233.116 188.654 233.3 187.737 233.301 186.811C233.302 185.885 233.121 184.967 232.767 184.111C232.414 183.255 231.895 182.477 231.241 181.821C230.586 181.166 229.809 180.646 228.954 180.291C228.098 179.936 227.181 179.753 226.255 179.752H226.235Z" fill="white"/>
</svg>
