<svg width="566" height="434" viewBox="0 0 566 434" fill="none" xmlns="http://www.w3.org/2000/svg">
<g clip-path="url(#clip0_406_2)">
<path opacity="0.1" d="M96.6096 63.819C93.5809 67.4957 92.4148 72.6651 91.1104 77.5249C80.6094 116.691 54.7326 148.194 25.2634 170.696C12.7838 180.228 -2.40955 193.011 0.320722 210.1C1.79087 219.278 8.24071 226.034 13.0325 233.509C23.0859 249.161 26.3467 270.436 21.5549 289.173C16.1054 310.492 0.873408 330.385 5.58782 351.942C8.49494 365.211 18.3659 374.654 27.8555 382.77C42.6601 395.424 57.9364 407.278 73.6842 418.331C84.2405 425.74 95.4711 432.95 107.774 433.889C118.607 434.719 129.218 430.6 139.504 426.536C148.49 422.981 157.704 419.282 164.96 412.161C169.697 407.512 173.472 401.513 178.733 397.709C191.091 388.774 206.964 394.436 221.135 398.262C254.573 407.241 290.359 403.962 322.177 389.007C370.985 366.062 408.186 317.879 455.927 292.026C476.454 280.907 498.783 274.008 517.789 259.688C528.498 251.535 537.7 241.573 544.982 230.253C559.351 208.077 567.122 179.802 564.878 152.125C562.634 124.448 550.061 97.7769 530.313 82.1525C509.173 65.4279 482.473 62.3041 458.42 52.2638C433.593 41.8807 411.497 24.0448 386.908 12.9264C366.998 3.94402 345.331 -0.464509 323.496 0.0243743C301.661 0.513258 280.212 5.88714 260.724 15.7516C233.947 29.2972 206.815 60.8998 176.992 63.2993C155.747 64.958 113.201 43.6831 96.6096 63.819Z" fill="#00B0FF"/>
<path d="M479.803 191.894C479.803 191.894 471.756 164.554 481.312 144.434C485.376 136.02 486.602 126.514 484.805 117.343C483.917 112.996 482.633 108.74 480.969 104.627" stroke="#535461" stroke-width="2" stroke-miterlimit="10"/>
<path d="M486.944 91.9163C486.944 95.2668 480.865 104.981 480.865 104.981C480.865 104.981 474.785 95.2668 474.785 91.9163C474.723 91.0821 474.834 90.2442 475.111 89.4548C475.388 88.6655 475.824 87.9417 476.393 87.3288C476.962 86.7159 477.652 86.227 478.418 85.8927C479.185 85.5584 480.012 85.3858 480.848 85.3858C481.684 85.3858 482.511 85.5584 483.278 85.8927C484.044 86.227 484.734 86.7159 485.303 87.3288C485.872 87.9417 486.308 88.6655 486.585 89.4548C486.862 90.2442 486.973 91.0821 486.911 91.9163H486.944Z" fill="#00B0FF"/>
<path d="M496.942 110.471C495.124 113.285 484.733 118.145 484.733 118.145C484.733 118.145 484.921 106.695 486.74 103.881C487.665 102.651 489.021 101.817 490.536 101.548C492.051 101.279 493.612 101.595 494.903 102.432C496.195 103.269 497.121 104.564 497.495 106.057C497.869 107.55 497.664 109.129 496.92 110.477L496.942 110.471Z" fill="#00B0FF"/>
<path d="M496.506 142.19C493.516 143.699 482.136 142.654 482.136 142.654C482.136 142.654 488.077 132.863 491.067 131.353C492.485 130.765 494.073 130.734 495.512 131.268C496.951 131.802 498.135 132.86 498.826 134.232C499.518 135.603 499.665 137.184 499.239 138.66C498.812 140.135 497.844 141.394 496.528 142.184L496.506 142.19Z" fill="#00B0FF"/>
<path d="M490.774 166.135C488.083 168.125 476.664 169.027 476.664 169.027C476.664 169.027 480.864 158.373 483.562 156.377C484.86 155.588 486.406 155.313 487.896 155.607C489.386 155.902 490.712 156.743 491.613 157.966C492.514 159.189 492.925 160.705 492.764 162.216C492.604 163.727 491.884 165.123 490.746 166.129L490.774 166.135Z" fill="#00B0FF"/>
<path d="M472.021 118.792C474.425 121.125 485.617 123.547 485.617 123.547C485.617 123.547 482.854 112.428 480.472 110.09C479.916 109.466 479.238 108.964 478.479 108.615C477.721 108.265 476.899 108.076 476.064 108.058C475.229 108.04 474.4 108.194 473.627 108.512C472.855 108.829 472.156 109.301 471.574 109.9C470.992 110.5 470.54 111.212 470.246 111.994C469.952 112.775 469.821 113.609 469.863 114.443C469.905 115.278 470.118 116.094 470.49 116.842C470.861 117.591 471.382 118.254 472.021 118.792Z" fill="#00B0FF"/>
<path d="M465.671 146.856C468.661 148.365 480.041 147.321 480.041 147.321C480.041 147.321 474.1 137.529 471.11 136.02C469.692 135.431 468.104 135.4 466.665 135.934C465.226 136.468 464.042 137.527 463.351 138.898C462.659 140.269 462.512 141.851 462.938 143.326C463.365 144.801 464.333 146.06 465.649 146.851L465.671 146.856Z" fill="#00B0FF"/>
<path d="M463.24 174.981C465.931 176.971 477.35 177.873 477.35 177.873C477.35 177.873 473.149 167.219 470.452 165.223C469.82 164.663 469.078 164.242 468.274 163.985C467.47 163.728 466.622 163.641 465.783 163.731C464.943 163.82 464.132 164.083 463.4 164.503C462.668 164.923 462.031 165.491 461.53 166.17C461.029 166.85 460.676 167.626 460.491 168.45C460.307 169.274 460.296 170.127 460.46 170.956C460.623 171.784 460.957 172.569 461.44 173.261C461.924 173.953 462.546 174.537 463.267 174.976L463.24 174.981Z" fill="#00B0FF"/>
<path opacity="0.1" d="M486.944 91.9163C486.944 95.2668 480.865 104.981 480.865 104.981C480.865 104.981 474.785 95.2668 474.785 91.9163C474.723 91.0821 474.834 90.2442 475.111 89.4548C475.388 88.6655 475.824 87.9417 476.393 87.3288C476.962 86.7159 477.652 86.227 478.418 85.8927C479.185 85.5584 480.012 85.3858 480.848 85.3858C481.684 85.3858 482.511 85.5584 483.278 85.8927C484.044 86.227 484.734 86.7159 485.303 87.3288C485.872 87.9417 486.308 88.6655 486.585 89.4548C486.862 90.2442 486.973 91.0821 486.911 91.9163H486.944Z" fill="#00B0FF"/>
<path opacity="0.1" d="M496.942 110.471C495.124 113.285 484.733 118.145 484.733 118.145C484.733 118.145 484.921 106.695 486.74 103.881C487.665 102.651 489.021 101.817 490.536 101.548C492.051 101.279 493.612 101.595 494.903 102.432C496.195 103.269 497.121 104.564 497.495 106.057C497.869 107.55 497.664 109.129 496.92 110.477L496.942 110.471Z" fill="#00B0FF"/>
<path opacity="0.1" d="M496.506 142.19C493.516 143.699 482.136 142.654 482.136 142.654C482.136 142.654 488.077 132.863 491.067 131.353C492.485 130.765 494.073 130.734 495.512 131.268C496.951 131.802 498.135 132.86 498.826 134.232C499.518 135.603 499.665 137.184 499.239 138.66C498.812 140.135 497.844 141.394 496.528 142.184L496.506 142.19Z" fill="#00B0FF"/>
<path opacity="0.1" d="M490.774 166.135C488.083 168.125 476.664 169.027 476.664 169.027C476.664 169.027 480.864 158.373 483.562 156.377C484.86 155.588 486.406 155.313 487.896 155.607C489.386 155.902 490.712 156.743 491.613 157.966C492.514 159.189 492.925 160.705 492.764 162.216C492.604 163.727 491.884 165.123 490.746 166.129L490.774 166.135Z" fill="#00B0FF"/>
<path opacity="0.1" d="M472.021 118.792C474.425 121.125 485.617 123.547 485.617 123.547C485.617 123.547 482.854 112.428 480.472 110.09C479.916 109.466 479.238 108.964 478.479 108.615C477.721 108.265 476.899 108.076 476.064 108.058C475.229 108.04 474.4 108.194 473.627 108.512C472.855 108.829 472.156 109.301 471.574 109.9C470.992 110.5 470.54 111.212 470.246 111.994C469.952 112.775 469.821 113.609 469.863 114.443C469.905 115.278 470.118 116.094 470.49 116.842C470.861 117.591 471.382 118.254 472.021 118.792Z" fill="#00B0FF"/>
<path opacity="0.1" d="M465.671 146.856C468.661 148.365 480.041 147.321 480.041 147.321C480.041 147.321 474.1 137.529 471.11 136.02C469.692 135.431 468.104 135.4 466.665 135.934C465.226 136.468 464.042 137.527 463.351 138.898C462.659 140.269 462.512 141.851 462.938 143.326C463.365 144.801 464.333 146.06 465.649 146.851L465.671 146.856Z" fill="#00B0FF"/>
<path opacity="0.1" d="M463.24 174.981C465.931 176.971 477.35 177.873 477.35 177.873C477.35 177.873 473.149 167.219 470.452 165.223C469.82 164.663 469.078 164.242 468.274 163.985C467.47 163.728 466.622 163.641 465.783 163.731C464.943 163.82 464.132 164.083 463.4 164.503C462.668 164.923 462.031 165.491 461.53 166.17C461.029 166.85 460.676 167.626 460.491 168.45C460.307 169.274 460.296 170.127 460.46 170.956C460.623 171.784 460.957 172.569 461.44 173.261C461.924 173.953 462.546 174.537 463.267 174.976L463.24 174.981Z" fill="#00B0FF"/>
<path d="M513.517 235.571C513.517 235.571 505.47 208.231 515.026 188.112C519.09 179.698 520.315 170.191 518.519 161.021C517.631 156.674 516.347 152.417 514.683 148.305" stroke="#535461" stroke-width="2" stroke-miterlimit="10"/>
<path d="M520.658 135.594C520.658 138.944 514.579 148.658 514.579 148.658C514.579 148.658 508.499 138.944 508.499 135.594C508.437 134.76 508.548 133.922 508.825 133.132C509.102 132.343 509.538 131.619 510.107 131.006C510.676 130.393 511.366 129.905 512.132 129.57C512.899 129.236 513.726 129.063 514.562 129.063C515.398 129.063 516.225 129.236 516.992 129.57C517.758 129.905 518.448 130.393 519.017 131.006C519.586 131.619 520.022 132.343 520.299 133.132C520.576 133.922 520.687 134.76 520.625 135.594H520.658Z" fill="#00B0FF"/>
<path d="M530.655 154.149C528.837 156.963 518.469 161.817 518.469 161.817C518.469 161.817 518.657 150.367 520.475 147.553C520.878 146.822 521.428 146.182 522.089 145.673C522.75 145.164 523.509 144.797 524.318 144.594C525.127 144.391 525.969 144.357 526.792 144.493C527.615 144.63 528.402 144.935 529.102 145.388C529.802 145.842 530.401 146.435 530.863 147.13C531.324 147.826 531.637 148.609 531.783 149.43C531.929 150.252 531.904 151.095 531.71 151.907C531.516 152.719 531.157 153.482 530.655 154.149Z" fill="#00B0FF"/>
<path d="M530.219 185.867C527.229 187.377 515.85 186.332 515.85 186.332C515.85 186.332 521.791 176.54 524.781 175.031C525.498 174.6 526.296 174.322 527.125 174.214C527.954 174.106 528.796 174.17 529.599 174.403C530.402 174.635 531.149 175.03 531.792 175.564C532.436 176.098 532.962 176.76 533.339 177.506C533.715 178.253 533.934 179.069 533.98 179.904C534.027 180.739 533.901 181.575 533.611 182.359C533.32 183.143 532.871 183.859 532.291 184.462C531.711 185.065 531.014 185.541 530.242 185.862L530.219 185.867Z" fill="#00B0FF"/>
<path d="M524.488 209.813C521.796 211.803 510.378 212.704 510.378 212.704C510.378 212.704 514.578 202.05 517.275 200.054C518.573 199.265 520.12 198.991 521.61 199.285C523.1 199.579 524.426 200.421 525.327 201.644C526.228 202.867 526.638 204.383 526.478 205.894C526.318 207.404 525.598 208.8 524.46 209.807L524.488 209.813Z" fill="#00B0FF"/>
<path d="M505.735 162.469C508.139 164.803 519.331 167.224 519.331 167.224C519.331 167.224 516.568 156.106 514.186 153.767C513.009 152.777 511.502 152.27 509.967 152.347C508.431 152.424 506.982 153.08 505.911 154.183C504.84 155.286 504.226 156.754 504.194 158.292C504.161 159.829 504.712 161.322 505.735 162.469Z" fill="#00B0FF"/>
<path d="M499.384 190.534C502.374 192.043 513.754 190.998 513.754 190.998C513.754 190.998 507.813 181.207 504.823 179.697C503.405 179.108 501.817 179.078 500.378 179.612C498.939 180.146 497.755 181.204 497.063 182.575C496.372 183.946 496.225 185.528 496.651 187.003C497.078 188.479 498.046 189.738 499.362 190.528L499.384 190.534Z" fill="#00B0FF"/>
<path d="M496.953 218.659C499.645 220.649 511.064 221.55 511.064 221.55C511.064 221.55 506.863 210.896 504.166 208.9C503.534 208.341 502.792 207.919 501.988 207.662C501.184 207.406 500.336 207.319 499.496 207.408C498.657 207.497 497.846 207.76 497.114 208.18C496.381 208.6 495.745 209.168 495.244 209.848C494.743 210.527 494.39 211.304 494.205 212.128C494.021 212.952 494.01 213.805 494.174 214.633C494.337 215.461 494.671 216.247 495.154 216.939C495.638 217.631 496.26 218.215 496.981 218.653L496.953 218.659Z" fill="#00B0FF"/>
<path opacity="0.1" d="M520.658 135.594C520.658 138.944 514.579 148.658 514.579 148.658C514.579 148.658 508.499 138.944 508.499 135.594C508.437 134.76 508.548 133.922 508.825 133.132C509.102 132.343 509.538 131.619 510.107 131.006C510.676 130.393 511.366 129.905 512.132 129.57C512.899 129.236 513.726 129.063 514.562 129.063C515.398 129.063 516.225 129.236 516.992 129.57C517.758 129.905 518.448 130.393 519.017 131.006C519.586 131.619 520.022 132.343 520.299 133.132C520.576 133.922 520.687 134.76 520.625 135.594H520.658Z" fill="#00B0FF"/>
<path opacity="0.1" d="M530.655 154.149C528.837 156.963 518.469 161.817 518.469 161.817C518.469 161.817 518.657 150.367 520.475 147.553C520.878 146.822 521.428 146.182 522.089 145.673C522.75 145.164 523.509 144.797 524.318 144.594C525.127 144.391 525.969 144.357 526.792 144.493C527.615 144.63 528.402 144.935 529.102 145.388C529.802 145.842 530.401 146.435 530.863 147.13C531.324 147.826 531.637 148.609 531.783 149.43C531.929 150.252 531.904 151.095 531.71 151.907C531.516 152.719 531.157 153.482 530.655 154.149Z" fill="#00B0FF"/>
<path opacity="0.1" d="M530.219 185.867C527.229 187.377 515.85 186.332 515.85 186.332C515.85 186.332 521.791 176.54 524.781 175.031C525.498 174.6 526.296 174.322 527.125 174.214C527.954 174.106 528.796 174.17 529.599 174.403C530.402 174.635 531.149 175.03 531.792 175.564C532.436 176.098 532.962 176.76 533.339 177.506C533.715 178.253 533.934 179.069 533.98 179.904C534.027 180.739 533.901 181.575 533.611 182.359C533.32 183.143 532.871 183.859 532.291 184.462C531.711 185.065 531.014 185.541 530.242 185.862L530.219 185.867Z" fill="#00B0FF"/>
<path opacity="0.1" d="M524.488 209.813C521.796 211.803 510.378 212.704 510.378 212.704C510.378 212.704 514.578 202.05 517.275 200.054C518.573 199.265 520.12 198.991 521.61 199.285C523.1 199.579 524.426 200.421 525.327 201.644C526.228 202.867 526.638 204.383 526.478 205.894C526.318 207.404 525.598 208.8 524.46 209.807L524.488 209.813Z" fill="#00B0FF"/>
<path opacity="0.1" d="M505.735 162.469C508.139 164.803 519.331 167.224 519.331 167.224C519.331 167.224 516.568 156.106 514.186 153.767C513.009 152.777 511.502 152.27 509.967 152.347C508.431 152.424 506.982 153.08 505.911 154.183C504.84 155.286 504.226 156.754 504.194 158.292C504.161 159.829 504.712 161.322 505.735 162.469Z" fill="#00B0FF"/>
<path opacity="0.1" d="M499.384 190.534C502.374 192.043 513.754 190.998 513.754 190.998C513.754 190.998 507.813 181.207 504.823 179.697C503.405 179.108 501.817 179.078 500.378 179.612C498.939 180.146 497.755 181.204 497.063 182.575C496.372 183.946 496.225 185.528 496.651 187.003C497.078 188.479 498.046 189.738 499.362 190.528L499.384 190.534Z" fill="#00B0FF"/>
<path opacity="0.1" d="M496.953 218.659C499.645 220.649 511.064 221.55 511.064 221.55C511.064 221.55 506.863 210.896 504.166 208.9C503.534 208.341 502.792 207.919 501.988 207.662C501.184 207.406 500.336 207.319 499.496 207.408C498.657 207.497 497.846 207.76 497.114 208.18C496.381 208.6 495.745 209.168 495.244 209.848C494.743 210.527 494.39 211.304 494.205 212.128C494.021 212.952 494.01 213.805 494.174 214.633C494.337 215.461 494.671 216.247 495.154 216.939C495.638 217.631 496.26 218.215 496.981 218.653L496.953 218.659Z" fill="#00B0FF"/>
<path opacity="0.1" d="M298.419 326.979C448.538 312.334 568.323 280.866 565.967 256.693C563.61 232.521 440.004 224.797 289.885 239.442C139.766 254.087 19.9807 285.555 22.3372 309.728C24.6938 333.901 148.3 341.624 298.419 326.979Z" fill="#00B0FF"/>
<path d="M542.312 260.545C552.531 239.591 550.42 205.484 549.331 193.906C549.093 191.374 548.906 189.92 548.906 189.92C548.906 189.92 539.897 188.499 543.218 177.591C544.843 172.25 539.073 169.297 532.773 167.678C528.268 166.6 523.671 165.95 519.044 165.737L431.78 160.346C419.815 141.349 396.27 144.401 396.27 144.401C396.27 144.401 375.268 142.217 360.379 141.991C358.119 139.999 355.642 138.269 352.995 136.832C351.418 135.884 349.738 135.118 347.988 134.549C345.86 133.935 343.618 133.827 341.441 134.235C339.265 134.644 337.214 135.556 335.453 136.899C334.595 137.516 333.895 138.329 333.413 139.271C333.228 139.699 333.089 140.145 332.999 140.603C332.774 141.384 332.59 142.175 332.446 142.975C332.316 143.36 332.13 143.723 331.893 144.053C331.297 144.899 330.269 145.535 330.136 146.558C330.133 146.616 330.133 146.676 330.136 146.734C330.027 146.93 329.954 147.143 329.92 147.365C329.88 147.82 329.979 148.277 330.202 148.675C330.235 148.741 330.274 148.802 330.313 148.863C329.578 149.927 328.978 151.079 328.528 152.291C328.323 152.402 328.126 152.526 327.936 152.661L327.77 152.783V153.12L327.676 153.192L327.472 158.638L327.588 158.726C327.755 161.267 328.522 163.732 329.824 165.919C331.127 168.106 332.929 169.953 335.082 171.31C335.154 171.658 335.221 172.012 335.287 172.383C335.59 174.168 335.727 175.979 335.696 177.79H335.602C333.004 176.684 328.561 178.309 324.742 180.206H275.265C284.915 167.788 296.721 158.157 296.721 158.157V147.243C288.287 146.823 214.193 182.428 197.95 190.29L197.232 190.639L113.748 193.226C98.6269 193.132 85.4066 195.355 73.955 198.976C54.8186 204.989 37.6223 215.979 24.1248 230.822C14.2649 241.647 9.94289 250.593 9.94289 250.593L10.0368 251.345L9.94289 251.538L10.0755 251.655L12.325 269.413L13.8725 281.632C3.11722 288.587 17.0504 291.373 17.0504 291.373C30.3149 302.752 51.6541 302.282 51.6541 302.282C56.8659 309.397 72.0371 308.446 72.0371 308.446H151.674C152.914 301.133 154.575 293.896 156.648 286.774C160.047 311.261 179.363 330.02 202.675 330.02C204.405 330.019 206.132 329.914 207.849 329.705C209.565 329.914 211.293 330.019 213.022 330.02C236.605 330.02 256.093 310.818 259.16 285.922H263.056C262.329 291.484 261.065 296.963 259.282 302.282C330.86 281.416 464.063 271.459 464.063 271.459C464.615 266.206 465.223 261.131 465.881 256.26C471.369 269.889 483.81 279.404 498.291 279.404C499.606 279.402 500.92 279.321 502.226 279.16C503.531 279.321 504.845 279.402 506.161 279.404C523.355 279.404 537.664 265.985 540.892 248.194C541.319 251.334 541.563 254.496 541.621 257.664C541.008 260.683 540.472 262.613 540.4 262.884C540.831 262.095 541.24 261.288 541.627 260.462C541.627 260.783 541.627 261.114 541.627 261.446C541.494 261.999 541.4 262.309 541.372 262.414L541.616 261.96C541.616 262.204 541.616 262.441 541.616 262.685C541.56 262.707 541.853 261.91 542.312 260.545Z" fill="url(#paint0_linear_406_2)"/>
<path d="M533.961 185.254H369.868V251.472H533.961V185.254Z" fill="#6F7D95"/>
<path d="M328.146 154.243L351.453 206.473L397.608 203.676L399.471 182.224L400.869 157.04L335.608 152.374L328.146 154.243Z" fill="#4B5C7A"/>
<path d="M328.146 154.243C328.146 154.243 336.989 145.85 347.728 143.981C358.467 142.112 394.347 145.844 394.347 145.844L399.476 154.69L398.514 158.903L328.146 154.243Z" fill="#00A3FF"/>
<path d="M416.018 181.057H250.527V229.556H416.018V181.057Z" fill="#4B5C7A"/>
<path d="M375.302 214.053C379.673 199.429 370.958 189.82 370.958 189.82L356.51 179.736C356.498 179.77 356.484 179.803 356.466 179.835C354.587 177.633 353.242 175.025 352.537 172.217C352.492 172.04 352.454 171.857 352.41 171.664C353.73 170.682 354.887 169.497 355.836 168.153C358.191 166.71 359.241 164.388 359.639 162.071C361.153 159.823 362.36 157.381 363.226 154.812C363.369 154.396 363.49 153.974 363.59 153.546C363.869 152.749 363.992 151.907 363.955 151.063C363.837 150.125 363.525 149.221 363.038 148.41C360.606 143.987 356.229 140.907 351.791 138.397C350.239 137.465 348.587 136.712 346.866 136.152C344.774 135.549 342.57 135.444 340.43 135.845C338.289 136.246 336.273 137.143 334.541 138.463C333.697 139.071 333.009 139.871 332.535 140.797C332.352 141.217 332.215 141.657 332.126 142.107C331.911 142.875 331.736 143.654 331.601 144.44C331.48 144.816 331.305 145.171 331.081 145.496C330.49 146.325 329.484 146.95 329.351 147.962C329.348 148.021 329.348 148.08 329.351 148.139C329.245 148.331 329.174 148.541 329.141 148.758C329.101 149.205 329.197 149.655 329.418 150.046C329.451 150.113 329.49 150.173 329.528 150.234C328.805 151.281 328.215 152.414 327.771 153.607C327.568 153.716 327.373 153.838 327.185 153.972L327.025 154.088V154.419L326.931 154.491L326.726 159.849L326.837 159.937C327 162.436 327.753 164.861 329.033 167.012C330.314 169.164 332.086 170.982 334.204 172.316C334.276 172.659 334.342 173.007 334.403 173.372C334.737 175.301 334.87 177.26 334.801 179.216C334.779 179.047 334.779 178.876 334.801 178.707C330.805 176.9 322.089 181.898 318.58 184.109C318.048 184.361 317.551 184.683 317.104 185.066L317.043 185.11C314.628 187.067 309.858 192.507 306.072 206.49C300.822 226.001 301.369 230.424 297.544 234.946C293.72 239.469 289.923 271.332 289.923 271.332L297.622 273.405L298.606 270.242C307.758 278.591 333.386 282.61 333.386 282.61L334.171 280.172C338.1 281.587 344.672 279.437 344.672 279.437C354.278 276.042 357.876 267.428 364.845 256.067C371.814 244.705 375.302 214.053 375.302 214.053ZM336.558 272.841L354.3 217.791C355.908 226.338 348.812 239.801 348.181 248.603C347.789 254.264 341.201 265.515 336.558 272.841Z" fill="url(#paint1_linear_406_2)"/>
<path d="M358.754 156.128C358.754 156.128 361.844 167.899 352.675 169.95C343.505 172.001 349.546 164.659 349.546 164.659L358.389 156.039L358.754 156.128Z" fill="#472727"/>
<path d="M320.419 184.181C320.419 184.181 313.599 186.945 308.586 205.566C303.573 224.187 304.071 228.389 300.462 232.718C296.853 237.047 293.155 267.423 293.155 267.423L300.373 269.369L306.657 249.067L323.94 195.438L320.419 184.181Z" fill="#DDE0E4"/>
<path opacity="0.05" d="M320.419 184.181C320.419 184.181 313.599 186.945 308.586 205.566C303.573 224.187 304.071 228.389 300.462 232.718C296.853 237.047 293.155 267.423 293.155 267.423L300.373 269.369L306.657 249.067L323.94 195.438L320.419 184.181Z" fill="black"/>
<path d="M358.29 182.08C358.29 182.08 329.738 196.599 333.917 187.128C335.984 182.45 335.906 177.602 335.304 173.859C334.96 171.654 334.357 169.498 333.508 167.434C333.508 167.434 352.918 152.075 351.779 164.615C351.507 167.313 351.694 170.039 352.332 172.676C354.012 179.327 358.29 182.08 358.29 182.08Z" fill="#DB8B8B"/>
<path opacity="0.1" d="M352.332 172.698C350.496 174.173 348.337 175.192 346.031 175.673C343.726 176.153 341.34 176.081 339.067 175.462C337.739 175.105 336.465 174.567 335.282 173.864C334.938 171.66 334.335 169.503 333.485 167.44C333.485 167.44 352.896 152.081 351.757 164.62C351.49 167.326 351.684 170.057 352.332 172.698Z" fill="black"/>
<path d="M357.611 164.171C359.757 156.199 355.036 147.995 347.066 145.849C339.096 143.702 330.896 148.425 328.75 156.397C326.604 164.37 331.325 172.573 339.295 174.72C347.265 176.867 355.465 172.144 357.611 164.171Z" fill="#DB8B8B"/>
<path opacity="0.1" d="M335.674 152.993C335.264 153.244 334.808 153.409 334.332 153.478C333.857 153.548 333.372 153.521 332.908 153.398C332.443 153.276 332.008 153.061 331.629 152.766C331.249 152.471 330.933 152.103 330.7 151.683C330.495 151.308 330.406 150.881 330.446 150.455C330.573 149.493 331.523 148.896 332.104 148.1C333.005 146.812 332.833 145.048 333.485 143.616C333.934 142.742 334.582 141.984 335.376 141.405C336.991 140.142 338.882 139.279 340.894 138.887C342.907 138.495 344.983 138.585 346.954 139.149C348.567 139.675 350.114 140.386 351.564 141.266C355.72 143.638 359.815 146.541 362.065 150.759C362.52 151.534 362.81 152.394 362.916 153.286C362.941 154.25 362.772 155.209 362.418 156.106C361.587 158.584 360.429 160.939 358.975 163.111C358.489 162.507 357.878 162.014 357.185 161.668C356.834 161.502 356.441 161.451 356.06 161.521C355.679 161.592 355.33 161.78 355.062 162.06C354.581 162.674 354.288 163.846 353.559 163.57C353.084 163.393 353.089 162.735 353.111 162.226C353.211 160.015 352.006 157.93 350.387 156.438C348.767 154.945 346.761 153.961 344.782 152.993C343.362 152.296 341.466 150.699 339.908 150.417C337.973 150.057 337.061 152.136 335.674 152.993Z" fill="black"/>
<path d="M335.878 152.236C335.468 152.486 335.012 152.651 334.536 152.721C334.061 152.791 333.576 152.763 333.112 152.641C332.647 152.519 332.212 152.304 331.833 152.009C331.453 151.714 331.137 151.345 330.904 150.925C330.699 150.551 330.61 150.123 330.65 149.698C330.777 148.736 331.727 148.139 332.308 147.343C333.209 146.054 333.037 144.291 333.69 142.859C334.139 141.984 334.786 141.227 335.58 140.647C337.195 139.384 339.086 138.521 341.098 138.129C343.111 137.737 345.187 137.827 347.158 138.392C348.771 138.918 350.318 139.628 351.768 140.509C355.924 142.881 360.019 145.784 362.269 150.002C362.725 150.776 363.014 151.637 363.12 152.529C363.145 153.492 362.976 154.451 362.623 155.348C361.791 157.826 360.633 160.182 359.179 162.353C358.693 161.749 358.082 161.257 357.389 160.91C357.038 160.745 356.645 160.694 356.264 160.764C355.883 160.834 355.534 161.023 355.266 161.303C354.786 161.917 354.493 163.089 353.763 162.812C353.288 162.635 353.293 161.977 353.315 161.469C353.415 159.257 352.21 157.173 350.591 155.68C348.971 154.187 346.965 153.203 344.986 152.236C343.566 151.539 341.67 149.941 340.112 149.659C338.177 149.294 337.265 151.379 335.878 152.236Z" fill="#472727"/>
<path d="M343.704 184.059C343.704 184.059 355.526 181.743 356.04 179.846L369.559 189.395C369.559 189.395 377.694 198.512 373.533 212.466C373.533 212.466 370.145 241.708 363.557 252.561C356.969 263.414 353.183 277.474 344.158 280.758C344.158 280.758 335.48 275.163 332.617 275.229C332.617 275.229 347.313 253.927 347.943 245.54C348.573 237.152 355.289 224.292 353.818 216.154L333.922 278.021C333.922 278.021 301.866 273.045 298.616 262.403C298.616 262.403 301.38 258.25 300.866 254.043C300.352 249.836 312.958 218.183 312.958 218.183L318.994 185.176C318.994 185.176 330.932 176.833 335.685 179.001C335.663 178.967 334.801 183.086 343.704 184.059Z" fill="#DDE0E4"/>
<g opacity="0.1">
<path d="M348.009 158.395C345.091 154.414 339.526 157.681 338.614 158.251L337.182 158.107C335.933 156.747 332.103 153.131 328.505 155.791L328.35 155.907L328.135 161.01L328.29 161.131C329.329 161.934 330.507 162.538 331.766 162.912C332.563 163.146 333.404 163.188 334.22 163.033C334.824 162.894 335.39 162.624 335.878 162.242C336.366 161.859 336.764 161.375 337.044 160.822L337.79 160.872L338.343 160.767C338.453 161.355 338.688 161.912 339.031 162.402C339.374 162.892 339.818 163.303 340.333 163.608C342.803 165.007 346.412 163.608 346.561 163.581L346.749 163.509L348.076 158.572L348.009 158.395ZM346.136 162.884C345.401 163.133 342.626 163.951 340.764 162.884C340.3 162.593 339.909 162.2 339.622 161.734C339.334 161.268 339.158 160.742 339.106 160.197L339.039 159.793L337.829 160.042L336.613 159.998L336.497 160.23C336.275 160.732 335.941 161.177 335.52 161.53C335.1 161.883 334.604 162.134 334.071 162.265C331.987 162.713 329.577 161.098 328.947 160.639L329.13 156.327C332.258 154.22 335.707 157.637 336.701 158.754L336.806 158.87L338.824 159.069L338.945 158.986C339.001 158.953 344.013 155.586 346.871 158.295C347.013 158.427 347.144 158.569 347.263 158.721L346.136 162.884Z" fill="black"/>
<path d="M357.062 160.96L347.667 160.181L346.893 160.031L347.241 158.726C347.122 158.575 346.99 158.432 346.849 158.301L347.987 158.411L355.675 159.163L357.062 160.96Z" fill="black"/>
</g>
<path d="M348.109 158.041C345.191 154.06 339.625 157.328 338.713 157.897L337.282 157.753C336.033 156.393 332.203 152.777 328.605 155.437L328.45 155.553L328.234 160.656L328.389 160.778C329.428 161.58 330.607 162.184 331.865 162.558C332.662 162.792 333.503 162.834 334.319 162.679C334.923 162.54 335.489 162.27 335.977 161.888C336.465 161.506 336.863 161.021 337.144 160.468L337.89 160.518L338.442 160.413C338.553 161.001 338.788 161.558 339.131 162.048C339.474 162.538 339.918 162.95 340.432 163.254C342.903 164.653 346.512 163.254 346.661 163.227L346.849 163.155L348.175 158.218L348.109 158.041ZM346.235 162.53C345.5 162.779 342.726 163.597 340.863 162.53C340.399 162.239 340.009 161.846 339.721 161.38C339.434 160.914 339.257 160.388 339.205 159.843L339.139 159.44L337.928 159.688L336.729 159.611L336.613 159.843C336.395 160.348 336.064 160.797 335.645 161.153C335.226 161.51 334.731 161.765 334.198 161.9C332.114 162.348 329.704 160.733 329.074 160.274L329.257 155.962C332.385 153.856 335.834 157.272 336.829 158.389L336.934 158.505L338.951 158.704L339.073 158.621C339.128 158.588 344.141 155.221 346.998 157.93C347.14 158.062 347.271 158.204 347.39 158.356L346.235 162.53Z" fill="#472727"/>
<path d="M357.151 160.606L347.789 159.827L347.015 159.677L347.363 158.373C347.244 158.221 347.112 158.078 346.971 157.947L348.109 158.057L355.797 158.809L357.151 160.606Z" fill="#472727"/>
<path d="M292.946 218.83H128.854V285.049H292.946V218.83Z" fill="#6F7D95"/>
<path d="M203.952 328.416C229.241 328.416 249.742 305.973 249.742 278.287C249.742 250.601 229.241 228.157 203.952 228.157C178.663 228.157 158.162 250.601 158.162 278.287C158.162 305.973 178.663 328.416 203.952 328.416Z" fill="#4B5C7A"/>
<path opacity="0.05" d="M203.952 328.416C229.241 328.416 249.742 305.973 249.742 278.287C249.742 250.601 229.241 228.157 203.952 228.157C178.663 228.157 158.162 250.601 158.162 278.287C158.162 305.973 178.663 328.416 203.952 328.416Z" fill="black"/>
<path d="M214.127 328.416C239.416 328.416 259.917 305.973 259.917 278.287C259.917 250.601 239.416 228.157 214.127 228.157C188.838 228.157 168.337 250.601 168.337 278.287C168.337 305.973 188.838 328.416 214.127 328.416Z" fill="#4B5C7A"/>
<path opacity="0.05" d="M213.11 298.898C224.349 298.898 233.46 289.784 233.46 278.541C233.46 267.298 224.349 258.184 213.11 258.184C201.871 258.184 192.76 267.298 192.76 278.541C192.76 289.784 201.871 298.898 213.11 298.898Z" fill="black"/>
<path d="M213.11 284.65C216.483 284.65 219.217 281.915 219.217 278.541C219.217 275.167 216.483 272.432 213.11 272.432C209.737 272.432 207.003 275.167 207.003 278.541C207.003 281.915 209.737 284.65 213.11 284.65Z" stroke="#6F7D95" stroke-width="2" stroke-miterlimit="10"/>
<path d="M213.11 269.38C213.953 269.38 214.636 268.697 214.636 267.854C214.636 267.011 213.953 266.328 213.11 266.328C212.268 266.328 211.585 267.011 211.585 267.854C211.585 268.697 212.268 269.38 213.11 269.38Z" fill="#6F7D95"/>
<path d="M222.438 271.97C223.084 271.428 223.168 270.465 222.626 269.82C222.085 269.174 221.122 269.09 220.477 269.632C219.832 270.173 219.748 271.136 220.289 271.781C220.831 272.427 221.793 272.511 222.438 271.97Z" fill="#6F7D95"/>
<path d="M226.08 279.359C226.226 278.529 225.672 277.737 224.843 277.591C224.013 277.445 223.222 277.999 223.075 278.829C222.929 279.659 223.483 280.45 224.313 280.597C225.142 280.743 225.934 280.189 226.08 279.359Z" fill="#6F7D95"/>
<path d="M220.979 288.136C221.709 287.714 221.959 286.781 221.538 286.051C221.116 285.321 220.183 285.071 219.454 285.493C218.724 285.914 218.474 286.847 218.896 287.577C219.317 288.307 220.25 288.557 220.979 288.136Z" fill="#6F7D95"/>
<path d="M212.948 288.962C213.236 288.17 212.828 287.294 212.036 287.006C211.245 286.718 210.369 287.126 210.081 287.918C209.793 288.71 210.201 289.585 210.993 289.874C211.785 290.162 212.66 289.754 212.948 288.962Z" fill="#6F7D95"/>
<path d="M205.195 284.249C205.986 283.961 206.394 283.085 206.106 282.293C205.818 281.501 204.943 281.093 204.151 281.381C203.36 281.669 202.951 282.545 203.239 283.337C203.528 284.129 204.403 284.537 205.195 284.249Z" fill="#6F7D95"/>
<path d="M205.906 274.716C206.327 273.986 206.077 273.053 205.347 272.632C204.618 272.21 203.685 272.46 203.264 273.19C202.842 273.92 203.092 274.853 203.822 275.275C204.552 275.696 205.485 275.446 205.906 274.716Z" fill="#6F7D95"/>
<path d="M543.146 239.546C541.582 250.35 537.233 262.176 537.233 262.176C537.262 261.439 537.28 260.711 537.288 259.992C537.288 259.063 537.288 258.145 537.288 257.228C536.735 227.449 520.514 209.077 510.051 200.281C507.332 197.963 504.407 195.898 501.313 194.111H529.749C529.749 194.111 540.936 216.961 543.268 228.152C543.942 231.292 543.754 235.345 543.146 239.546Z" fill="#00A3FF"/>
<path opacity="0.05" d="M543.146 239.546C541.582 250.35 537.233 262.176 537.233 262.176C537.262 261.439 537.28 260.711 537.288 259.992C537.288 259.063 537.288 258.145 537.288 257.228C536.735 227.449 520.514 209.077 510.051 200.281C507.332 197.963 504.407 195.898 501.313 194.111H529.749C529.749 194.111 540.936 216.961 543.268 228.152C543.942 231.292 543.754 235.345 543.146 239.546Z" fill="black"/>
<path d="M494.665 278.641C513.898 278.641 529.489 261.571 529.489 240.514C529.489 219.457 513.898 202.387 494.665 202.387C475.431 202.387 459.84 219.457 459.84 240.514C459.84 261.571 475.431 278.641 494.665 278.641Z" fill="#4B5C7A"/>
<path opacity="0.05" d="M494.665 278.641C513.898 278.641 529.489 261.571 529.489 240.514C529.489 219.457 513.898 202.387 494.665 202.387C475.431 202.387 459.84 219.457 459.84 240.514C459.84 261.571 475.431 278.641 494.665 278.641Z" fill="black"/>
<path d="M502.403 278.641C521.636 278.641 537.228 261.571 537.228 240.514C537.228 219.457 521.636 202.387 502.403 202.387C483.17 202.387 467.578 219.457 467.578 240.514C467.578 261.571 483.17 278.641 502.403 278.641Z" fill="#4B5C7A"/>
<path opacity="0.05" d="M501.629 256.188C510.175 256.188 517.104 249.257 517.104 240.708C517.104 232.158 510.175 225.227 501.629 225.227C493.082 225.227 486.153 232.158 486.153 240.708C486.153 249.257 493.082 256.188 501.629 256.188Z" fill="black"/>
<path d="M501.629 245.352C504.193 245.352 506.271 243.272 506.271 240.708C506.271 238.143 504.193 236.063 501.629 236.063C499.065 236.063 496.986 238.143 496.986 240.708C496.986 243.272 499.065 245.352 501.629 245.352Z" stroke="#6F7D95" stroke-width="2" stroke-miterlimit="10"/>
<path d="M501.628 233.741C502.269 233.741 502.789 233.221 502.789 232.58C502.789 231.939 502.269 231.419 501.628 231.419C500.987 231.419 500.468 231.939 500.468 232.58C500.468 233.221 500.987 233.741 501.628 233.741Z" fill="#6F7D95"/>
<path d="M508.727 235.71C509.218 235.298 509.282 234.565 508.87 234.074C508.458 233.583 507.726 233.519 507.235 233.931C506.744 234.343 506.68 235.075 507.092 235.567C507.504 236.058 508.236 236.122 508.727 235.71Z" fill="#6F7D95"/>
<path d="M511.492 241.334C511.604 240.703 511.182 240.101 510.551 239.989C509.92 239.878 509.318 240.3 509.206 240.931C509.095 241.563 509.517 242.165 510.148 242.276C510.779 242.387 511.381 241.966 511.492 241.334Z" fill="#6F7D95"/>
<path d="M507.618 248.008C508.173 247.688 508.363 246.977 508.043 246.422C507.722 245.867 507.012 245.677 506.457 245.997C505.902 246.318 505.712 247.028 506.032 247.583C506.353 248.139 507.063 248.329 507.618 248.008Z" fill="#6F7D95"/>
<path d="M501.509 248.635C501.728 248.032 501.418 247.366 500.815 247.146C500.213 246.927 499.547 247.238 499.328 247.84C499.108 248.443 499.419 249.109 500.021 249.328C500.624 249.548 501.29 249.237 501.509 248.635Z" fill="#6F7D95"/>
<path d="M495.609 245.046C496.212 244.826 496.522 244.16 496.303 243.557C496.084 242.955 495.418 242.644 494.815 242.864C494.213 243.083 493.902 243.749 494.122 244.352C494.341 244.954 495.007 245.265 495.609 245.046Z" fill="#6F7D95"/>
<path d="M496.157 237.797C496.478 237.242 496.287 236.532 495.732 236.211C495.177 235.89 494.467 236.081 494.147 236.636C493.826 237.191 494.016 237.901 494.572 238.222C495.127 238.543 495.837 238.352 496.157 237.797Z" fill="#6F7D95"/>
<path d="M18.6089 283.418L14.3975 250.306H64.2774L89.9164 273.156L77.3318 302.536C77.3318 302.536 26.5566 294.143 18.6089 283.418Z" fill="#00A3FF"/>
<path opacity="0.05" d="M89.9327 273.156L77.3481 302.536C77.3481 302.536 26.5563 294.143 18.6086 283.418L18.4262 281.975L14.5574 251.356L14.5188 251.052L14.4248 250.311H64.3047L89.9327 273.156Z" fill="#00A3FF"/>
<path d="M296.45 148.647V159.373C296.45 159.373 270.673 180.383 264.538 200.204C263.467 203.422 263.063 206.825 263.35 210.205C265.682 232.121 196.231 192.48 196.231 192.48L199.321 190.976C215.288 183.274 288.154 148.227 296.45 148.647Z" fill="#7597CE"/>
<path d="M355.189 200.414C355.189 200.414 379.331 188.549 383.205 179.769C383.725 178.591 384.217 177.403 384.791 176.247C387.184 171.432 392.214 160.136 389.683 154.712C386.422 147.719 397.608 155.647 397.608 155.647L391.081 188.748L375.23 197.594L354.72 200.414" fill="#00A3FF"/>
<path opacity="0.05" d="M355.189 200.414C355.189 200.414 379.331 188.549 383.205 179.769C383.725 178.591 384.217 177.403 384.791 176.247C387.184 171.432 392.214 160.136 389.683 154.712C386.422 147.719 397.608 155.647 397.608 155.647L391.081 188.748L375.23 197.594L354.72 200.414" fill="#00A3FF"/>
<path opacity="0.05" d="M89.9327 273.156L77.3481 302.536C77.3481 302.536 26.5562 294.143 18.6086 283.418L18.4262 281.975C18.6307 281.836 18.8463 281.693 19.0729 281.554C19.0729 281.554 34.4541 293.679 69.4225 296.482C69.4225 296.482 90.4246 279.691 56.3681 261.042C56.3681 261.042 26.7442 261.971 14.5409 251.362L14.4082 251.251L14.5022 251.057C14.5832 250.899 14.714 250.652 14.8946 250.317H64.2881L89.9327 273.156Z" fill="black"/>
<path opacity="0.05" d="M263.35 210.2C265.682 232.121 196.231 192.48 196.231 192.48L199.321 190.976C201.366 193.154 209.529 200.502 225.85 199.706C236.351 199.192 252.296 199.662 264.566 200.198C263.485 203.415 263.072 206.818 263.35 210.2Z" fill="black"/>
<path opacity="0.05" d="M292.951 218.83V285.049H262.465C264.476 269.645 263.316 247.193 243.762 234.322C236.469 229.553 228 226.892 219.291 226.633C210.582 226.373 201.971 228.525 194.407 232.851C181.59 240.171 167.259 255.055 158.151 285.049H128.858V218.83H292.951Z" fill="black"/>
<path opacity="0.05" d="M543.146 239.546C541.997 246.856 540.151 253.955 537.293 260.003C536.925 260.818 536.523 261.612 536.088 262.386C536.16 262.115 536.685 260.224 537.293 257.25C540.256 242.764 545.324 202.68 511.367 200.391C510.925 200.364 510.488 200.336 510.051 200.32C507.334 197.988 504.409 195.91 501.313 194.111H529.749C529.749 194.111 540.936 216.961 543.268 228.152C543.942 231.292 543.754 235.345 543.146 239.546Z" fill="black"/>
<path d="M537.012 261.933C537.454 260.335 553.205 202.702 512.29 199.944C470.8 197.146 465.671 228.389 461.012 270.828C461.012 270.828 330.025 280.62 259.624 301.143C259.624 301.143 276.525 254.811 244.702 233.857C237.409 229.089 228.94 226.428 220.231 226.168C211.522 225.909 202.911 228.061 195.347 232.387C179.651 241.354 161.672 261.689 153.807 307.202H75.4804C75.4804 307.202 60.5579 308.137 55.4345 301.121C55.4345 301.121 34.4324 301.585 21.4056 290.395C21.4056 290.395 7.42269 287.597 18.6091 280.603C18.6091 280.603 34.4601 292.728 69.423 295.531C69.423 295.531 90.425 278.74 56.3685 260.091C56.3685 260.091 26.5235 261.026 14.4142 250.3C14.4142 250.3 18.6643 241.504 28.364 230.861C41.6307 216.262 58.535 205.45 77.3485 199.529C90.0254 195.609 103.239 193.702 116.506 193.879L198.785 191.313C198.785 191.313 206.732 201.575 225.822 200.64C244.912 199.706 282.229 202.039 282.229 202.039H282.599L359.379 198.561C361.583 198.25 363.764 197.788 365.906 197.179C377.037 194.155 398.149 184.983 394.341 159.368L515.081 166.832C519.632 167.041 524.153 167.679 528.583 168.739C534.784 170.331 540.455 173.24 538.858 178.492C535.597 189.218 544.451 190.617 544.451 190.617C544.451 190.617 544.639 192.048 544.871 194.536C545.976 206.269 548.148 241.542 537.012 261.933Z" fill="#00A3FF"/>
<path opacity="0.05" d="M167.785 210.669C167.785 210.669 117.435 211.134 84.3291 240.525H102.977C102.977 240.525 155.189 227.002 167.774 216.276L167.785 210.669Z" fill="black"/>
<path d="M167.315 210.2C167.315 210.2 116.965 210.664 83.8594 240.055H102.507C102.507 240.055 154.719 226.532 167.304 215.806L167.315 210.2Z" fill="#DDE0E4"/>
<path opacity="0.05" d="M77.813 199.999V212.533L35.3999 232.121L28.834 231.331C42.0992 216.733 59.0015 205.92 77.813 199.999Z" fill="black"/>
<path d="M77.3429 199.535V212.068L34.9243 231.651L28.3584 230.861C41.6258 216.264 58.53 205.454 77.3429 199.535Z" fill="#DDE0E4"/>
<path opacity="0.05" d="M137.481 256.371C137.481 256.371 114.638 270.358 112.306 301.154H125.36C125.36 301.154 130.489 267.577 145.406 256.371H137.481Z" fill="black"/>
<path opacity="0.05" d="M407.401 257.305L288.988 271.293C288.988 271.293 281.156 221.423 282.604 202.022L359.384 198.545C361.586 198.239 363.765 197.782 365.905 197.179V201.807L423.711 187.819C423.711 187.819 433.504 202.271 407.401 257.305Z" fill="black"/>
<path d="M394.347 145.844C394.347 145.844 419.522 142.582 430.708 164.034L394.706 162.646L394.347 145.844Z" fill="#00A3FF"/>
<path opacity="0.05" d="M428.962 171.553C427.972 174.655 428.718 178.066 434.45 180.427C439.219 182.395 444.813 180.117 446.443 175.224C447.394 172.371 446.741 169.143 441.601 166.516C436.461 163.89 430.691 166.135 428.962 171.553Z" fill="black"/>
<path opacity="0.05" d="M429.265 159.53C429.265 159.53 413.691 172.981 399.476 179.063C399.476 179.063 421.064 182.905 429.265 159.53Z" fill="black"/>
<path opacity="0.1" d="M264.267 201.121C264.267 201.121 338.172 208.104 366.138 201.575C366.138 201.575 367.63 202.564 358.726 198.573L264.267 201.121Z" fill="black"/>
<path opacity="0.05" d="M544.877 194.536C540.273 191.512 532.972 185.237 533.966 178.254C534.464 174.754 531.988 171.481 528.589 168.734C534.79 170.326 540.461 173.234 538.863 178.486C535.602 189.212 544.457 190.611 544.457 190.611C544.457 190.611 544.639 192.048 544.877 194.536Z" fill="black"/>
<path opacity="0.02" d="M158.356 226.852L152.138 246.596L151.989 246.983C151.154 247.171 133.534 251.223 129.732 252.467H129.351L139.194 226.399L139.476 225.647L142.676 225.852L158.356 226.852Z" fill="black"/>
<path d="M433.399 229.622C433.399 229.622 443.071 248.614 435.19 259.002C427.309 269.391 435.909 297.704 435.909 297.704" stroke="#6C63FF" stroke-miterlimit="10"/>
<path d="M436.263 223.712C436.263 227.372 433.577 230.347 433.577 230.347C433.577 230.347 430.891 227.378 430.891 223.712C430.891 220.046 433.577 217.077 433.577 217.077C433.577 217.077 436.263 220.052 436.263 223.712Z" fill="#00B0FF"/>
<path d="M438.412 229.622C438.412 229.622 428.74 248.614 436.621 259.002C444.503 269.391 435.903 297.704 435.903 297.704" stroke="#6C63FF" stroke-miterlimit="10"/>
<path d="M435.544 223.712C435.544 227.372 438.23 230.347 438.23 230.347C438.23 230.347 440.916 227.378 440.916 223.712C440.916 220.046 438.23 217.077 438.23 217.077C438.23 217.077 435.544 220.052 435.544 223.712Z" fill="#00B0FF"/>
<path opacity="0.1" d="M435.544 223.712C435.544 227.372 438.23 230.347 438.23 230.347C438.23 230.347 440.916 227.378 440.916 223.712C440.916 220.046 438.23 217.077 438.23 217.077C438.23 217.077 435.544 220.052 435.544 223.712Z" fill="black"/>
<path d="M442.353 229.622C442.353 229.622 452.025 248.614 444.144 259.002C436.263 269.391 444.863 297.704 444.863 297.704" stroke="#6C63FF" stroke-miterlimit="10"/>
<path d="M445.216 223.712C445.216 227.372 442.53 230.347 442.53 230.347C442.53 230.347 439.844 227.378 439.844 223.712C439.844 220.046 442.53 217.077 442.53 217.077C442.53 217.077 445.216 220.052 445.216 223.712Z" fill="#00B0FF"/>
<path d="M443.712 238.927C441.176 241.564 437.18 241.841 437.18 241.841C437.18 241.841 437.301 237.838 439.838 235.206C442.375 232.575 446.371 232.293 446.371 232.293C446.371 232.293 446.249 236.29 443.712 238.927Z" fill="#00B0FF"/>
<path d="M443.961 252.03C441.425 254.668 437.429 254.944 437.429 254.944C437.429 254.944 437.55 250.941 440.087 248.31C442.624 245.678 446.598 245.39 446.598 245.39C446.598 245.39 446.498 249.388 443.961 252.03Z" fill="#00B0FF"/>
<path d="M430.205 259.235C432.604 261.999 432.521 266.002 432.521 266.002C432.521 266.002 428.547 265.521 426.148 262.756C423.749 259.992 423.832 255.989 423.832 255.989C423.832 255.989 427.806 256.47 430.205 259.235Z" fill="#00B0FF"/>
<path d="M432.433 231.298C435.484 233.321 436.473 237.202 436.473 237.202C436.473 237.202 432.51 237.799 429.465 235.798C426.42 233.797 425.425 229.893 425.425 229.893C425.425 229.893 429.382 229.274 432.433 231.298Z" fill="#00B0FF"/>
<path opacity="0.1" d="M432.433 231.298C435.484 233.321 436.473 237.202 436.473 237.202C436.473 237.202 432.51 237.799 429.465 235.798C426.42 233.797 425.425 229.893 425.425 229.893C425.425 229.893 429.382 229.274 432.433 231.298Z" fill="black"/>
<path d="M447.366 229.622C447.366 229.622 437.694 248.614 445.575 259.002C453.457 269.391 444.857 297.704 444.857 297.704" stroke="#6C63FF" stroke-miterlimit="10"/>
<path d="M444.503 223.712C444.503 227.372 447.189 230.347 447.189 230.347C447.189 230.347 449.875 227.378 449.875 223.712C449.875 220.046 447.189 217.077 447.189 217.077C447.189 217.077 444.503 220.052 444.503 223.712Z" fill="#00B0FF"/>
<path opacity="0.1" d="M444.503 223.712C444.503 227.372 447.189 230.347 447.189 230.347C447.189 230.347 449.875 227.378 449.875 223.712C449.875 220.046 447.189 217.077 447.189 217.077C447.189 217.077 444.503 220.052 444.503 223.712Z" fill="black"/>
<path d="M445.277 239.209C442.707 241.819 442.514 245.844 442.514 245.844C442.514 245.844 446.51 245.617 449.08 243.007C451.65 240.398 451.843 236.373 451.843 236.373C451.843 236.373 447.842 236.6 445.277 239.209Z" fill="#00B0FF"/>
<path opacity="0.1" d="M445.277 239.209C442.707 241.819 442.514 245.844 442.514 245.844C442.514 245.844 446.51 245.617 449.08 243.007C451.65 240.398 451.843 236.373 451.843 236.373C451.843 236.373 447.842 236.6 445.277 239.209Z" fill="black"/>
<path d="M450.312 257.36C447.742 259.97 447.549 263.995 447.549 263.995C447.549 263.995 451.545 263.768 454.115 261.159C456.685 258.549 456.878 254.524 456.878 254.524C456.878 254.524 452.882 254.74 450.312 257.36Z" fill="#00B0FF"/>
<path d="M442.9 253.363C442.9 253.363 448.72 244.185 456.894 243.964" stroke="#6C63FF" stroke-miterlimit="10"/>
<path d="M438.368 247.818C438.368 247.818 432.548 238.64 424.374 238.419" stroke="#6C63FF" stroke-miterlimit="10"/>
<path d="M437.611 260.921C437.611 260.921 443.431 251.743 451.605 251.522" stroke="#6C63FF" stroke-miterlimit="10"/>
<path d="M456.623 245.424C457.456 245.424 458.132 244.748 458.132 243.914C458.132 243.081 457.456 242.405 456.623 242.405C455.79 242.405 455.114 243.081 455.114 243.914C455.114 244.748 455.79 245.424 456.623 245.424Z" fill="#00B0FF"/>
<path d="M424.513 240.005C425.346 240.005 426.022 239.33 426.022 238.496C426.022 237.662 425.346 236.987 424.513 236.987C423.679 236.987 423.004 237.662 423.004 238.496C423.004 239.33 423.679 240.005 424.513 240.005Z" fill="#00B0FF"/>
<path d="M441.894 263.945C441.894 263.945 436.075 254.767 427.9 254.546" stroke="#6C63FF" stroke-miterlimit="10"/>
<path d="M428.038 256.133C428.871 256.133 429.547 255.457 429.547 254.624C429.547 253.79 428.871 253.114 428.038 253.114C427.205 253.114 426.529 253.79 426.529 254.624C426.529 255.457 427.205 256.133 428.038 256.133Z" fill="#00B0FF"/>
<path d="M451.716 253.109C452.549 253.109 453.225 252.433 453.225 251.599C453.225 250.766 452.549 250.09 451.716 250.09C450.883 250.09 450.207 250.766 450.207 251.599C450.207 252.433 450.883 253.109 451.716 253.109Z" fill="#00B0FF"/>
<path d="M474.072 286.663C474.072 286.663 460.045 283.854 456.303 280.111C452.561 276.368 435.727 269.839 433.858 274.5C431.99 279.16 408.606 295.1 424.49 297.903C440.375 300.706 461.902 301.646 466.577 299.772C471.253 297.897 474.072 286.663 474.072 286.663Z" fill="#A8A8A8"/>
<path opacity="0.2" d="M424.49 296.167C440.391 298.976 461.902 299.91 466.578 298.036C470.137 296.609 472.613 289.742 473.591 286.58L474.061 286.68C474.061 286.68 471.253 297.908 466.578 299.777C461.902 301.646 440.391 300.712 424.49 297.909C419.903 297.096 418.588 295.194 419.085 292.789C419.489 294.353 421.086 295.564 424.49 296.167Z" fill="black"/>
<path d="M62.6303 333.47C62.6303 333.47 67.2618 339.551 60.4914 348.674C53.721 357.796 48.1388 365.542 50.3993 371.254C50.3993 371.254 60.613 354.264 68.9254 354.026C77.2378 353.788 71.7717 343.687 62.6303 333.47Z" fill="#00B0FF"/>
<path opacity="0.1" d="M62.63 333.47C63.0336 334.056 63.3518 334.696 63.5751 335.372C71.6886 344.903 76.005 353.799 68.2122 354.026C60.9499 354.236 52.2395 367.223 50.1504 370.507C50.2193 370.76 50.3024 371.01 50.3991 371.254C50.3991 371.254 60.6127 354.264 68.9251 354.026C77.2375 353.788 71.7715 343.687 62.63 333.47Z" fill="black"/>
<path d="M71.2411 341.188C71.2411 343.322 71.0035 345.058 70.6884 345.058C70.3734 345.058 70.1357 343.328 70.1357 341.188C70.1357 339.048 70.4342 340.082 70.7271 340.082C71.02 340.082 71.2411 339.059 71.2411 341.188Z" fill="#FFD037"/>
<path d="M74.1926 343.737C72.319 344.76 70.6886 345.395 70.5504 345.113C70.4123 344.831 71.8106 343.814 73.6842 342.797C75.5578 341.78 74.8172 342.52 74.9609 342.797C75.1046 343.073 76.0662 342.714 74.1926 343.737Z" fill="#FFD037"/>
<path d="M38.1629 333.47C38.1629 333.47 33.5314 339.551 40.3018 348.674C47.0722 357.796 52.6543 365.542 50.3938 371.248C50.3938 371.248 40.1802 354.258 31.8678 354.02C23.5554 353.783 29.0215 343.687 38.1629 333.47Z" fill="#00B0FF"/>
<path opacity="0.1" d="M38.1629 333.47C37.7593 334.056 37.4411 334.696 37.2178 335.372C29.1044 344.903 24.7879 353.799 32.5808 354.026C39.843 354.236 48.5534 367.223 50.6425 370.507C50.5736 370.76 50.4906 371.01 50.3938 371.254C50.3938 371.254 40.1802 354.264 31.8678 354.026C23.5554 353.788 29.0215 343.687 38.1629 333.47Z" fill="black"/>
<path d="M29.5518 341.188C29.5518 343.322 29.7894 345.058 30.1044 345.058C30.4195 345.058 30.6571 343.328 30.6571 341.188C30.6571 339.048 30.3587 340.082 30.0658 340.082C29.7728 340.082 29.5518 339.059 29.5518 341.188Z" fill="#FFD037"/>
<path d="M26.6003 343.737C28.4739 344.76 30.1043 345.395 30.2425 345.113C30.3807 344.831 28.9824 343.814 27.1088 342.797C25.2352 341.78 25.9758 342.52 25.8321 342.797C25.6884 343.073 24.7267 342.714 26.6003 343.737Z" fill="#FFD037"/>
<path d="M31.0273 370.452C31.0273 370.452 43.9768 370.054 47.8787 367.273C51.7807 364.492 67.7754 361.191 68.7647 365.614C69.754 370.037 88.2248 387.79 73.6063 387.906C58.9877 388.022 39.6382 385.629 35.7418 383.257C31.8453 380.885 31.0273 370.452 31.0273 370.452Z" fill="#A8A8A8"/>
<path opacity="0.2" d="M73.8719 386.375C59.2533 386.491 39.9038 384.097 36.0074 381.725C33.0395 379.917 31.8567 373.432 31.4643 370.441H31.0332C31.0332 370.441 31.8512 380.89 35.7476 383.262C39.644 385.634 58.9936 388.034 73.6121 387.912C77.8346 387.879 79.2882 386.375 79.2108 384.152C78.6194 385.512 77.0111 386.347 73.8719 386.375Z" fill="black"/>
</g>
<defs>
<linearGradient id="paint0_linear_406_2" x1="280.04" y1="330.042" x2="280.04" y2="134.002" gradientUnits="userSpaceOnUse">
<stop stop-color="#808080" stop-opacity="0.25"/>
<stop offset="0.54" stop-color="#808080" stop-opacity="0.12"/>
<stop offset="1" stop-color="#808080" stop-opacity="0.1"/>
</linearGradient>
<linearGradient id="paint1_linear_406_2" x1="322.215" y1="280.331" x2="360.086" y2="139.734" gradientUnits="userSpaceOnUse">
<stop stop-color="#808080" stop-opacity="0.25"/>
<stop offset="0.54" stop-color="#808080" stop-opacity="0.12"/>
<stop offset="1" stop-color="#808080" stop-opacity="0.1"/>
</linearGradient>
<clipPath id="clip0_406_2">
<rect width="566" height="434" fill="white"/>
</clipPath>
</defs>
</svg>
