<svg width="319" height="291" viewBox="0 0 319 291" fill="none" xmlns="http://www.w3.org/2000/svg">
<g clip-path="url(#clip0_203_2)">
<path d="M274.915 26.7576L7.62109 104.648L14.7009 128.951L281.995 51.0608L274.915 26.7576Z" fill="#3F3D56"/>
<path d="M39.5562 216.281L0.159119 81.0423C-0.132959 80.0396 -0.0148218 78.962 0.487525 78.0464C0.989872 77.1309 1.83528 76.4524 2.83779 76.1603L263.652 0.158309C264.655 -0.132832 265.732 -0.0142762 266.647 0.487966C267.562 0.990208 268.24 1.8351 268.533 2.83717L303.436 122.649L302.356 122.964L267.453 3.15195C267.244 2.43647 266.759 1.83332 266.105 1.47463C265.452 1.11595 264.683 1.03096 263.967 1.23831L3.15244 77.2403C2.43637 77.4489 1.8325 77.9336 1.47368 78.5876C1.11487 79.2415 1.03048 80.0113 1.2391 80.7275L40.6361 215.966L39.5562 216.281Z" fill="#3F3D56"/>
<path d="M245.71 123.205C244.918 123.205 244.149 122.948 243.516 122.473C242.883 121.998 242.42 121.331 242.198 120.571L235.59 97.8882C235.32 96.9572 235.43 95.9571 235.897 95.1073C236.363 94.2574 237.147 93.6273 238.077 93.355L260.757 86.7462C261.688 86.4761 262.688 86.5864 263.538 87.0528C264.387 87.5192 265.017 88.3037 265.29 89.2342L271.897 111.917C272.167 112.848 272.057 113.848 271.591 114.698C271.125 115.548 270.34 116.178 269.41 116.45L246.731 123.059C246.399 123.156 246.055 123.205 245.71 123.205Z" fill="#00B0FF"/>
<path d="M38.9472 81.4604C38.8792 81.2273 38.7985 80.9982 38.7052 80.7741C38.0711 79.2348 36.8906 77.9842 35.3905 77.2625C33.8904 76.5409 32.1766 76.3991 30.5783 76.8645C28.9801 77.3299 27.6102 78.3696 26.7319 79.7838C25.8535 81.198 25.5287 82.887 25.8199 84.5262C25.8608 84.7653 25.9152 85.002 25.983 85.235C26.3937 86.6371 27.2475 87.8684 28.4165 88.7446C29.5856 89.6208 31.007 90.0946 32.4678 90.0952C33.1056 90.0966 33.7403 90.0056 34.352 89.8252C36.0691 89.3234 37.5172 88.161 38.3786 86.5929C39.24 85.0248 39.4445 83.179 38.9472 81.4604ZM34.0371 88.7451C32.6051 89.1608 31.0667 88.9915 29.7593 88.2744C28.4519 87.5574 27.4822 86.351 27.0628 84.9199C26.997 84.6868 26.9444 84.4502 26.9052 84.2112C26.6942 82.8606 26.9824 81.4794 27.7157 80.3259C28.449 79.1724 29.5773 78.3255 30.8896 77.9436C32.2019 77.5617 33.6084 77.671 34.846 78.2509C36.0836 78.8309 37.0676 79.8418 37.6141 81.0948C37.7159 81.3148 37.8006 81.5423 37.8673 81.7754C38.2823 83.2076 38.1121 84.7461 37.394 86.0529C36.6758 87.3596 35.4685 88.3279 34.0371 88.7451Z" fill="#00B0FF"/>
<path d="M22.3935 86.2813C22.0336 85.045 22.0681 83.7272 22.4924 82.5114C22.9167 81.2957 23.7095 80.2426 24.7605 79.4988C23.7758 79.4508 22.794 79.6389 21.8968 80.0472C20.9995 80.4556 20.2128 81.0725 19.6022 81.8465C18.9916 82.6205 18.5748 83.5293 18.3864 84.497C18.1981 85.4648 18.2437 86.4636 18.5195 87.4102C18.7952 88.3567 19.2931 89.2237 19.9717 89.9389C20.6503 90.654 21.49 91.1966 22.4207 91.5215C23.3514 91.8464 24.3463 91.9441 25.3224 91.8066C26.2986 91.669 27.2277 91.3002 28.0325 90.7308C26.7466 90.6679 25.5122 90.2056 24.5015 89.408C23.4907 88.6105 22.7538 87.5174 22.3935 86.2813Z" fill="#00B0FF"/>
<path d="M197.235 114.16C197.115 113.73 196.912 113.327 196.636 112.975C196.361 112.623 196.019 112.329 195.629 112.11C195.24 111.89 194.812 111.75 194.368 111.696C193.925 111.643 193.475 111.677 193.045 111.797L155.704 122.244L151.683 123.369H176.936L180.958 122.244L194.878 118.351C195.746 118.107 196.481 117.529 196.923 116.743C197.365 115.957 197.477 115.028 197.235 114.16Z" fill="#CCCCCC"/>
<path d="M170.817 106.358C170.573 105.49 169.995 104.754 169.209 104.312C168.424 103.87 167.494 103.758 166.626 104.001L110.596 119.673C109.813 119.895 109.135 120.389 108.685 121.067C108.234 121.744 108.04 122.561 108.138 123.369H122.644L126.67 122.244L168.46 110.554C169.328 110.31 170.064 109.73 170.506 108.944C170.948 108.157 171.06 107.227 170.817 106.358Z" fill="#CCCCCC"/>
<path d="M315.063 122.242H43.4039C42.3601 122.243 41.3593 122.659 40.6212 123.397C39.8831 124.135 39.468 125.136 39.4668 126.18V287.062C39.4679 288.106 39.8831 289.107 40.6212 289.845C41.3593 290.584 42.36 290.999 43.4039 291H315.063C316.107 290.999 317.108 290.584 317.846 289.845C318.584 289.107 318.999 288.106 319 287.062V126.18C318.999 125.136 318.584 124.135 317.846 123.397C317.108 122.659 316.107 122.243 315.063 122.242ZM317.875 287.062C317.875 287.808 317.579 288.523 317.052 289.051C316.524 289.578 315.809 289.875 315.063 289.875H43.4039C42.6581 289.875 41.943 289.578 41.4157 289.051C40.8883 288.523 40.5919 287.808 40.5917 287.062V126.18C40.592 125.434 40.8884 124.719 41.4157 124.191C41.943 123.664 42.6581 123.368 43.4039 123.367H315.063C315.809 123.368 316.524 123.664 317.051 124.191C317.579 124.719 317.875 125.434 317.875 126.18V287.062Z" fill="#3F3D56"/>
<path d="M69.8362 144.182C68.5013 144.182 67.1964 143.786 66.0865 143.044C64.9766 142.303 64.1115 141.248 63.6007 140.015C63.0898 138.781 62.9562 137.424 63.2166 136.115C63.477 134.805 64.1198 133.603 65.0637 132.659C66.0077 131.714 67.2103 131.072 68.5195 130.811C69.8287 130.551 71.1858 130.684 72.4191 131.195C73.6523 131.706 74.7064 132.571 75.4481 133.681C76.1897 134.792 76.5855 136.097 76.5855 137.432C76.5835 139.221 75.8717 140.937 74.6064 142.203C73.3411 143.468 71.6256 144.18 69.8362 144.182ZM69.8362 131.806C68.7238 131.806 67.6364 132.136 66.7115 132.754C65.7865 133.373 65.0656 134.251 64.6399 135.279C64.2142 136.307 64.1029 137.438 64.3199 138.529C64.5369 139.62 65.0726 140.623 65.8592 141.409C66.6457 142.196 67.6479 142.732 68.7389 142.949C69.83 143.166 70.9609 143.055 71.9886 142.629C73.0163 142.203 73.8947 141.482 74.5127 140.557C75.1308 139.632 75.4606 138.544 75.4606 137.432C75.4589 135.94 74.8658 134.51 73.8114 133.456C72.757 132.401 71.3274 131.808 69.8362 131.806Z" fill="#00B0FF"/>
<path d="M59.3457 137.432C59.3459 136.144 59.7477 134.889 60.495 133.84C61.2424 132.792 62.2981 132.002 63.5151 131.582C62.5832 131.261 61.588 131.167 60.6124 131.308C59.6367 131.449 58.7089 131.821 57.9062 132.393C57.1035 132.965 56.4491 133.721 55.9976 134.598C55.5461 135.474 55.3105 136.446 55.3105 137.432C55.3105 138.418 55.5461 139.389 55.9976 140.266C56.4491 141.142 57.1035 141.898 57.9062 142.47C58.7089 143.043 59.6367 143.415 60.6124 143.556C61.588 143.697 62.5832 143.603 63.5151 143.281C62.2981 142.861 61.2424 142.072 60.495 141.023C59.7477 139.975 59.3459 138.719 59.3457 137.432Z" fill="#00B0FF"/>
<path d="M97.1958 217.186C95.8537 217.184 94.5671 216.65 93.6181 215.701C92.6691 214.752 92.1353 213.465 92.1338 212.123V196.935C92.1338 195.592 92.6671 194.304 93.6164 193.355C94.5657 192.405 95.8532 191.872 97.1958 191.872C98.5383 191.872 99.8258 192.405 100.775 193.355C101.724 194.304 102.258 195.592 102.258 196.935V212.123C102.256 213.465 101.722 214.752 100.773 215.701C99.8244 216.65 98.5378 217.184 97.1958 217.186Z" fill="#00B0FF"/>
<path d="M110.694 217.186C109.352 217.184 108.065 216.65 107.116 215.701C106.167 214.752 105.633 213.465 105.632 212.123V196.935C105.632 195.592 106.165 194.304 107.114 193.355C108.064 192.405 109.351 191.872 110.694 191.872C112.036 191.872 113.324 192.405 114.273 193.355C115.222 194.304 115.756 195.592 115.756 196.935V212.123C115.754 213.465 115.22 214.752 114.271 215.701C113.322 216.65 112.036 217.184 110.694 217.186Z" fill="#00B0FF"/>
<path d="M124.193 217.186C122.851 217.184 121.564 216.65 120.615 215.701C119.666 214.752 119.132 213.465 119.131 212.123V196.935C119.131 195.592 119.664 194.304 120.613 193.355C121.563 192.405 122.85 191.872 124.193 191.872C125.535 191.872 126.823 192.405 127.772 193.355C128.721 194.304 129.255 195.592 129.255 196.935V212.123C129.253 213.465 128.719 214.752 127.77 215.701C126.822 216.65 125.535 217.184 124.193 217.186Z" fill="#00B0FF"/>
<path d="M145.003 217.186C143.661 217.184 142.375 216.65 141.426 215.701C140.477 214.752 139.943 213.465 139.941 212.123V196.935C139.941 195.592 140.475 194.304 141.424 193.355C142.373 192.405 143.661 191.872 145.003 191.872C146.346 191.872 147.633 192.405 148.583 193.355C149.532 194.304 150.065 195.592 150.065 196.935V212.123C150.064 213.465 149.53 214.752 148.581 215.701C147.632 216.65 146.345 217.184 145.003 217.186Z" fill="#00B0FF"/>
<path d="M158.501 217.186C157.159 217.184 155.873 216.65 154.924 215.701C153.975 214.752 153.441 213.465 153.439 212.123V196.935C153.439 195.592 153.973 194.304 154.922 193.355C155.871 192.405 157.159 191.872 158.501 191.872C159.844 191.872 161.131 192.405 162.081 193.355C163.03 194.304 163.563 195.592 163.563 196.935V212.123C163.562 213.465 163.028 214.752 162.079 215.701C161.13 216.65 159.843 217.184 158.501 217.186Z" fill="#00B0FF"/>
<path d="M172 217.186C170.658 217.184 169.372 216.65 168.423 215.701C167.474 214.752 166.94 213.465 166.938 212.123V196.935C166.938 195.592 167.472 194.304 168.421 193.355C169.37 192.405 170.658 191.872 172 191.872C173.343 191.872 174.63 192.405 175.58 193.355C176.529 194.304 177.062 195.592 177.062 196.935V212.123C177.061 213.465 176.527 214.752 175.578 215.701C174.629 216.65 173.342 217.184 172 217.186Z" fill="#00B0FF"/>
<path d="M192.81 217.186C191.468 217.184 190.181 216.65 189.232 215.701C188.283 214.752 187.75 213.465 187.748 212.123V196.935C187.748 195.592 188.281 194.304 189.231 193.355C190.18 192.405 191.467 191.872 192.81 191.872C194.153 191.872 195.44 192.405 196.389 193.355C197.339 194.304 197.872 195.592 197.872 196.935V212.123C197.87 213.465 197.337 214.752 196.388 215.701C195.439 216.65 194.152 217.184 192.81 217.186Z" fill="#00B0FF"/>
<path d="M206.309 217.186C204.967 217.184 203.68 216.65 202.731 215.701C201.782 214.752 201.249 213.465 201.247 212.123V196.935C201.247 195.592 201.78 194.304 202.73 193.355C203.679 192.405 204.967 191.872 206.309 191.872C207.652 191.872 208.939 192.405 209.888 193.355C210.838 194.304 211.371 195.592 211.371 196.935V212.123C211.369 213.465 210.836 214.752 209.887 215.701C208.938 216.65 207.651 217.184 206.309 217.186Z" fill="#00B0FF"/>
<path d="M219.808 217.186C218.466 217.184 217.179 216.65 216.23 215.701C215.281 214.752 214.748 213.465 214.746 212.123V196.935C214.746 195.592 215.279 194.304 216.229 193.355C217.178 192.405 218.466 191.872 219.808 191.872C221.151 191.872 222.438 192.405 223.387 193.355C224.337 194.304 224.87 195.592 224.87 196.935V212.123C224.868 213.465 224.335 214.752 223.386 215.701C222.437 216.65 221.15 217.184 219.808 217.186Z" fill="#00B0FF"/>
<path d="M240.618 217.186C239.276 217.184 237.989 216.65 237.04 215.701C236.091 214.752 235.557 213.465 235.556 212.123V196.935C235.556 195.592 236.089 194.304 237.038 193.355C237.988 192.405 239.275 191.872 240.618 191.872C241.96 191.872 243.248 192.405 244.197 193.355C245.146 194.304 245.68 195.592 245.68 196.935V212.123C245.678 213.465 245.144 214.752 244.195 215.701C243.246 216.65 241.96 217.184 240.618 217.186Z" fill="#00B0FF"/>
<path d="M254.117 217.186C252.775 217.184 251.488 216.65 250.539 215.701C249.59 214.752 249.056 213.465 249.055 212.123V196.935C249.055 195.592 249.588 194.304 250.537 193.355C251.487 192.405 252.774 191.872 254.117 191.872C255.459 191.872 256.747 192.405 257.696 193.355C258.645 194.304 259.179 195.592 259.179 196.935V212.123C259.177 213.465 258.643 214.752 257.694 215.701C256.745 216.65 255.459 217.184 254.117 217.186Z" fill="#00B0FF"/>
<path d="M267.615 217.186C266.273 217.184 264.986 216.65 264.037 215.701C263.088 214.752 262.554 213.465 262.553 212.123V196.935C262.553 195.592 263.086 194.304 264.035 193.355C264.985 192.405 266.272 191.872 267.615 191.872C268.957 191.872 270.245 192.405 271.194 193.355C272.143 194.304 272.677 195.592 272.677 196.935V212.123C272.675 213.465 272.141 214.752 271.192 215.701C270.243 216.65 268.957 217.184 267.615 217.186Z" fill="#00B0FF"/>
<path d="M131.514 273.532H58.7118C57.8098 273.532 56.9446 273.174 56.3068 272.536C55.6689 271.898 55.3105 271.032 55.3105 270.13C55.3105 269.228 55.6689 268.363 56.3068 267.725C56.9446 267.087 57.8098 266.728 58.7118 266.728H131.514C132.416 266.728 133.282 267.087 133.919 267.725C134.557 268.363 134.916 269.228 134.916 270.13C134.916 271.032 134.557 271.898 133.919 272.536C133.282 273.174 132.416 273.532 131.514 273.532Z" fill="#E6E6E6"/>
<path d="M108.174 258.906H82.0536C81.1516 258.906 80.2864 258.548 79.6486 257.91C79.0107 257.272 78.6523 256.407 78.6523 255.505C78.6523 254.602 79.0107 253.737 79.6486 253.099C80.2864 252.461 81.1516 252.103 82.0536 252.103H108.174C109.076 252.103 109.941 252.461 110.579 253.099C111.217 253.737 111.575 254.602 111.575 255.505C111.575 256.407 111.217 257.272 110.579 257.91C109.941 258.548 109.076 258.906 108.174 258.906Z" fill="#E6E6E6"/>
<path d="M317.672 155.87H40.3887V156.995H317.672V155.87Z" fill="#3F3D56"/>
</g>
<defs>
<clipPath id="clip0_203_2">
<rect width="319" height="291" fill="white"/>
</clipPath>
</defs>
</svg>
