<svg width="472" height="472" viewBox="0 0 472 472" fill="none" xmlns="http://www.w3.org/2000/svg">
<path d="M236 472C366.339 472 472 366.339 472 236C472 105.661 366.339 0 236 0C105.661 0 0 105.661 0 236C0 366.339 105.661 472 236 472Z" fill="#00B0FF"/>
<path d="M212.613 326.027C207.304 326.036 202.136 324.318 197.888 321.133L197.624 320.936L142.161 278.508C139.592 276.539 137.437 274.083 135.817 271.28C134.198 268.478 133.146 265.384 132.722 262.175C132.298 258.966 132.51 255.705 133.347 252.579C134.183 249.452 135.627 246.52 137.597 243.952C139.566 241.383 142.022 239.227 144.824 237.608C147.627 235.988 150.721 234.936 153.93 234.512C157.138 234.089 160.399 234.301 163.526 235.137C166.653 235.974 169.584 237.418 172.153 239.387L208.078 266.936L292.969 156.185C294.938 153.618 297.393 151.463 300.194 149.844C302.995 148.225 306.088 147.174 309.296 146.75C312.503 146.326 315.763 146.538 318.888 147.375C322.014 148.211 324.944 149.654 327.512 151.623L327.519 151.628L326.992 152.36L327.533 151.628C332.713 155.609 336.102 161.483 336.957 167.96C337.811 174.437 336.061 180.989 332.09 186.177L232.239 316.386C229.929 319.386 226.959 321.814 223.559 323.481C220.159 325.148 216.421 326.009 212.635 325.998L212.613 326.027Z" fill="white"/>
</svg>
