<svg width="429" height="429" viewBox="0 0 429 429" fill="none" xmlns="http://www.w3.org/2000/svg">
<path d="M214.5 429C96.2245 429 0 332.775 0 214.5C0 96.2245 96.2245 0 214.5 0C332.775 0 429 96.2245 429 214.5C429 332.775 332.776 429 214.5 429ZM214.5 4.2399C98.5625 4.2399 4.2399 98.5625 4.2399 214.5C4.2399 330.438 98.5624 424.76 214.5 424.76C330.438 424.76 424.76 330.438 424.76 214.5C424.76 98.5625 330.437 4.2399 214.5 4.2399Z" fill="#00B0FF"/>
<path d="M185.526 325.034C181.859 325.034 178.242 324.18 174.962 322.54C171.681 320.899 168.829 318.517 166.629 315.583L108.688 238.327C106.827 235.845 105.473 233.021 104.703 230.016C103.933 227.011 103.763 223.883 104.201 220.812C104.64 217.741 105.68 214.786 107.26 212.117C108.841 209.447 110.932 207.115 113.414 205.254C115.896 203.393 118.72 202.039 121.725 201.269C124.731 200.499 127.858 200.328 130.929 200.767C134.001 201.206 136.955 202.246 139.625 203.826C142.294 205.407 144.626 207.498 146.487 209.98L184.394 260.518L281.752 114.483C285.23 109.273 290.633 105.658 296.775 104.432C302.917 103.206 309.295 104.468 314.506 107.942C319.717 111.417 323.336 116.818 324.566 122.959C325.796 129.1 324.537 135.479 321.066 140.692L205.185 314.514C203.089 317.657 200.27 320.252 196.963 322.082C193.657 323.911 189.961 324.921 186.184 325.027C185.965 325.03 185.745 325.034 185.526 325.034Z" fill="#00B0FF"/>
</svg>
