<svg width="506" height="466" viewBox="0 0 506 466" fill="none" xmlns="http://www.w3.org/2000/svg">
<path d="M50.7673 33.2437C59.9197 33.2437 67.3392 25.8019 67.3392 16.6219C67.3392 7.44186 59.9197 0 50.7673 0C41.6148 0 34.1953 7.44186 34.1953 16.6219C34.1953 25.8019 41.6148 33.2437 50.7673 33.2437Z" fill="#FD6584"/>
<path d="M87.859 8.75206C87.3904 7.2146 86.484 5.84804 85.2513 4.82047C84.0186 3.79289 82.5133 3.14912 80.9206 2.96834C80.8846 2.96324 80.8505 2.96997 80.8146 2.96765C80.7683 2.95345 80.721 2.94253 80.6732 2.93498C73.0945 1.95256 64.3463 5.58811 61.1878 12.7946C60.4172 11.7406 59.4023 10.8906 58.2308 10.318C57.0594 9.74548 55.7666 9.46755 54.4641 9.50825C52.7846 9.62051 51.1804 10.2492 49.8699 11.3087C48.5594 12.3682 47.6062 13.807 47.1402 15.4293C47.0906 15.6279 47.1053 15.8371 47.1822 16.0267C47.2592 16.2163 47.3943 16.3764 47.568 16.4838C48.0686 16.9093 48.6616 17.2112 49.2995 17.3654C50.6758 17.6578 52.057 17.9257 53.4431 18.1691C56.1479 18.6439 58.8668 19.0277 61.5997 19.3206C67.1475 19.9169 72.7297 20.1285 78.3065 19.954C80.1639 19.8959 81.9551 19.8341 83.6569 19.0119C84.895 18.3986 85.9527 17.4727 86.7262 16.3254C87.455 15.2226 87.9341 13.9731 88.1298 12.6647C88.3255 11.3563 88.2331 10.0208 87.859 8.75206Z" fill="#F0F0F0"/>
<path d="M53.4155 30.9145C52.9469 29.3771 52.0405 28.0105 50.8078 26.983C49.5751 25.9554 48.0698 25.3116 46.4771 25.1308C46.4411 25.1257 46.4069 25.1325 46.371 25.1301C46.3247 25.1159 46.2775 25.105 46.2297 25.0975C38.651 24.115 29.9028 27.7506 26.7442 34.9571C25.9736 33.9031 24.9587 33.0531 23.7873 32.4805C22.6158 31.9079 21.323 31.63 20.0205 31.6708C18.341 31.783 16.7368 32.4117 15.4263 33.4712C14.1158 34.5307 13.1626 35.9695 12.6966 37.5918C12.647 37.7904 12.6618 37.9996 12.7387 38.1892C12.8157 38.3788 12.9508 38.5389 13.1245 38.6463C13.6251 39.0718 14.218 39.3737 14.8559 39.5279C16.2322 39.8203 17.6134 40.0882 18.9995 40.3316C21.7043 40.8063 24.4232 41.1901 27.1562 41.4831C32.704 42.0794 38.2862 42.291 43.863 42.1165C45.7203 42.0584 47.5115 41.9966 49.2134 41.1744C50.4514 40.561 51.5092 39.6352 52.2827 38.4878C53.0114 37.3851 53.4905 36.1355 53.6862 34.8272C53.8819 33.5188 53.7895 32.1833 53.4155 30.9145Z" fill="#F0F0F0"/>
<path d="M212.838 288.905C212.419 289.522 211.316 290.256 210.886 290.863L211.345 289.468L211.188 289.145L210.212 287.187L185.36 236.95L185.35 236.94L143.22 151.819V151.809L142.253 149.86V149.851L121.403 107.721L120.417 105.723C121.159 105.743 121.901 105.772 122.642 105.811L123.638 107.819L144.43 149.851L144.44 149.86L145.406 151.809V151.819L186.463 234.776V234.786L187.429 236.735V236.744L212.282 286.942L212.613 287.618L212.838 288.905Z" fill="#3F3D56"/>
<path d="M210.066 151.819H24.0717C24.5698 151.163 25.0769 150.507 25.6041 149.86H208.534C209.061 150.507 209.568 151.163 210.066 151.819Z" fill="#3F3D56"/>
<path d="M233.63 234.786C233.571 235.442 233.503 236.098 233.415 236.744H185.77V234.786H233.63Z" fill="#3F3D56"/>
<path d="M31.1488 143.408V300.962C30.4752 300.248 29.8309 299.523 29.1965 298.799V145.572C29.8309 144.848 30.4752 144.123 31.1488 143.408Z" fill="#3F3D56"/>
<path d="M211.796 287.186H30.1729V289.144H211.796V287.186Z" fill="#3F3D56"/>
<path d="M211.638 288.905H211.862V288.582C211.794 288.694 211.719 288.802 211.638 288.905ZM210.134 151.578C209.636 150.922 209.129 150.266 208.602 149.62C198.234 136.572 185.208 125.893 170.397 118.297C155.585 110.701 139.328 106.362 122.711 105.571C121.969 105.532 121.228 105.503 120.486 105.483C119.373 105.454 118.26 105.434 117.137 105.434C100.993 105.426 85.0229 108.774 70.2344 115.269C55.4459 121.764 42.1606 131.263 31.2173 143.168C30.5438 143.883 29.8994 144.607 29.265 145.332C28.0253 146.732 26.8278 148.161 25.6726 149.62C25.1455 150.266 24.6383 150.922 24.1403 151.578C7.64388 173.149 -0.865066 199.8 0.0697998 226.969C1.00467 254.139 11.3252 280.138 29.265 300.517C29.8994 301.241 30.5438 301.966 31.2173 302.68C43.014 315.494 57.5104 325.509 73.6517 331.996C89.793 338.484 107.173 341.28 124.527 340.182C141.882 339.083 158.774 334.118 173.974 325.648C189.175 317.178 202.301 305.415 212.399 291.215C212.829 290.608 213.258 290.001 213.678 289.385C224.503 273.653 231.305 255.493 233.484 236.504C233.572 235.858 233.64 235.202 233.699 234.546C234.079 230.728 234.271 226.854 234.274 222.924C234.304 197.121 225.816 172.034 210.134 151.578ZM231.522 236.504C229.397 254.731 222.936 272.179 212.682 287.377C212.418 287.779 212.145 288.18 211.862 288.582C211.794 288.694 211.719 288.802 211.638 288.905C211.57 289.012 211.491 289.12 211.413 289.228C201.456 303.498 188.406 315.323 173.244 323.814C158.081 332.306 141.199 337.245 123.863 338.26C106.526 339.275 89.1855 336.341 73.1407 329.678C57.0958 323.014 42.7632 312.793 31.2172 299.782C30.5437 299.038 29.8898 298.294 29.2649 297.53C12.1002 277.246 2.45746 251.632 1.97177 225.031C1.48607 198.43 10.1873 172.479 26.6001 151.578C27.1177 150.922 27.6349 150.266 28.1715 149.62C28.5233 149.18 28.8841 148.749 29.2649 148.318C29.8898 147.554 30.5437 146.81 31.2172 146.066C42.0008 133.896 55.2338 124.157 70.0438 117.491C84.8538 110.824 100.904 107.383 117.137 107.392C118.592 107.392 120.037 107.422 121.471 107.48C122.223 107.5 122.965 107.539 123.707 107.578C139.593 108.489 155.118 112.696 169.3 119.932C183.483 127.169 196.015 137.278 206.103 149.62C206.64 150.266 207.157 150.922 207.674 151.578C226.094 175.071 234.722 204.808 231.746 234.546C231.678 235.202 231.61 235.858 231.522 236.504ZM211.638 288.905H211.862V288.582C211.794 288.694 211.719 288.802 211.638 288.905Z" fill="#CCCCCC"/>
<path d="M102.374 68.1781C102.374 68.7165 102.357 69.2504 102.322 69.7798C102.127 72.8332 101.358 75.8219 100.056 78.5886C100.046 78.6122 100.034 78.6341 100.024 78.6561C99.963 78.7844 99.9007 78.9126 99.8368 79.0393C99.4495 79.8218 99.0197 80.5824 98.5496 81.3179C96.4019 84.6939 93.4582 87.4874 89.9786 89.4514C86.499 91.4154 82.5906 92.4896 78.5989 92.5789L78.8396 106.46L81.9779 104.802L82.5383 105.87L78.8632 107.811L79.3125 133.591L79.3175 133.936L76.891 134.477L76.896 134.131L77.6599 92.5806C74.447 92.5344 71.2752 91.8484 68.3287 90.5625C65.3822 89.2766 62.7198 87.4165 60.4959 85.0901C60.3428 84.9314 60.1914 84.7677 60.0432 84.6057L60.0264 84.587C58.1735 82.5604 56.675 80.2345 55.5941 77.7075C55.6176 77.7345 55.6429 77.7598 55.6664 77.7868C45.6392 52.5124 51.473 40.7957 67.2067 46.3293C67.2908 46.2871 67.3766 46.2466 67.4608 46.2044C72.9639 43.5457 79.262 43.0578 85.1069 44.8375C90.9517 46.6172 95.9165 50.5346 99.0173 55.8131C99.1655 56.0629 99.3085 56.3177 99.4465 56.5743C101.373 60.1365 102.379 64.1257 102.374 68.1781Z" fill="#E5E5E5"/>
<path d="M130.989 46.6793C130.695 51.5285 129.445 56.271 127.309 60.6313C123.199 68.9731 115.986 75.2979 106.995 77.6575C106.98 77.6655 106.963 77.6689 106.946 77.6674C104.684 78.2591 102.362 78.5909 100.026 78.6562H99.8304C99.5863 78.666 99.3423 78.666 99.0982 78.666C98.9323 78.666 98.7664 78.666 98.6004 78.6562C90.2303 78.5267 82.2466 75.1008 76.3732 69.118C70.4997 63.1353 67.2076 55.0757 67.2077 46.6793V46.3269C67.2223 44.2855 67.518 42.2559 68.0863 40.2957C68.0863 40.2859 68.096 40.2761 68.096 40.2663C69.1562 36.8599 71.0683 33.7825 73.6502 31.3273C80.044 24.9828 90.1666 20.9979 99.0982 14.6926C118.66 0.887544 133.029 14.6241 130.989 46.6793Z" fill="#E5E5E5"/>
<path opacity="0.2" d="M127.309 60.6313C123.199 68.9731 115.986 75.2979 106.995 77.6576C106.98 77.6655 106.963 77.6689 106.946 77.6674C104.69 78.2291 102.379 78.5378 100.055 78.5877H99.8303C99.4204 78.5975 99.0104 78.5975 98.6004 78.5877C90.2077 78.3777 82.235 74.8615 76.4074 68.8002C70.5798 62.7388 67.366 54.6196 67.4615 46.1996C67.4912 44.2167 67.7003 42.2406 68.0862 40.2957C68.0862 40.2859 68.0959 40.2761 68.0959 40.2663C69.1561 36.8599 71.0683 33.7825 73.6502 31.3273C72.7831 35.4761 72.7468 39.7565 73.5434 43.9195C74.3401 48.0825 75.9538 52.0452 78.2908 55.5772C80.6278 59.1091 83.6414 62.14 87.1565 64.4935C90.6716 66.847 94.618 68.4762 98.7664 69.2864C99.069 69.3451 99.3716 69.4039 99.6742 69.4528C100.553 69.5997 101.431 69.7074 102.32 69.7759C106.896 70.1484 111.498 69.5241 115.812 67.9457C120.125 66.3673 124.047 63.8721 127.309 60.6313Z" fill="black"/>
<path d="M100.179 98.6242L104.994 96.0822L104.259 94.6824L100.147 96.8538L99.8376 79.0399V79.0377L99.8302 78.6604V78.5933L99.6705 69.4545L99.4467 56.5748L99.2752 46.6786H99.1854L99.0176 55.8129V55.8151L98.7703 69.2899L98.5995 78.5874L98.5988 78.6649L98.5494 81.3176L97.5734 134.531L97.5668 134.882L100.824 135.799L100.818 135.445L100.179 98.6242Z" fill="#3F3D56"/>
<path d="M216.353 161.64C196.109 157.571 175.801 153.881 155.246 151.622C135.756 149.323 116.102 148.753 96.512 149.918C78.8201 151.115 60.9766 153.922 44.3564 160.321C31.549 165.251 17.8971 172.711 10.979 185.152C4.31038 197.145 6.91137 210.975 14.1727 222.039C22.9096 235.352 36.5335 244.475 50.6979 251.143C66.8254 258.735 84.0752 263.656 101.347 267.842C110.107 269.964 118.914 271.883 127.722 273.792C129.559 274.19 130.345 271.359 128.501 270.96C110.738 267.11 92.925 263.248 75.604 257.675C59.5753 252.518 43.1721 245.912 30.046 235.083C19.427 226.323 9.33043 213.527 9.95721 198.979C10.5891 184.313 22.8573 174.073 34.8818 167.77C49.9091 159.893 66.9823 156.056 83.7119 154.05C102.868 151.909 122.186 151.646 141.393 153.263C167.062 155.223 192.352 159.767 217.545 164.857" fill="black"/>
<path d="M121.315 184.997C129.834 189.268 135.02 194.908 135.02 201.095C135.02 214.422 110.977 225.226 81.3178 225.226C68.423 225.226 56.5929 223.182 47.3355 219.778C57.1681 224.708 71.4412 227.812 87.3325 227.812C116.991 227.812 141.035 217.008 141.035 203.68C141.035 196.147 133.35 189.422 121.315 184.997Z" fill="#F1F1F1"/>
<path d="M140.264 194.151C149.877 198.97 155.729 205.335 155.729 212.316C155.729 227.354 128.599 239.545 95.1323 239.545C80.5819 239.545 67.2331 237.239 56.7872 233.398C67.8821 238.96 83.9877 242.463 101.919 242.463C135.386 242.463 162.516 230.272 162.516 215.233C162.516 206.733 153.845 199.145 140.264 194.151Z" fill="#F1F1F1"/>
<path d="M114.063 189.029C120.065 192.038 123.719 196.012 123.719 200.371C123.719 209.76 106.78 217.372 85.8841 217.372C77.7434 217.477 69.6451 216.179 61.9427 213.534C68.87 217.007 78.9258 219.193 90.1216 219.193C111.017 219.193 127.956 211.582 127.956 202.192C127.956 196.885 122.542 192.147 114.063 189.029Z" fill="#F1F1F1"/>
<path d="M82.1033 207.01C69.7616 207.01 63.7597 203.614 60.8981 200.766C60.3759 200.243 60.0202 199.576 59.876 198.851C59.7318 198.125 59.8056 197.372 60.0881 196.689C60.3705 196.005 60.8489 195.421 61.4627 195.01C62.0764 194.599 62.798 194.38 63.5358 194.381H106.591C107.178 194.381 107.749 194.563 108.227 194.904C108.705 195.245 109.065 195.727 109.257 196.282C109.449 196.838 109.463 197.439 109.298 198.003C109.133 198.568 108.797 199.066 108.336 199.43C103.95 202.888 95.8391 207.01 82.1033 207.01Z" fill="#3F3D56"/>
<path d="M91.0435 163.55C87.687 160.993 83.474 159.837 79.2869 160.325C86.7204 162.166 80.8544 172.47 87.624 183.156C91.3131 188.98 84.1384 191.835 77.3036 192.616C80.9617 193.502 84.8123 193.098 88.2079 191.471C91.6036 189.844 94.3373 187.094 95.9495 183.684C97.5617 180.273 97.9541 176.41 97.0606 172.743C96.1672 169.077 94.0424 165.831 91.0435 163.55Z" fill="#3F3D56"/>
<path d="M83.4245 158.179H81.8392V196.027H83.4245V158.179Z" fill="#3F3D56"/>
<path d="M235.984 168.802C231.774 165.827 227.02 163.714 221.996 162.583C216.971 161.451 211.773 161.323 206.699 162.206C201.625 163.09 196.774 164.967 192.424 167.73C188.073 170.494 184.307 174.09 181.342 178.313C168.872 196.074 156.359 242.648 165.192 269.628C191.538 241.715 232.014 238.815 245.467 223.608C259.842 207.359 253.692 181.309 235.984 168.802Z" fill="#00A3FF"/>
<path d="M212.871 209.02C219.935 209.02 225.661 203.277 225.661 196.192C225.661 189.107 219.935 183.364 212.871 183.364C205.808 183.364 200.082 189.107 200.082 196.192C200.082 203.277 205.808 209.02 212.871 209.02Z" fill="white"/>
<path d="M154.38 283.598C159.007 283.598 162.757 279.837 162.757 275.196C162.757 270.556 159.007 266.794 154.38 266.794C149.754 266.794 146.004 270.556 146.004 275.196C146.004 279.837 149.754 283.598 154.38 283.598Z" fill="#00A3FF"/>
<path opacity="0.2" d="M226.554 193.232C227.401 194.687 227.954 196.295 228.181 197.964C228.409 199.633 228.306 201.33 227.879 202.96C227.453 204.589 226.71 206.118 225.694 207.459C224.678 208.801 223.409 209.928 221.959 210.778C220.508 211.627 218.905 212.182 217.241 212.41C215.577 212.638 213.885 212.535 212.26 212.107C210.636 211.679 209.111 210.934 207.774 209.915C206.437 208.896 205.312 207.623 204.466 206.168C206.748 208.177 209.669 209.305 212.706 209.351C215.742 209.397 218.696 208.358 221.038 206.419C223.38 204.48 224.958 201.768 225.489 198.769C226.02 195.77 225.47 192.68 223.936 190.051C224.974 190.963 225.859 192.037 226.554 193.232Z" fill="#231F20"/>
<path opacity="0.2" d="M245.491 223.669C232.038 238.875 191.562 241.775 165.216 269.688C164.394 267.136 163.761 264.525 163.322 261.879C189.656 236.504 227.878 233.297 240.876 218.604C252.509 205.455 250.698 185.887 240.199 172.271C254.599 185.659 258.664 208.778 245.491 223.669Z" fill="#231F20"/>
<path d="M383.412 455.707H373.866L369.324 418.773H383.414L383.412 455.707Z" fill="#FFB6B6"/>
<path d="M385.847 464.989L355.064 464.988V464.597C355.065 461.41 356.327 458.353 358.574 456.1C360.821 453.846 363.868 452.58 367.046 452.58H367.047L372.669 448.301L383.16 452.58L385.847 452.581L385.847 464.989Z" fill="#2F2E41"/>
<path d="M346.417 449.673L337.105 451.782L324.563 416.758L338.307 413.646L346.417 449.673Z" fill="#FFB6B6"/>
<path d="M350.83 458.189L320.804 464.989L320.718 464.608C320.018 461.499 320.579 458.239 322.275 455.544C323.972 452.849 326.666 450.941 329.766 450.239L329.767 450.238L334.312 444.823L345.485 446.679L348.106 446.085L350.83 458.189Z" fill="#2F2E41"/>
<path d="M395.503 229.913C399.979 243.453 399.506 258.151 394.427 273.925L392.256 362.738C395.846 366.7 398.098 382.854 392.569 394.421C385.186 409.867 390.272 431.227 385.054 441.475H369.916L366.196 399.754L362.92 395.049L362.422 357.419C360.411 352.645 358.082 347.91 362.171 342.379L362.062 335.842L361.481 301.001L338.652 334.484C338.003 342.062 334.141 346.033 329.028 348.599L336.098 379.897C348.464 390.513 345.439 406.943 345.644 422.153L349.698 440.1L331.068 441.771L322.846 417.431L313.602 402.433L297.526 342.47L308.737 316.371L313.319 305.704L338.91 246.132L395.503 229.913Z" fill="#2F2E41"/>
<path d="M237.347 181.624C238.093 182.371 238.994 182.945 239.985 183.306C240.977 183.666 242.035 183.804 243.085 183.71C244.136 183.616 245.153 183.292 246.065 182.761C246.977 182.23 247.762 181.505 248.364 180.637L273.043 187.595L268.993 174.866L246.178 170.21C244.657 169.291 242.852 168.964 241.107 169.291C239.362 169.618 237.796 170.575 236.708 171.982C235.619 173.389 235.083 175.148 235.201 176.925C235.318 178.702 236.082 180.374 237.347 181.624Z" fill="#FFB8B8"/>
<path d="M257.531 171.343L281.619 171.166C288.115 169.345 294.964 169.189 301.536 170.714L302.814 171.01L312.866 169.867C318.86 157.851 329.98 146.987 344.909 136.979C347.16 135.159 349.77 133.838 352.567 133.103C355.364 132.368 358.285 132.235 361.136 132.714C363.988 133.192 366.707 134.271 369.113 135.879C371.519 137.487 373.558 139.589 375.096 142.044C377.873 146.49 378.851 151.832 377.829 156.977C376.807 162.122 373.863 166.681 369.599 169.72L324.109 196.546C320.118 198.899 315.584 200.17 310.955 200.233L310.844 200.291L284.895 190.539L271.546 188.835L253.445 183.559L257.531 171.343Z" fill="#00A3FF"/>
<path d="M354.174 114.962C366.726 114.962 376.901 104.756 376.901 92.1662C376.901 79.5766 366.726 69.3707 354.174 69.3707C341.622 69.3707 331.447 79.5766 331.447 92.1662C331.447 104.756 341.622 114.962 354.174 114.962Z" fill="#FFB8B8"/>
<path d="M375.399 106.624C377.083 104.213 378.278 100.352 378.984 97.5296C379.928 93.8138 380.083 89.9404 379.439 86.1605C378.796 82.3806 377.367 78.7786 375.247 75.5878C374.464 74.2873 373.343 73.2257 372.003 72.5174C370.628 71.9016 368.815 72.0483 367.856 73.2132C367.853 72.191 367.642 71.1803 367.234 70.2433C366.827 69.3064 366.232 68.4632 365.487 67.7657C363.985 66.3785 362.181 65.3615 360.219 64.7952C356.439 63.639 352.417 63.5309 348.58 64.4823C344.744 65.4337 341.236 67.4092 338.428 70.1991C337.331 71.3185 337.723 65.7254 336.505 66.7106C335.325 67.769 333.779 68.3222 332.198 68.2517C330.642 68.0855 327.78 73.6466 327.764 72.0773C326.127 73.7225 325.406 80.6604 325.918 82.9271C326.43 85.1939 334.047 84.192 336.231 84.9689C337.678 85.4835 339.249 85.5009 340.747 85.8359C343.411 86.5263 345.73 88.1709 347.268 90.4594C348.805 92.7478 349.454 95.5217 349.092 98.2572C350.051 96.9646 351.211 95.8356 352.528 94.9141C353.192 94.4591 353.954 94.1696 354.752 94.0697C355.55 93.9698 356.36 94.0624 357.114 94.3398C357.796 94.7065 358.395 95.2089 358.876 95.8164C359.356 96.4238 359.708 97.1234 359.91 97.8722C360.406 99.3378 360.598 100.894 361.103 102.356C362.585 106.648 363.35 111.152 367.482 112.17C370.743 112.973 373.099 109.915 375.399 106.624Z" fill="#2F2E41"/>
<path d="M397.443 225.394L394.947 220.389C391.893 201.407 388.875 183.702 392.975 167.777C393.232 153.875 388.948 140.814 377.053 133.682L371.687 130.463L368.971 123.553L343.959 124.165L343.885 133.224L334.927 147.555V147.614L335.486 225.594L337.96 233.641L334.228 243.003L336.208 248.976L385.518 241.069L391.252 240.146C391.914 239.933 392.553 239.654 393.159 239.311C395.216 238.165 396.829 236.358 397.737 234.18C397.789 234.055 397.833 233.937 397.877 233.811C398.264 232.795 398.487 231.723 398.539 230.636C398.629 228.824 398.251 227.018 397.443 225.394Z" fill="#00A3FF"/>
<path opacity="0.2" d="M398.539 230.636C398.487 231.723 398.264 232.795 397.877 233.811L393.159 239.312C392.553 239.654 391.914 239.933 391.252 240.146L385.518 241.069L393.814 225.424L375.581 185.386L398.539 230.636Z" fill="black"/>
<path d="M418.384 276.946C417.469 276.32 416.702 275.5 416.136 274.544C415.571 273.589 415.221 272.52 415.112 271.414C415.003 270.308 415.137 269.192 415.504 268.143C415.872 267.095 416.464 266.14 417.239 265.346L405.239 241.161L419.132 242.858L428.398 265.564C429.642 266.959 430.332 268.763 430.338 270.634C430.344 272.505 429.666 274.313 428.432 275.716C427.197 277.119 425.493 278.019 423.641 278.246C421.789 278.473 419.919 278.01 418.384 276.946Z" fill="#FFB8B8"/>
<path d="M369.734 193.732L378.838 192.471C378.838 192.471 379.717 206.238 384.071 208.325C388.426 210.411 386.958 210.755 387.472 212.963C387.985 215.172 390.309 218.51 393.759 220.032C397.208 221.553 412.899 259.823 412.899 259.823L426.111 256.733C424.889 253.41 424.084 249.948 423.715 246.426C423.25 241.1 417.233 228.535 415.252 226.67C413.27 224.804 414.054 221.516 413.027 217.099C412 212.682 412.713 216.778 411.001 209.415C409.289 202.053 390.045 157.931 389.239 151.133C388.432 144.336 378.989 140.334 378.989 140.334L371.649 142.051L369.734 193.732Z" fill="#00A3FF"/>
</svg>
