<svg width="344" height="360" viewBox="0 0 344 360" fill="none" xmlns="http://www.w3.org/2000/svg">
<g clip-path="url(#clip0_374_9)">
<path d="M133.071 360C206.564 360 266.142 349.474 266.142 336.489C266.142 323.504 206.564 312.978 133.071 312.978C59.5778 312.978 0 323.504 0 336.489C0 349.474 59.5778 360 133.071 360Z" fill="#3F3D56"/>
<path d="M213.948 260.132C285.774 260.132 344 201.899 344 130.066C344 58.2325 285.774 0 213.948 0C142.123 0 83.897 58.2325 83.897 130.066C83.897 201.899 142.123 260.132 213.948 260.132Z" fill="#3F3D56"/>
<path opacity="0.05" d="M213.949 237.439C273.243 237.439 321.31 189.367 321.31 130.066C321.31 70.7651 273.243 22.6923 213.949 22.6923C154.654 22.6923 106.587 70.7651 106.587 130.066C106.587 189.367 154.654 237.439 213.949 237.439Z" fill="black"/>
<path opacity="0.05" d="M213.949 218.068C262.546 218.068 301.941 178.668 301.941 130.066C301.941 81.4637 262.546 42.0638 213.949 42.0638C165.352 42.0638 125.957 81.4637 125.957 130.066C125.957 178.668 165.352 218.068 213.949 218.068Z" fill="black"/>
<path opacity="0.05" d="M213.949 193.162C248.792 193.162 277.037 164.913 277.037 130.066C277.037 95.219 248.792 66.9701 213.949 66.9701C179.106 66.9701 150.86 95.219 150.86 130.066C150.86 164.913 179.106 193.162 213.949 193.162Z" fill="black"/>
<path d="M85.0492 141.706C85.0492 141.706 74.8245 170.49 79.3688 180.715C83.9131 190.941 91.1082 200.788 91.1082 200.788C91.1082 200.788 88.4574 143.6 85.0492 141.706Z" fill="#0095E9"/>
<path opacity="0.1" d="M85.0492 141.706C85.0492 141.706 74.8245 170.49 79.3688 180.715C83.9131 190.941 91.1082 200.788 91.1082 200.788C91.1082 200.788 88.4574 143.6 85.0492 141.706Z" fill="#659CBB"/>
<path d="M92.2441 208.363C92.2441 208.363 91.4868 215.559 91.1081 215.938C90.7294 216.316 91.4868 217.074 91.1081 218.21C90.7294 219.346 90.3507 220.861 91.1081 221.24C91.8655 221.619 86.9425 254.947 86.9425 254.947C86.9425 254.947 74.8244 270.854 79.7474 295.85L81.2621 321.225C81.2621 321.225 93.0015 321.983 93.0015 317.817C93.0015 317.817 92.2441 312.893 92.2441 310.621C92.2441 308.348 94.1376 308.348 93.0015 307.212C91.8655 306.076 91.8655 305.319 91.8655 305.319C91.8655 305.319 93.7589 303.804 93.3802 303.425C93.0015 303.046 96.7884 276.156 96.7884 276.156C96.7884 276.156 100.954 271.99 100.954 269.718V267.445C100.954 267.445 102.847 262.522 102.847 262.143C102.847 261.764 113.072 238.662 113.072 238.662L117.238 255.326L121.782 279.186C121.782 279.186 124.054 300.774 128.598 309.106C128.598 309.106 136.551 336.375 136.551 335.617C136.551 334.86 149.805 332.966 149.426 329.557C149.048 326.149 141.474 278.428 141.474 278.428L143.367 207.605L92.2441 208.363Z" fill="#2F2E41"/>
<path d="M82.0194 319.332C82.0194 319.332 71.7948 339.405 78.6112 340.162C85.4276 340.919 88.0785 340.919 91.108 337.89C92.7642 336.233 96.1182 334.011 98.8186 332.336C100.419 331.36 101.711 329.953 102.548 328.275C103.385 326.598 103.732 324.719 103.55 322.853C103.35 321 102.658 319.474 100.954 319.332C96.4097 318.953 91.108 314.787 91.108 314.787L82.0194 319.332Z" fill="#2F2E41"/>
<path d="M138.444 334.102C138.444 334.102 128.22 354.175 135.036 354.932C141.852 355.69 144.503 355.69 147.533 352.66C149.189 351.004 152.543 348.781 155.243 347.107C156.844 346.131 158.136 344.723 158.973 343.046C159.81 341.369 160.157 339.49 159.975 337.624C159.775 335.771 159.083 334.244 157.379 334.102C152.834 333.723 147.533 329.557 147.533 329.557L138.444 334.102Z" fill="#2F2E41"/>
<path d="M127.638 108.857C136.43 108.857 143.557 101.729 143.557 92.9367C143.557 84.1441 136.43 77.0162 127.638 77.0162C118.846 77.0162 111.719 84.1441 111.719 92.9367C111.719 101.729 118.846 108.857 127.638 108.857Z" fill="#FFB8B8"/>
<path d="M117.405 98.1677C117.405 98.1677 106.034 119.092 105.124 119.092C104.215 119.092 125.591 125.915 125.591 125.915C125.591 125.915 131.504 105.901 132.414 104.081L117.405 98.1677Z" fill="#FFB8B8"/>
<path d="M134.847 121.065C134.847 121.065 112.125 108.567 109.853 108.946C107.581 109.324 83.3449 130.533 83.7236 139.244C84.1023 147.955 87.1318 162.347 87.1318 162.347C87.1318 162.347 88.2679 202.493 90.5401 202.871C92.8122 203.25 90.1614 210.067 90.9187 210.067C91.6761 210.067 143.935 210.067 144.314 208.931C144.693 207.795 134.847 121.065 134.847 121.065Z" fill="#00A3FF"/>
<path d="M147.533 211.014C147.533 211.014 154.728 232.981 148.669 232.223C142.61 231.466 139.959 213.286 139.959 213.286L147.533 211.014Z" fill="#FFB8B8"/>
<path d="M128.22 119.739C128.22 119.739 114.208 122.769 116.48 141.706C118.752 160.643 122.918 179.579 122.918 179.579L136.929 210.257L138.444 215.938L148.669 213.286L141.095 169.353C141.095 169.353 138.444 122.391 135.036 120.876C132.887 119.959 130.55 119.57 128.22 119.739Z" fill="#00A3FF"/>
<path opacity="0.1" d="M119.699 179.011L137.119 210.067L122.443 177.343L119.699 179.011Z" fill="black"/>
<path d="M143.486 88.2489L143.539 87.0323L145.959 87.6347C145.933 87.2441 145.823 86.8638 145.635 86.5201C145.448 86.1764 145.189 85.8773 144.875 85.6437L147.452 85.4996C145.289 82.4256 142.526 79.8219 139.329 77.8458C136.132 75.8697 132.567 74.5622 128.851 74.0023C123.275 73.1941 117.067 74.3636 113.244 78.5019C111.389 80.5092 110.224 83.0619 109.395 85.6661C107.868 90.4624 107.557 96.18 110.741 100.079C113.976 104.041 119.627 104.817 124.719 105.308C126.51 105.48 128.388 105.641 130.048 104.946C130.233 103.041 129.989 101.12 129.335 99.3216C129.062 98.7651 128.932 98.1496 128.955 97.5303C129.182 96.0154 131.202 95.6337 132.72 95.8384C134.238 96.0431 136.063 96.3562 137.06 95.1938C137.747 94.393 137.707 93.227 137.798 92.1758C138.046 89.3141 143.46 88.8488 143.486 88.2489Z" fill="#2F2E41"/>
<path d="M241.124 339.724C251.367 339.724 259.672 331.419 259.672 321.174C259.672 310.93 251.367 302.624 241.124 302.624C230.88 302.624 222.576 310.93 222.576 321.174C222.576 331.419 230.88 339.724 241.124 339.724Z" fill="#00B0FF"/>
<path d="M23.2926 333.254C33.5363 333.254 41.8406 324.948 41.8406 314.703C41.8406 304.459 33.5363 296.153 23.2926 296.153C13.0488 296.153 4.74463 304.459 4.74463 314.703C4.74463 324.948 13.0488 333.254 23.2926 333.254Z" fill="#00B0FF"/>
<path d="M23.2927 303.487C30.6777 303.487 36.6645 297.5 36.6645 290.114C36.6645 282.728 30.6777 276.741 23.2927 276.741C15.9077 276.741 9.9209 282.728 9.9209 290.114C9.9209 297.5 15.9077 303.487 23.2927 303.487Z" fill="#00B0FF"/>
<path d="M23.2929 278.898C28.5339 278.898 32.7825 274.648 32.7825 269.407C32.7825 264.165 28.5339 259.916 23.2929 259.916C18.0519 259.916 13.8032 264.165 13.8032 269.407C13.8032 274.648 18.0519 278.898 23.2929 278.898Z" fill="#00B0FF"/>
</g>
<defs>
<clipPath id="clip0_374_9">
<rect width="344" height="360" fill="white"/>
</clipPath>
</defs>
</svg>
