<svg width="510" height="151" viewBox="0 0 510 151" fill="none" xmlns="http://www.w3.org/2000/svg">
<path d="M423.165 137.331H217.35C216.259 137.33 215.212 136.895 214.44 136.123C213.668 135.351 213.234 134.305 213.232 133.213V94.4206H214.88V133.213C214.88 133.868 215.141 134.496 215.604 134.959C216.067 135.422 216.695 135.683 217.35 135.684H423.165C423.82 135.683 424.448 135.422 424.911 134.959C425.375 134.496 425.635 133.868 425.636 133.213V94.1495H427.283V133.213C427.282 134.305 426.848 135.351 426.075 136.123C425.303 136.895 424.257 137.33 423.165 137.331Z" fill="#3F3D56"/>
<path d="M497.774 93.597H14.1328V95.2442H497.774V93.597Z" fill="#3F3D56"/>
<path d="M14.1678 108.46C21.9924 108.46 28.3355 102.117 28.3355 94.292C28.3355 86.4673 21.9924 80.1242 14.1678 80.1242C6.34312 80.1242 0 86.4673 0 94.292C0 102.117 6.34312 108.46 14.1678 108.46Z" fill="#00B0FF"/>
<path d="M158.138 108.46C165.963 108.46 172.306 102.117 172.306 94.292C172.306 86.4673 165.963 80.1242 158.138 80.1242C150.314 80.1242 143.971 86.4673 143.971 94.292C143.971 102.117 150.314 108.46 158.138 108.46Z" fill="#00B0FF"/>
<path d="M255.846 150.102C263.671 150.102 270.014 143.759 270.014 135.935C270.014 128.11 263.671 121.767 255.846 121.767C248.022 121.767 241.679 128.11 241.679 135.935C241.679 143.759 248.022 150.102 255.846 150.102Z" fill="#3F3D56"/>
<path d="M330.125 150.102C337.949 150.102 344.293 143.759 344.293 135.935C344.293 128.11 337.949 121.767 330.125 121.767C322.3 121.767 315.957 128.11 315.957 135.935C315.957 143.759 322.3 150.102 330.125 150.102Z" fill="#CCCCCC"/>
<path d="M294.131 108.46C301.955 108.46 308.298 102.117 308.298 94.292C308.298 86.4673 301.955 80.1242 294.131 80.1242C286.306 80.1242 279.963 86.4673 279.963 94.292C279.963 102.117 286.306 108.46 294.131 108.46Z" fill="#00B0FF"/>
<path d="M495.832 108.46C503.656 108.46 510 102.117 510 94.292C510 86.4673 503.656 80.1242 495.832 80.1242C488.007 80.1242 481.664 86.4673 481.664 94.292C481.664 102.117 488.007 108.46 495.832 108.46Z" fill="#00B0FF"/>
<path d="M426.459 108.46C434.283 108.46 440.627 102.117 440.627 94.292C440.627 86.4673 434.283 80.1242 426.459 80.1242C418.634 80.1242 412.291 86.4673 412.291 94.292C412.291 102.117 418.634 108.46 426.459 108.46Z" fill="#00B0FF"/>
<path d="M226.278 0H200V18.1111H226.278V0Z" fill="#3F3D56"/>
<path d="M28.2785 0H2V18.1111H28.2785V0Z" fill="#00B0FF"/>
<path d="M128.278 0H102V18.1111H128.278V0Z" fill="#CCCCCC"/>
<path d="M58.1019 95.2442C57.8835 95.2442 57.674 95.1574 57.5196 95.003C57.3651 94.8485 57.2783 94.639 57.2783 94.4206V53.7653C57.2796 52.6735 57.7139 51.6268 58.4859 50.8548C59.2579 50.0827 60.3046 49.6485 61.3964 49.6472H101.485C101.704 49.6472 101.913 49.734 102.068 49.8885C102.222 50.0429 102.309 50.2524 102.309 50.4708C102.309 50.6893 102.222 50.8988 102.068 51.0532C101.913 51.2077 101.704 51.2944 101.485 51.2944H61.3964C60.7413 51.2952 60.1132 51.5557 59.65 52.0189C59.1868 52.4821 58.9263 53.1102 58.9255 53.7653V94.4206C58.9255 94.639 58.8388 94.8485 58.6843 95.003C58.5298 95.1574 58.3204 95.2442 58.1019 95.2442Z" fill="#3F3D56"/>
<path d="M103.369 64.3306C111.194 64.3306 117.537 57.9875 117.537 50.1628C117.537 42.3382 111.194 35.9951 103.369 35.9951C95.5443 35.9951 89.2012 42.3382 89.2012 50.1628C89.2012 57.9875 95.5443 64.3306 103.369 64.3306Z" fill="#E6E6E6"/>
<path d="M375.192 94.4206H373.545V53.7653C373.546 52.6735 373.98 51.6268 374.752 50.8548C375.525 50.0827 376.571 49.6485 377.663 49.6472H417.752V51.2944H377.663C377.008 51.2952 376.38 51.5557 375.917 52.0189C375.453 52.4821 375.193 53.1102 375.192 53.7653V94.4206Z" fill="#3F3D56"/>
<path d="M419.636 64.3306C427.46 64.3306 433.803 57.9875 433.803 50.1628C433.803 42.3382 427.46 35.9951 419.636 35.9951C411.811 35.9951 405.468 42.3382 405.468 50.1628C405.468 57.9875 411.811 64.3306 419.636 64.3306Z" fill="#E6E6E6"/>
</svg>
