<svg width="511" height="307" viewBox="0 0 511 307" fill="none" xmlns="http://www.w3.org/2000/svg">
<g clip-path="url(#clip0_387_72)">
<path d="M85.7492 292.23C85.3398 292.249 84.9345 292.142 84.5882 291.922C84.2419 291.703 83.9713 291.382 83.8132 291.003C83.6551 290.625 83.617 290.207 83.7042 289.806C83.7914 289.405 83.9995 289.041 84.3005 288.762L84.4375 288.217C84.4194 288.174 84.4013 288.13 84.3831 288.086C83.9706 287.111 83.2794 286.28 82.3964 285.696C81.5133 285.113 80.4778 284.804 79.4198 284.808C78.3619 284.812 77.3286 285.129 76.45 285.719C75.5713 286.308 74.8863 287.145 74.4811 288.123C72.8616 292.028 70.7997 295.939 70.292 300.067C70.0684 301.892 70.1627 303.741 70.5707 305.534C66.7669 297.228 64.7917 288.201 64.779 279.064C64.7782 276.771 64.9055 274.48 65.1602 272.202C65.3707 270.334 65.6628 268.479 66.0364 266.638C68.0751 256.647 72.4524 247.283 78.8088 239.314C81.8853 237.634 84.3732 235.05 85.9375 231.911C86.5041 230.782 86.9047 229.578 87.1266 228.334C86.7795 228.38 85.818 223.089 86.0797 222.765C85.5961 222.03 84.7305 221.665 84.2023 220.948C81.5753 217.383 77.956 218.006 76.0666 222.85C72.0303 224.889 71.9912 228.271 74.4679 231.524C76.0435 233.593 76.26 236.393 77.6425 238.608C77.5003 238.79 77.3523 238.967 77.2101 239.149C74.6101 242.496 72.344 246.089 70.4443 249.878C70.9063 245.633 70.3549 241.339 68.8355 237.349C67.2956 233.631 64.4093 230.499 61.8676 227.285C58.8146 223.424 52.5541 225.109 52.0162 230.003C52.011 230.051 52.0059 230.098 52.0009 230.145C52.3785 230.359 52.748 230.585 53.1096 230.824C53.5639 231.128 53.9158 231.562 54.1194 232.07C54.323 232.577 54.3687 233.134 54.2506 233.668C54.1324 234.202 53.8559 234.688 53.4572 235.062C53.0585 235.435 52.5563 235.68 52.0164 235.763L51.9611 235.772C52.0956 237.134 52.3333 238.484 52.6723 239.81C49.4115 252.432 56.4512 257.029 66.5029 257.236C66.7248 257.35 66.941 257.464 67.1629 257.572C65.2543 262.986 64.0571 268.626 63.6014 274.349C63.3435 277.725 63.3587 281.117 63.6469 284.491L63.6299 284.372C62.9016 280.62 60.9021 277.235 57.969 274.787C53.6127 271.205 47.458 269.886 42.7583 267.007C42.2588 266.686 41.678 266.515 41.0845 266.513C40.4909 266.512 39.9094 266.68 39.4083 266.999C38.9073 267.317 38.5078 267.773 38.2568 268.311C38.0058 268.849 37.9138 269.448 37.9918 270.037C37.9981 270.079 38.0045 270.121 38.011 270.163C38.7116 270.449 39.3938 270.778 40.0535 271.148C40.431 271.362 40.8006 271.588 41.1621 271.827C41.6164 272.131 41.9684 272.565 42.1719 273.072C42.3755 273.58 42.4212 274.137 42.3031 274.671C42.1849 275.205 41.9084 275.691 41.5097 276.065C41.1111 276.438 40.6089 276.683 40.0689 276.766L40.0136 276.775C39.9738 276.781 39.9396 276.786 39.8999 276.792C41.0969 279.653 42.777 282.286 44.8666 284.577C46.9054 295.596 55.6623 296.641 65.0294 293.432H65.0351C66.0629 297.903 67.552 302.254 69.4785 306.417H85.3515C85.4085 306.24 85.4596 306.058 85.5109 305.881C84.0416 305.974 82.5666 305.886 81.1187 305.619C82.2964 304.173 83.4741 302.715 84.6518 301.268C84.678 301.241 84.7027 301.213 84.7257 301.183C85.3231 300.443 85.9262 299.708 86.5235 298.968L86.5238 298.967C86.5557 296.697 86.295 294.433 85.7492 292.23Z" fill="#F2F2F2"/>
<path d="M417.285 292.23C417.694 292.249 418.099 292.142 418.446 291.922C418.792 291.703 419.062 291.382 419.221 291.003C419.379 290.625 419.417 290.207 419.33 289.806C419.242 289.405 419.034 289.041 418.733 288.762L418.596 288.217C418.614 288.174 418.632 288.13 418.651 288.086C419.063 287.111 419.754 286.28 420.637 285.696C421.52 285.113 422.556 284.804 423.614 284.808C424.672 284.812 425.705 285.129 426.584 285.719C427.462 286.308 428.147 287.145 428.553 288.123C430.172 292.028 432.234 295.939 432.742 300.067C432.965 301.892 432.871 303.741 432.463 305.534C436.267 297.228 438.242 288.201 438.255 279.064C438.256 276.771 438.128 274.48 437.874 272.202C437.663 270.334 437.371 268.479 436.997 266.638C434.959 256.647 430.581 247.283 424.225 239.314C421.149 237.634 418.661 235.05 417.096 231.911C416.53 230.782 416.129 229.578 415.907 228.334C416.254 228.38 417.216 223.089 416.954 222.765C417.438 222.03 418.303 221.665 418.831 220.948C421.458 217.383 425.078 218.006 426.967 222.85C431.003 224.889 431.043 228.271 428.566 231.524C426.99 233.593 426.774 236.393 425.391 238.608C425.534 238.79 425.681 238.967 425.824 239.149C428.424 242.496 430.69 246.089 432.589 249.878C432.127 245.633 432.679 241.339 434.198 237.349C435.738 233.631 438.624 230.499 441.166 227.285C444.219 223.424 450.48 225.109 451.018 230.003C451.023 230.051 451.028 230.098 451.033 230.145C450.655 230.359 450.286 230.585 449.924 230.824C449.47 231.128 449.118 231.562 448.914 232.07C448.711 232.577 448.665 233.134 448.783 233.668C448.901 234.202 449.178 234.688 449.577 235.062C449.975 235.435 450.477 235.68 451.017 235.763L451.073 235.772C450.938 237.134 450.7 238.484 450.361 239.81C453.622 252.432 446.583 257.029 436.531 257.236C436.309 257.35 436.093 257.464 435.871 257.572C437.779 262.986 438.977 268.626 439.432 274.349C439.69 277.725 439.675 281.117 439.387 284.491L439.404 284.372C440.132 280.62 442.132 277.235 445.065 274.787C449.421 271.205 455.576 269.886 460.276 267.007C460.775 266.686 461.356 266.515 461.949 266.513C462.543 266.512 463.124 266.68 463.625 266.999C464.126 267.317 464.526 267.773 464.777 268.311C465.028 268.849 465.12 269.448 465.042 270.037C465.036 270.079 465.029 270.121 465.023 270.163C464.322 270.449 463.64 270.778 462.98 271.148C462.603 271.362 462.233 271.588 461.872 271.827C461.417 272.131 461.065 272.565 460.862 273.072C460.658 273.58 460.613 274.137 460.731 274.671C460.849 275.205 461.125 275.691 461.524 276.065C461.923 276.438 462.425 276.683 462.965 276.766L463.02 276.775C463.06 276.781 463.094 276.786 463.134 276.792C461.937 279.653 460.257 282.286 458.167 284.577C456.128 295.596 447.371 296.641 438.004 293.432H437.999C436.971 297.903 435.482 302.254 433.555 306.417H417.682C417.625 306.24 417.574 306.058 417.523 305.881C418.992 305.974 420.467 305.886 421.915 305.619C420.737 304.173 419.56 302.715 418.382 301.268C418.356 301.241 418.331 301.213 418.308 301.183C417.711 300.443 417.108 299.708 416.51 298.968L416.51 298.967C416.478 296.697 416.739 294.433 417.285 292.23Z" fill="#F2F2F2"/>
<path d="M104.006 306.061H129.62C134.001 291.296 129.643 256.401 135.418 242.139C146.496 214.793 160.649 185.939 187.064 172.586C198.343 166.885 210.64 164.658 223.199 164.779C240.548 164.944 258.385 169.606 274.715 175.784C281.395 178.305 288.014 181.078 294.607 183.911C319.446 194.595 344.015 206.232 370.726 209.377C404.527 213.354 444.268 198.217 453.5 165.611C460.546 140.648 447.856 114.731 434.548 92.4364C421.24 70.1418 406.365 46.2874 408.795 20.4749C408.803 20.3882 408.812 20.2929 408.83 20.2062C409.744 10.9348 415.274 4.27176 423 0H389.364C388.92 24.0796 402.838 45.3343 415.362 66.3205C428.669 88.6065 441.359 114.532 434.313 139.495C425.081 172.092 348.637 133.882 314.836 129.896C305.291 128.778 320.453 132.755 311.352 129.896C297.078 125.416 295.495 166.504 281.604 160.473C272.955 156.712 264.298 152.978 255.528 149.659C251.896 148.281 248.186 146.99 244.432 145.795C244.424 145.795 244.424 145.795 244.415 145.786C219.21 137.797 191.645 134.686 168.356 146.236C168.2 146.314 168.034 146.392 167.877 146.47C141.462 159.814 127.309 188.668 116.231 216.014C107.077 238.621 108.517 282.215 104.006 306.061Z" fill="#F2F2F2"/>
<path d="M246.512 305.304C311.485 305.304 364.156 252.582 364.156 187.546C364.156 122.51 311.485 69.7877 246.512 69.7877C181.54 69.7877 128.869 122.51 128.869 187.546C128.869 252.582 181.54 305.304 246.512 305.304Z" fill="white"/>
<path d="M246.176 306.061C129.78 308.737 127.228 253.384 127.228 187.546C127.228 121.709 180.738 68.1454 246.512 68.1454C312.286 68.1454 365.797 121.709 365.797 187.546C365.796 253.384 311.95 306.061 246.176 306.061ZM246.512 71.4309C182.548 71.4309 131.587 123.529 130.51 187.546C129.508 247.089 192.701 321.391 246.512 303.662C275.369 271.85 356.956 237.586 362.514 187.546C369.582 123.912 310.476 71.4309 246.512 71.4309Z" fill="#3F3D56"/>
<path d="M3.75043e-06 306.152C-0.000328108 306.263 0.0213667 306.374 0.0638336 306.477C0.106301 306.58 0.168706 306.674 0.247457 306.752C0.326209 306.831 0.419746 306.894 0.522703 306.936C0.625659 306.979 0.736003 307 0.847371 307H510.153C510.377 307 510.593 306.911 510.752 306.752C510.911 306.593 511 306.377 511 306.152C511 305.927 510.911 305.711 510.752 305.552C510.593 305.393 510.377 305.304 510.153 305.304H0.847371C0.736004 305.303 0.625668 305.325 0.522713 305.368C0.419759 305.41 0.326219 305.473 0.247468 305.551C0.168717 305.63 0.106313 305.724 0.0638445 305.827C0.0213762 305.93 -0.000324328 306.04 3.75043e-06 306.152Z" fill="#CCCCCC"/>
<path d="M321.637 297.838H314.748L311.472 271.241L321.639 271.242L321.637 297.838Z" fill="#FFB6B6"/>
<path d="M321.879 305.031L300.696 305.03V304.762C300.696 302.573 301.565 300.474 303.111 298.926C304.658 297.379 306.755 296.509 308.941 296.509L312.811 293.571L320.031 296.509L321.88 296.509L321.879 305.031Z" fill="#2F2E41"/>
<path d="M291.689 264.876L285.326 267.517L272.12 244.206L281.512 240.308L291.689 264.876Z" fill="#FFB6B6"/>
<path d="M294.666 271.427L275.099 279.549L274.996 279.301C274.158 277.279 274.158 275.007 274.994 272.985C275.829 270.962 277.434 269.355 279.454 268.516L281.904 264.318L289.697 264.264L291.405 263.555L294.666 271.427Z" fill="#2F2E41"/>
<path d="M160.554 129.715L148.102 142.18L252.387 246.567L264.839 234.103L160.554 129.715Z" fill="#F2F2F2"/>
<path d="M264.839 142.18L252.387 129.715L148.102 234.103L160.553 246.567L264.839 142.18Z" fill="#F2F2F2"/>
<path d="M167.674 145.395L155.222 157.859L259.507 262.247L271.959 249.783L167.674 145.395Z" fill="#00A3FF"/>
<path d="M271.959 157.86L259.507 145.395L155.222 249.783L167.674 262.247L271.959 157.86Z" fill="#00A3FF"/>
<path d="M329.513 146.542L280.626 151.655L274.087 173.701L251.44 210.131C251.44 210.131 267.243 236.754 265.759 236.464C264.275 236.174 267.241 243.431 269.318 243.01C271.396 242.589 273.556 247.321 272.12 248.162C270.684 249.003 276.445 256.117 276.445 256.117L285.251 248.205C287.124 234.063 284.861 221.476 276.799 211.071L302.028 183.808L306.812 181.821L310.609 282.989L324.655 283.22C328.531 263.263 330.478 245.301 327.449 232.488C327.449 232.488 327.884 193.995 329.545 194.415C331.206 194.836 329.798 189.822 329.798 189.822C329.798 189.822 328.343 185.551 330.13 183.779C331.918 182.007 330.802 171.587 330.802 171.587C333.755 161.725 332.866 153.582 329.513 146.542Z" fill="#2F2E41"/>
<path d="M291.925 65.1844L305.439 61.679L311.748 52.9695L326.73 54.8131L329.919 66.6928L340.585 72.89C340.585 72.89 334.69 135.304 336.092 138.731C337.494 142.158 342.522 141.876 338.228 146.293C333.934 150.711 333.366 148.932 334.362 153.741C335.358 158.551 342.622 163.641 334.362 163.591C326.102 163.54 276.26 162.827 277.684 157.126C279.108 151.424 279.086 152.872 281.233 149.297C283.38 145.722 284.826 147.72 284.103 142.445C283.38 137.169 284.092 133.606 284.092 130.755C284.092 127.904 286.478 101.998 286.478 101.998L291.925 65.1844Z" fill="#00A3FF"/>
<path d="M319.202 51.3596C327.97 51.3596 335.078 44.2445 335.078 35.4676C335.078 26.6907 327.97 19.5756 319.202 19.5756C310.433 19.5756 303.325 26.6907 303.325 35.4676C303.325 44.2445 310.433 51.3596 319.202 51.3596Z" fill="#FFB6B6"/>
<path d="M302.565 25.8498C303.959 26.9774 303.64 32.4616 305.194 31.5677C306.747 30.6738 307.07 29.0731 308.859 29.0563C310.317 29.1369 311.693 29.76 312.716 30.8033C312.906 30.9755 313.087 31.1561 313.263 31.3346C313.424 31.2782 313.583 31.227 313.75 31.185C315.005 30.8785 316.329 31.0651 317.45 31.7065C316.415 31.7805 315.429 32.1784 314.632 32.8439C314.973 33.2269 315.32 33.6121 315.684 33.968C318.725 36.9507 324.959 33.7744 329.151 33.0576C325.66 36.8736 326.348 39.0038 327.216 44.1042L327.22 44.3828C327.399 43.2066 331.162 43.2652 330.542 44.8259C329.762 46.3678 328.787 47.8024 327.641 49.0941C332.769 45.5382 336.909 40.6367 337.823 34.7158C338.011 33.4709 338.378 32.2007 338.023 30.9869C337.873 30.3732 337.523 29.8267 337.03 29.4328C336.536 29.0388 335.926 28.8197 335.295 28.8095C335.866 26.9933 335.935 25.056 335.494 23.2037C335.053 21.3515 334.119 19.6534 332.791 18.29C331.463 16.9266 329.791 15.9489 327.952 15.4609C326.114 14.9728 324.177 14.9926 322.349 15.5182C320.681 16.1115 319.054 16.8144 317.479 17.6222C315.889 18.4331 314.089 18.7382 312.321 18.4966C311.22 18.2689 310.104 17.698 309.025 18.0212C307.774 18.3968 307.236 19.7193 306.734 20.9959C307.676 21.34 308.493 21.9572 309.082 22.7685C308.109 22.4091 307.048 22.3659 306.049 22.6452C306.03 22.6484 306.012 22.6533 305.995 22.6598C304.862 24.6915 304.796 25.1897 302.565 25.8498Z" fill="#2F2E41"/>
<path d="M307.801 57.4218C299.669 56.7665 292.244 62.9916 288.859 70.4215C285.474 77.8514 285.252 86.2801 285.088 94.4446L284.577 119.824C284.501 123.579 284.426 127.335 284.239 131.087C284.143 134.737 283.684 138.369 282.87 141.929C281.212 148.461 277.564 154.282 273.971 159.981C283.172 162.765 292.529 165.002 301.994 166.68C306.721 151.377 311.501 135.634 310.339 119.659C309.724 111.205 307.453 102.951 306.589 94.5194C305.367 82.5775 306.987 70.5476 308.605 58.6529" fill="#3F3D56"/>
<path d="M327.54 58.8492C335.595 60.1456 341.331 67.9576 342.857 75.9797C344.382 84.0017 342.598 92.242 340.821 100.212C338.979 108.47 337.138 116.728 335.296 124.986C334.479 128.653 333.661 132.319 332.953 136.008C332.265 139.591 335.147 144.187 335.18 147.836C335.241 154.575 333.933 160.126 336.072 166.516C326.474 167.034 316.854 166.982 307.262 166.363C306.301 150.374 305.391 133.945 310.31 118.702C312.913 110.637 317.078 103.159 319.917 95.1736C323.938 83.864 325.217 71.793 326.468 59.854" fill="#3F3D56"/>
<path d="M332.91 174.062C332.312 173.018 332.144 171.782 332.442 170.617C332.741 169.451 333.481 168.449 334.507 167.821C334.718 167.697 334.938 167.591 335.166 167.503L334.139 132.497L345.265 129.662L341.023 170.446C341.313 171.42 341.273 172.464 340.908 173.414C340.544 174.363 339.876 175.165 339.008 175.695C338.511 175.991 337.961 176.187 337.389 176.27C336.817 176.354 336.234 176.324 335.673 176.182C335.112 176.04 334.585 175.789 334.121 175.443C333.658 175.098 333.267 174.664 332.97 174.167C332.95 174.132 332.93 174.097 332.91 174.062Z" fill="#FFB6B6"/>
<path d="M332.097 72.8342C332.097 72.8342 339.864 66.2599 346.399 79.405C352.934 92.55 349.282 122.58 348.362 124.183C347.442 125.785 346.881 123.553 347.385 127.825C347.794 131.3 345.358 130.865 346.232 131.606C348.536 133.561 342.083 133.784 345.397 135.507C348.712 137.23 333.878 137.552 333.878 137.552C333.878 137.552 332.084 136.269 333.33 131.433C334.03 128.716 335.782 127.723 333.913 126.466C332.044 125.209 335.844 121.322 335.846 120.47C335.849 119.617 329.922 100.967 329.922 100.967L332.097 72.8342Z" fill="#3F3D56"/>
<path d="M292.295 167.981C292.95 166.972 293.186 165.748 292.952 164.567C292.719 163.387 292.035 162.345 291.045 161.662C290.842 161.526 290.628 161.408 290.405 161.308L293.363 126.412L282.41 122.966L284.395 163.922C284.051 164.879 284.034 165.923 284.345 166.891C284.657 167.86 285.279 168.697 286.117 169.274C286.596 169.598 287.135 169.823 287.701 169.939C288.268 170.054 288.852 170.056 289.419 169.945C289.987 169.835 290.527 169.613 291.009 169.294C291.491 168.974 291.906 168.562 292.229 168.082C292.252 168.049 292.274 168.015 292.295 167.981Z" fill="#FFB6B6"/>
<path d="M298.705 67.0251C298.705 67.0251 291.313 60.0312 284.062 72.7947C276.811 85.5581 278.8 115.744 279.63 117.395C280.46 119.047 281.144 116.848 280.405 121.086C279.804 124.533 282.26 124.234 281.347 124.926C278.938 126.75 285.369 127.329 281.965 128.866C278.56 130.403 293.354 131.546 293.354 131.546C293.354 131.546 295.216 130.364 294.239 125.466C293.69 122.715 291.995 121.626 293.931 120.474C295.866 119.322 292.287 115.232 292.331 114.38C292.376 113.529 299.324 95.2356 299.324 95.2356L298.705 67.0251Z" fill="#3F3D56"/>
</g>
<defs>
<clipPath id="clip0_387_72">
<rect width="511" height="307" fill="white"/>
</clipPath>
</defs>
</svg>
