<svg width="429" height="446" viewBox="0 0 429 446" fill="none" xmlns="http://www.w3.org/2000/svg">
<g clip-path="url(#clip0_386_2)">
<path d="M381.139 339.419L381.131 339.62L391.202 446H317.707L308.18 380.664L303.987 444.325L228.513 443.487L236.53 359.907L243.348 321.166V321.158L244.371 315.328H379.135L379.311 317.439L381.139 339.419Z" fill="#2F2E41"/>
<path d="M186.911 401.088C194.695 402.504 202.811 393.748 205.04 381.531C206.015 376.182 205.7 371.058 204.385 366.867L205.579 359.824L225.608 265.079C225.608 265.079 262.49 191.388 262.489 178.594C262.488 165.801 251.82 159.527 251.82 159.527L237.384 159.662L192.114 270.102L183.96 351.713L182.641 362.91C179.931 366.369 177.827 371.053 176.852 376.401C174.624 388.619 179.127 399.671 186.911 401.088Z" fill="#FFB6B6"/>
<path d="M333.758 113.876L320.341 82.8832L276.733 90.4219L273.798 126.886L333.758 113.876Z" fill="#FFB6B6"/>
<path opacity="0.1" d="M333.758 113.876L320.341 82.8832L276.733 90.4219L273.798 126.886L333.758 113.876Z" fill="black"/>
<path d="M428.521 178.374C428.521 178.374 397.492 120.577 391.622 114.713C389.009 112.103 384.901 112.067 381.145 112.828L337.951 97.9606L323.311 89.744L322.346 105.376L274.281 113.993C274.548 104.46 275.894 100.834 275.894 100.834L258.284 121.415L223.901 138.167L223.92 138.318C221.396 139.198 219.004 140.703 217.192 143.193C210.483 152.407 192.034 264.651 192.034 264.651L231.448 273.027L236.812 239.405L240.673 269.677L243.608 326.217C243.608 326.217 297.279 372.288 323.276 355.535C349.272 338.782 381.14 339.62 381.14 339.62L381.935 313.412C382.501 312.508 382.817 311.978 382.817 311.978L381.978 219.013V194.275C388.367 203.166 396.076 210.811 405.04 214.393C434.391 226.12 428.521 178.374 428.521 178.374Z" fill="#00A0FA"/>
<path d="M293.979 95.8749C316.135 95.8749 334.096 77.9343 334.096 55.8035C334.096 33.6726 316.135 15.7321 293.979 15.7321C271.822 15.7321 253.861 33.6726 253.861 55.8035C253.861 77.9343 271.822 95.8749 293.979 95.8749Z" fill="#FFB6B6"/>
<path d="M322.759 67.128C322.759 67.128 326.247 54.9324 334.096 55.8035C341.945 56.6746 343.69 49.7057 341.945 46.2212C340.201 42.7367 336.713 25.3144 336.713 25.3144C336.713 25.3144 338.457 13.1187 327.991 11.3765C317.526 9.63426 314.037 7.89202 312.293 4.40755C310.549 0.923074 284.385 -2.5614 275.664 2.66531C266.943 7.89202 259.966 17.9202 253.861 20.7462C247.756 23.5721 242.523 28.7988 246.012 37.51C249.5 46.2212 254.56 63.2584 254.56 63.2584C254.56 63.2584 263.454 60.1591 265.199 65.3858C266.943 70.6125 259.966 63.6436 268.687 49.7057C277.408 35.7678 277.408 21.8299 291.362 27.0566C305.316 32.2833 321.014 30.5411 319.27 40.9945C317.526 51.4479 322.759 67.128 322.759 67.128Z" fill="#2F2E41"/>
<path d="M320.305 384.799H15.6259C7.00963 384.799 0 377.796 0 369.191V207.532C0 198.926 7.00963 191.924 15.6259 191.924H320.305C328.922 191.924 335.931 198.926 335.931 207.532V369.191C335.931 377.796 328.922 384.799 320.305 384.799Z" fill="white"/>
<path d="M320.305 384.799H15.6259C7.00963 384.799 0 377.796 0 369.191V207.532C0 198.926 7.00963 191.924 15.6259 191.924H320.305C328.922 191.924 335.931 198.926 335.931 207.532V369.191C335.931 377.796 328.922 384.799 320.305 384.799ZM15.6259 194.53C8.44876 194.53 2.60942 200.363 2.60942 207.532V369.191C2.60942 376.36 8.44876 382.192 15.6259 382.192H320.305C327.483 382.192 333.322 376.36 333.322 369.191V207.532C333.322 200.363 327.483 194.53 320.305 194.53H15.6259Z" fill="#3F3D56"/>
<path d="M296.79 211.472C298.952 211.472 300.704 209.722 300.704 207.563C300.704 205.403 298.952 203.653 296.79 203.653C294.628 203.653 292.876 205.403 292.876 207.563C292.876 209.722 294.628 211.472 296.79 211.472Z" fill="#3F3D56"/>
<path d="M307.228 211.472C309.389 211.472 311.142 209.722 311.142 207.563C311.142 205.403 309.389 203.653 307.228 203.653C305.066 203.653 303.313 205.403 303.313 207.563C303.313 209.722 305.066 211.472 307.228 211.472Z" fill="#3F3D56"/>
<path d="M317.666 211.472C319.827 211.472 321.58 209.722 321.58 207.563C321.58 205.403 319.827 203.653 317.666 203.653C315.504 203.653 313.751 205.403 313.751 207.563C313.751 209.722 315.504 211.472 317.666 211.472Z" fill="#3F3D56"/>
<path d="M22.1802 270.768C21.101 270.768 20.2231 271.645 20.2231 272.723C20.2231 273.248 20.4264 273.735 20.7952 274.094C21.1673 274.474 21.6546 274.678 22.1802 274.678H315.056C316.135 274.678 317.013 273.801 317.013 272.723C317.013 272.197 316.81 271.711 316.441 271.352C316.069 270.972 315.582 270.768 315.056 270.768H22.1802Z" fill="#E6E6E6"/>
<path d="M278.524 270.116V275.329H22.1802C21.4627 275.329 20.8103 275.043 20.3406 274.56C19.8578 274.091 19.5708 273.44 19.5708 272.723C19.5708 271.289 20.7451 270.116 22.1802 270.116H278.524Z" fill="#00B0FF"/>
<path d="M311.795 260.342H285.7C282.823 260.342 280.481 258.005 280.481 255.13C280.481 252.255 282.823 249.917 285.7 249.917H311.795C314.672 249.917 317.013 252.255 317.013 255.13C317.013 258.005 314.672 260.342 311.795 260.342Z" fill="#E6E6E6"/>
<path d="M140.877 232.975H24.1373C21.2597 232.975 18.9185 230.637 18.9185 227.762C18.9185 224.887 21.2597 222.549 24.1373 222.549H140.877C143.755 222.549 146.096 224.887 146.096 227.762C146.096 230.637 143.755 232.975 140.877 232.975Z" fill="#E6E6E6"/>
<path d="M22.1802 329.412C21.101 329.412 20.2231 330.289 20.2231 331.367C20.2231 331.893 20.4264 332.379 20.7952 332.738C21.1673 333.118 21.6546 333.322 22.1802 333.322H315.056C316.135 333.322 317.013 332.445 317.013 331.367C317.013 330.842 316.81 330.355 316.441 329.997C316.069 329.616 315.582 329.412 315.056 329.412H22.1802Z" fill="#E6E6E6"/>
<path d="M178.062 328.761V333.973H22.1802C21.4627 333.973 20.8103 333.687 20.3406 333.205C19.8578 332.735 19.5708 332.084 19.5708 331.367C19.5708 329.933 20.7451 328.761 22.1802 328.761H178.062Z" fill="#00B0FF"/>
<path d="M311.795 318.987H285.7C282.823 318.987 280.481 316.649 280.481 313.774C280.481 310.899 282.823 308.561 285.7 308.561H311.795C314.672 308.561 317.013 310.899 317.013 313.774C317.013 316.649 314.672 318.987 311.795 318.987Z" fill="#E6E6E6"/>
<path d="M357.476 98.9593C380.044 98.9593 398.338 81.0707 398.338 59.004C398.338 36.9374 380.044 19.0488 357.476 19.0488C334.908 19.0488 316.614 36.9374 316.614 59.004C316.614 81.0707 334.908 98.9593 357.476 98.9593Z" fill="#00B0FF"/>
<path d="M371.345 38.8504C365.905 48.7447 360.464 58.6391 355.024 68.5335C351.557 62.4145 348.109 56.2848 344.633 50.1707C343.433 48.059 340.168 49.9583 341.371 52.0752C345.4 59.1629 349.388 66.2741 353.417 73.3618C354.106 74.5736 355.997 74.6018 356.679 73.3618C362.655 62.4928 368.631 51.6238 374.607 40.7549C375.778 38.6251 372.516 36.719 371.345 38.8504Z" fill="white"/>
<path d="M413.885 164.321L373.172 144.869C373.172 144.869 371.537 131.849 363.902 127.204C362.604 124.111 361.111 120.714 359.755 118.021C356.4 111.363 361.432 98.7983 357.239 98.7983C353.046 98.7983 346.848 112.012 347.176 115.551C347.427 118.268 349.675 123.01 350.14 127.162C345.026 129.088 340.902 132.389 338.19 135.018C335.843 137.293 334.971 140.687 335.888 143.822C338.546 152.908 345.189 171.673 354.723 171.673C367.302 171.673 370.657 169.16 370.657 169.16C370.657 169.16 396.653 201.828 415.941 204.341C435.229 206.854 413.885 164.321 413.885 164.321Z" fill="#FFB6B6"/>
</g>
<defs>
<clipPath id="clip0_386_2">
<rect width="429" height="446" fill="white"/>
</clipPath>
</defs>
</svg>
