<svg width="509" height="613" viewBox="0 0 509 613" fill="none" xmlns="http://www.w3.org/2000/svg">
<g clip-path="url(#clip0_1_160)">
<path d="M3.63886 293.19C5.50911 296.312 8.04144 298.986 11.0575 301.024C14.0735 303.063 17.5 304.415 21.0954 304.986C24.6908 305.557 28.3677 305.333 31.8673 304.33C35.3668 303.327 38.6038 301.569 41.3501 299.181L118.115 343.193L115.254 297.312L42.7954 262.551C38.475 258.205 32.7099 255.594 26.5924 255.213C20.475 254.832 14.4303 256.707 9.60373 260.484C4.77718 264.261 1.50411 269.676 0.404744 275.704C-0.694618 281.732 0.456107 287.953 3.63886 293.19Z" fill="#FFB8B8"/>
<path d="M225.879 469.501C203.109 501.361 203.923 554.663 210.276 613H317.938L322.619 602.082L328.86 613H430.28C430.28 613 422.479 464.822 408.436 460.142C394.393 455.463 225.879 469.501 225.879 469.501Z" fill="#2F2E41"/>
<path d="M317.938 136.634C348.099 136.634 372.549 112.192 372.549 82.0417C372.549 51.8914 348.099 27.4497 317.938 27.4497C287.777 27.4497 263.327 51.8914 263.327 82.0417C263.327 112.192 287.777 136.634 317.938 136.634Z" fill="#FFB8B8"/>
<path d="M357.408 150.798L368.088 171.259L441.954 204.176L422.538 392.013L414.366 411.464L418.781 428.356L408.136 440.822C418.821 450.487 420.178 460.605 414.366 471.07L380.35 478.86C380.35 478.86 191.216 495.672 207.156 466.381C224.572 434.377 229.007 339.86 190.559 289.352C157.918 246.473 182.978 190.832 182.978 190.832L260.404 167.701L288.882 150.798L357.408 150.798Z" fill="#00A3FF"/>
<path d="M342.183 2.07299C342.439 1.5302 342.852 1.07648 343.369 0.770093C343.885 0.463709 344.482 0.318648 345.081 0.353547C320.079 -1.14148 293.744 1.77156 272.828 15.5445C267.76 18.8813 262.983 22.8612 257.469 25.2818C257.208 25.3987 256.983 25.5809 256.814 25.8107C256.645 26.0405 256.538 26.3101 256.504 26.5933C256.47 26.8765 256.51 27.1636 256.62 27.4269C256.73 27.6902 256.906 27.9206 257.131 28.0957L257.736 28.5705C257.975 28.7578 258.158 29.0071 258.266 29.2911C258.373 29.5752 258.4 29.8831 258.344 30.1815C258.288 30.4799 258.152 30.7574 257.949 30.9836C257.747 31.2099 257.486 31.3763 257.196 31.4648C256.893 31.5571 256.623 31.734 256.417 31.9746C256.212 32.2152 256.079 32.5095 256.035 32.8229C255.992 33.1363 256.038 33.4557 256.17 33.7434C256.302 34.0312 256.513 34.2753 256.779 34.4471L261.42 37.4458C261.654 37.5942 261.846 37.7989 261.981 38.0411C262.115 38.2833 262.186 38.5553 262.187 38.8321C262.189 39.1089 262.121 39.3816 261.989 39.6253C261.858 39.869 261.667 40.0757 261.435 40.2267C261.042 40.4694 260.629 40.6786 260.201 40.8522C259.935 40.9523 259.698 41.1193 259.515 41.3371C259.332 41.5549 259.208 41.8162 259.155 42.0958C259.103 42.3754 259.123 42.6638 259.214 42.9334C259.305 43.2029 259.464 43.4444 259.676 43.6346C261.686 45.4233 263.227 47.6763 264.167 50.1972C265.714 54.2182 265.991 58.5974 266.253 62.8976C267.852 56.6929 274.625 53.0405 281.024 52.6694C287.423 52.2983 293.663 54.4088 299.89 55.9259C313.453 59.2207 327.54 59.7624 341.316 57.519C336.638 66.9036 340.584 78.0975 344.555 87.8023L357.408 82.2949C375.061 72.3336 362.765 114.471 356.165 120.256C369.641 124.926 404.91 73.0927 393.564 53.431C387.662 43.2033 391.852 30.012 380.248 20.3117C374.561 14.3269 363.206 16.9869 357.408 12.0129C355.127 10.0552 358.605 4.81759 355.469 3.67614C354.427 3.29702 342.355 1.69088 342.183 2.07299Z" fill="#2F2E41"/>
<path d="M249.68 172.985C239.659 217.459 213.957 321.298 187.881 343.015C186.228 344.576 184.245 345.746 182.079 346.44C90.4225 368.761 61.054 311.824 61.054 311.824C61.054 311.824 85.6167 299.858 86.2397 276.469L135.774 291.833L178.955 194.693L185.309 188.768L185.345 188.732L249.68 172.985Z" fill="#3F3D56"/>
<path d="M445.106 583.675C447.73 581.153 449.77 578.087 451.08 574.691C452.391 571.296 452.941 567.655 452.692 564.024C452.443 560.393 451.4 556.862 449.637 553.677C447.875 550.493 445.435 547.733 442.491 545.594L468.185 460.941L424.098 474.016L406.457 552.399C403.189 557.582 401.936 563.784 402.937 569.829C403.937 575.874 407.121 581.342 411.885 585.197C416.648 589.053 422.662 591.027 428.784 590.747C434.907 590.466 440.715 587.95 445.106 583.675Z" fill="#FFB8B8"/>
<path d="M421.589 199.441L441.954 204.176C441.954 204.176 526.13 367.896 505.846 399.091C485.561 430.287 460.712 533.567 460.712 533.567C460.712 533.567 423.959 526.263 409.916 507.546L435.631 385.054L409.106 282.109L421.589 199.441Z" fill="#00A3FF"/>
<path d="M35.224 442.559L35.9553 178.878C35.9761 173.542 38.1138 168.431 41.8993 164.668C45.6848 160.904 50.8091 158.796 56.1478 158.804L255.354 159.357C260.693 159.377 265.805 161.514 269.57 165.299C273.335 169.083 275.444 174.205 275.435 179.542L274.704 443.223C274.683 448.56 272.545 453.671 268.76 457.434C264.974 461.197 259.85 463.306 254.511 463.297L55.3049 462.745C49.9661 462.724 44.8537 460.587 41.0891 456.803C37.3245 453.019 35.2152 447.896 35.224 442.559Z" fill="#E6E6E6"/>
<path d="M50.7252 362.959L51.1953 193.441C51.2147 188.443 53.2167 183.656 56.762 180.132C60.3073 176.608 65.1063 174.633 70.1063 174.641L241.307 175.116C246.307 175.135 251.096 177.136 254.621 180.68C258.147 184.224 260.123 189.022 260.115 194.02L259.464 428.66C259.444 433.658 257.442 438.445 253.897 441.969C250.351 445.494 245.552 447.468 240.552 447.46L134.497 447.166C112.225 447.079 90.8976 438.165 75.1928 422.379C59.4881 406.592 50.6887 385.223 50.7252 362.959Z" fill="white"/>
<path d="M221.691 249.103H88.1976C86.0734 249.103 84.0361 248.26 82.534 246.758C81.0319 245.257 80.188 243.22 80.188 241.097C80.188 238.973 81.0319 236.937 82.534 235.435C84.0361 233.933 86.0734 233.09 88.1976 233.09H221.691C223.815 233.09 225.852 233.933 227.354 235.435C228.856 236.937 229.7 238.973 229.7 241.097C229.7 243.22 228.856 245.257 227.354 246.758C225.852 248.26 223.815 249.103 221.691 249.103Z" fill="#00A3FF"/>
<path d="M117.566 212.183H88.1976C86.0734 212.183 84.0361 211.34 82.534 209.838C81.0319 208.336 80.188 206.3 80.188 204.176C80.188 202.053 81.0319 200.016 82.534 198.515C84.0361 197.013 86.0734 196.17 88.1976 196.17H117.566C119.69 196.17 121.728 197.013 123.23 198.515C124.732 200.016 125.576 202.053 125.576 204.176C125.576 206.3 124.732 208.336 123.23 209.838C121.728 211.34 119.69 212.183 117.566 212.183Z" fill="#00A3FF"/>
<path d="M221.691 286.024H88.1976C86.0734 286.024 84.0361 285.18 82.534 283.679C81.0319 282.177 80.188 280.14 80.188 278.017C80.188 275.893 81.0319 273.857 82.534 272.355C84.0361 270.854 86.0734 270.01 88.1976 270.01H221.691C223.815 270.01 225.852 270.854 227.354 272.355C228.856 273.857 229.7 275.893 229.7 278.017C229.7 280.14 228.856 282.177 227.354 283.679C225.852 285.18 223.815 286.024 221.691 286.024Z" fill="#00A3FF"/>
<path d="M221.691 322.944H88.1976C86.0734 322.944 84.0361 322.1 82.534 320.599C81.0319 319.097 80.188 317.061 80.188 314.937C80.188 312.814 81.0319 310.777 82.534 309.276C84.0361 307.774 86.0734 306.93 88.1976 306.93H221.691C223.815 306.93 225.852 307.774 227.354 309.276C228.856 310.777 229.7 312.814 229.7 314.937C229.7 317.061 228.856 319.097 227.354 320.599C225.852 322.1 223.815 322.944 221.691 322.944Z" fill="#00A3FF"/>
<path d="M210.889 420.228C228.491 420.228 242.759 405.964 242.759 388.368C242.759 370.773 228.491 356.509 210.889 356.509C193.288 356.509 179.019 370.773 179.019 388.368C179.019 405.964 193.288 420.228 210.889 420.228Z" fill="#00A3FF"/>
<path d="M206.541 404.95C205.991 404.95 205.448 404.822 204.956 404.575C204.464 404.329 204.036 403.972 203.706 403.532L195.011 391.943C194.731 391.57 194.527 391.147 194.411 390.696C194.295 390.245 194.269 389.775 194.335 389.314C194.4 388.853 194.556 388.409 194.794 388.008C195.031 387.608 195.345 387.257 195.717 386.978C196.09 386.699 196.514 386.495 196.966 386.38C197.417 386.264 197.887 386.239 198.348 386.305C198.809 386.371 199.253 386.528 199.654 386.765C200.054 387.003 200.404 387.317 200.683 387.69L206.372 395.272L220.981 373.365C221.239 372.976 221.571 372.642 221.958 372.381C222.345 372.121 222.779 371.94 223.236 371.847C223.694 371.755 224.165 371.754 224.622 371.844C225.08 371.934 225.516 372.114 225.904 372.373C226.292 372.631 226.625 372.964 226.884 373.352C227.144 373.739 227.324 374.174 227.415 374.632C227.505 375.089 227.505 375.56 227.413 376.017C227.322 376.475 227.141 376.909 226.881 377.296L209.491 403.371C209.177 403.843 208.754 404.232 208.258 404.507C207.762 404.781 207.207 404.933 206.64 404.948C206.607 404.949 206.574 404.95 206.541 404.95Z" fill="white"/>
<path d="M142.93 97.4189C151.285 97.4189 158.059 90.6476 158.059 82.2949C158.059 73.9421 151.285 67.1709 142.93 67.1709C134.574 67.1709 127.801 73.9421 127.801 82.2949C127.801 90.6476 134.574 97.4189 142.93 97.4189Z" fill="#F2F2F2"/>
<path d="M87.7526 532.456C96.1083 532.456 102.882 525.684 102.882 517.332C102.882 508.979 96.1083 502.208 87.7526 502.208C79.397 502.208 72.6234 508.979 72.6234 517.332C72.6234 525.684 79.397 532.456 87.7526 532.456Z" fill="#F2F2F2"/>
<path d="M435.724 156.136C444.08 156.136 450.854 149.364 450.854 141.012C450.854 132.659 444.08 125.888 435.724 125.888C427.369 125.888 420.595 132.659 420.595 141.012C420.595 149.364 427.369 156.136 435.724 156.136Z" fill="#F2F2F2"/>
</g>
<defs>
<clipPath id="clip0_1_160">
<rect width="509" height="613" fill="white"/>
</clipPath>
</defs>
</svg>
