<svg width="16" height="16" viewBox="0 0 16 16" fill="none" xmlns="http://www.w3.org/2000/svg">
<path fill-rule="evenodd" clip-rule="evenodd" d="M6.09985 0.13612C4.81823 0.457636 2.99423 1.53542 2.10876 2.49451C1.65408 2.9871 0.993418 3.99815 0.641013 4.74088C0.0605569 5.96405 0 6.27404 0 8.02317C0 9.8461 0.0425315 10.0404 0.756456 11.4826C1.66744 13.3231 2.8401 14.4695 4.72304 15.36C5.94653 15.9387 6.26005 16 8 16C9.73995 16 10.0535 15.9387 11.277 15.36C13.1599 14.4695 14.3326 13.3231 15.2435 11.4826C15.9583 10.0388 16 9.84772 16 8.01265C16 6.17759 15.9583 5.9865 15.2435 4.54271C13.875 1.77787 11.4436 0.155533 8.45549 0.0135803C7.5923 -0.0274686 6.53225 0.0277351 6.09985 0.13612ZM8.81013 5.58612V7.20381H10.4304H12.0506V8.01265V8.8215H10.4304H8.81013V10.4392V12.0569H8H7.18987V10.4392V8.8215H5.56962H3.94937V8.01265V7.20381H5.56962H7.18987V5.58612V3.96843H8H8.81013V5.58612Z" fill="#00A3FF"/>
</svg>
