<svg width="433" height="789" viewBox="0 0 433 789" fill="none" xmlns="http://www.w3.org/2000/svg">
<rect width="277.684" height="793.756" transform="matrix(-0.996528 -0.0832581 -0.0832581 0.996528 251.116 23.825)" fill="#00A3FF"/>
<path d="M229.97 778.613H215.381L208.441 722.369L229.972 722.37L229.97 778.613Z" fill="#A0616A"/>
<path d="M233.69 773.853L204.962 773.851H204.96C200.105 773.852 195.448 775.78 192.015 779.212C188.581 782.644 186.652 787.298 186.652 792.152V792.746L233.69 792.748L233.69 773.853Z" fill="#2F2E41"/>
<path d="M133.603 778.613H119.015L112.075 722.369L133.605 722.37L133.603 778.613Z" fill="#A0616A"/>
<path d="M137.324 773.853L108.595 773.851H108.594C103.739 773.852 99.0821 775.78 95.6487 779.212C92.2153 782.644 90.2863 787.298 90.2859 792.152V792.746L137.323 792.748L137.324 773.853Z" fill="#2F2E41"/>
<path d="M242.184 766.416H204.394L180.241 555.017L135.833 766.416H110.335V514.329L231.565 478.063L242.184 766.416Z" fill="#2F2E41"/>
<path d="M177.75 292.061C159.55 292.061 144.795 277.313 144.795 259.12C144.795 240.927 159.55 226.179 177.75 226.179C195.951 226.179 210.705 240.927 210.705 259.12C210.705 277.313 195.951 292.061 177.75 292.061Z" fill="#A0616A"/>
<path d="M228.91 483.371C193.549 511.013 154.518 524.947 110.335 519.636C128.995 454.144 134.53 389.148 116.529 325.042L153.694 308.236L195.471 305.582L225.834 314.509C230.106 315.766 233.845 318.392 236.477 321.982C239.108 325.572 240.486 329.928 240.398 334.377C239.326 389.049 242.963 440.213 228.91 483.371Z" fill="#E6E6E6"/>
<path d="M209.291 242.555C206.12 236.576 202.092 224.659 195.693 222.449C192.139 221.271 188.467 220.489 184.741 220.117L173.864 224.298L179.784 219.696C178.632 219.628 177.48 219.572 176.328 219.528L168.99 222.349L172.744 219.43C165.903 219.36 158.84 220.071 153.539 224.235C149.02 227.784 144.542 241.229 143.818 246.928C143.044 252.38 143.315 257.929 144.616 263.28L146.475 265.046C147.125 263.556 147.614 262.001 147.933 260.407C148.599 257.429 149.879 254.622 151.69 252.165C153.502 249.708 155.806 247.656 158.455 246.139L158.556 246.082C161.673 244.328 165.455 244.409 169.03 244.537L186.006 245.148C190.091 245.295 194.489 245.553 197.673 248.114C199.824 249.844 201.113 252.397 202.338 254.869C203.92 258.061 207.013 270.102 207.013 270.102C207.013 270.102 208.762 267.829 209.6 269.521C210.945 265.107 211.762 260.55 212.036 255.944C212.303 251.318 211.357 246.703 209.291 242.555Z" fill="#2F2E41"/>
<path d="M315.599 728.25C317.282 717.404 320.565 706.868 325.341 696.986L326.038 695.546L331.209 701.278L327.377 692.74L327.628 692.245C331.009 685.554 334.757 679.054 338.854 672.776L339.613 671.613L340.627 672.736L339.917 671.155L340.273 670.622C345.347 663.014 349.245 658.203 349.283 658.155L350.386 656.799L351.095 658.416C351.225 658.712 364.108 688.387 365.815 717.711L365.842 718.168L357.171 728.645L366.014 723.096L365.998 725.11C365.971 728.557 365.737 731.998 365.296 735.416C364.906 738.357 364.448 741.227 363.921 744.028C363.085 744.054 362.272 744.308 361.569 744.761C362.18 741.632 362.707 738.415 363.15 735.111C363.491 732.474 363.706 729.795 363.792 727.123L346.688 737.858L363.626 717.392C362.084 692.599 352.512 667.621 349.825 661.028C348.382 662.898 345.662 666.527 342.407 671.376L348.324 684.561L339.888 675.211C336.231 680.902 332.863 686.772 329.795 692.801L338.906 713.103L326.587 699.449C322.285 708.697 319.307 718.506 317.74 728.584C315.584 744.864 316.005 760.502 318.926 772.619C321.723 784.227 326.653 791.362 332.452 792.196C333.646 792.36 334.86 792.288 336.026 791.983C336.96 792.647 338.085 792.99 339.232 792.961H339.548C337.749 793.959 335.732 794.501 333.675 794.538C333.167 794.538 332.659 794.501 332.156 794.429C325.338 793.45 319.893 785.899 316.825 773.169C313.839 760.777 313.402 744.834 315.599 728.25Z" fill="#00A3FF"/>
<path d="M334.681 793.682C343.6 793.682 356.458 788.778 369.213 779.851C371.09 778.526 372.882 777.086 374.58 775.537L376.008 774.233L370.607 772.678L377.799 772.415L378.102 772.097C391.583 757.985 399.972 738.051 400.055 737.852L400.711 736.277L399.006 736.354C398.837 736.362 394.784 736.553 388.694 737.417L388.314 737.47V737.467L386.979 737.67C382.005 738.426 377.078 739.461 372.221 740.77L371.703 740.911L370.082 744.901L370.328 741.322L368.841 741.751C361.795 743.784 355.102 746.886 348.997 750.948C329.601 764.524 318.868 781.492 324.542 789.59C326.481 792.359 330.051 793.681 334.681 793.682ZM371.65 775.231C370.465 776.234 369.232 777.188 367.968 778.079C350.203 790.514 331.129 795.217 326.316 788.35C321.505 781.482 332.451 765.172 350.218 752.736C355.699 749.091 361.671 746.243 367.954 744.278L366.994 758.258L373.304 742.721C377.46 741.619 381.712 740.712 385.968 740.02L385.271 750.166L389.614 739.473C392.979 739.011 395.692 738.761 397.342 738.633C395.093 743.571 387.659 758.82 376.838 770.284L356.991 771.01L371.65 775.231Z" fill="#00A3FF"/>
<path d="M208.184 504.965C208.191 503.315 208.561 501.686 209.266 500.193C209.972 498.701 210.996 497.381 212.267 496.327C213.538 495.273 215.025 494.511 216.623 494.094C218.221 493.676 219.89 493.614 221.515 493.911L241.292 458.994L249.452 475.713L230.551 507.871C229.871 510.566 228.225 512.917 225.925 514.48C223.626 516.042 220.833 516.707 218.076 516.349C215.319 515.991 212.789 514.634 210.966 512.536C209.143 510.438 208.153 507.744 208.184 504.965Z" fill="#A0616A"/>
<path d="M119.752 543.782C120.533 542.328 120.985 540.72 121.076 539.072C121.168 537.423 120.897 535.775 120.282 534.243C119.668 532.711 118.725 531.332 117.519 530.204C116.314 529.075 114.876 528.225 113.306 527.712L112.575 487.594L95.3728 499.388L98.7042 535.677C98.0174 538.37 98.3427 541.221 99.6185 543.691C100.894 546.16 103.032 548.076 105.627 549.075C108.221 550.074 111.092 550.087 113.695 549.111C116.299 548.136 118.454 546.24 119.752 543.782Z" fill="#A0616A"/>
<path d="M239.529 500.177L225.371 486.909L232.636 415.263L224.23 313.985C242.491 319.722 262.099 335.133 265.329 353.993L276.881 421.455L239.529 500.177Z" fill="#E6E6E6"/>
<path opacity="0.2" d="M231.309 376.786L242.813 422.781L225.371 488.049L236.619 426.319L231.309 376.786Z" fill="black"/>
<path d="M117.414 524.943L94.4068 527.597L99.7938 356.825C100.034 349.195 102.468 341.795 106.805 335.51C111.141 329.226 117.196 324.322 124.246 321.386L132.457 317.966L130.245 398.015L117.414 524.943Z" fill="#E6E6E6"/>
<path opacity="0.2" d="M126.028 400.631L117.148 499.188L132.185 401.318L126.028 400.631Z" fill="black"/>
<path d="M112 197C97.7598 197 83.8394 192.777 71.999 184.866C60.1587 176.954 50.9303 165.71 45.4808 152.553C40.0312 139.397 38.6053 124.92 41.3835 110.954C44.1616 96.9869 51.019 84.1578 61.0883 74.0884C71.1577 64.019 83.9868 57.1616 97.9535 54.3835C111.92 51.6054 126.397 53.0312 139.553 58.4807C152.709 63.9302 163.954 73.1586 171.866 84.9989C179.777 96.8392 184 110.76 184 125C183.978 144.089 176.386 162.39 162.888 175.888C149.39 189.386 131.089 196.978 112 197Z" fill="white"/>
<path d="M140.409 117.898H119.102V96.5907C119.099 94.7091 118.349 92.9056 117.018 91.5763C115.686 90.2469 113.882 89.5002 112 89.5002C110.118 89.5002 108.314 90.2469 106.982 91.5763C105.65 92.9056 104.901 94.7091 104.898 96.5907V117.898H83.5904C81.7088 117.901 79.9053 118.651 78.576 119.982C77.2466 121.314 76.5 123.119 76.5 125C76.5 126.882 77.2466 128.686 78.576 130.018C79.9053 131.35 81.7088 132.099 83.5904 132.102H104.898V153.41C104.901 155.291 105.65 157.095 106.982 158.424C108.314 159.753 110.118 160.5 112 160.5C113.882 160.5 115.686 159.753 117.018 158.424C118.349 157.095 119.099 155.291 119.102 153.41V132.102H140.409C141.343 132.105 142.267 131.923 143.13 131.568C143.993 131.212 144.777 130.69 145.439 130.032C146.1 129.373 146.625 128.59 146.983 127.729C147.342 126.867 147.527 125.943 147.528 125.01C147.53 124.077 147.347 123.152 146.991 122.29C146.635 121.427 146.112 120.643 145.453 119.983C144.793 119.322 144.01 118.798 143.148 118.44C142.286 118.083 141.362 117.898 140.429 117.898H140.409Z" fill="#00A3FF"/>
</svg>
