<svg width="436" height="324" viewBox="0 0 436 324" fill="none" xmlns="http://www.w3.org/2000/svg">
<path d="M436 21.3672V70.5765H434.704V70.052H1.29569V70.5765H0V21.3672C0.00556394 15.702 2.25976 10.2704 6.26788 6.26445C10.276 2.25852 15.7106 0.00556089 21.3789 0H414.621C420.289 0.00556089 425.724 2.25852 429.732 6.26445C433.74 10.2704 435.994 15.702 436 21.3672Z" fill="#00B0FF"/>
<path d="M414.621 0H21.3789C15.7106 0.00556089 10.276 2.25852 6.26788 6.26445C2.25976 10.2704 0.00556394 15.702 0 21.3672V302.378C0.00556394 308.043 2.25976 313.475 6.26788 317.481C10.276 321.487 15.7106 323.74 21.3789 323.745H414.621C420.289 323.74 425.724 321.487 429.732 317.481C433.74 313.475 435.994 308.043 436 302.378V21.3672C435.994 15.702 433.74 10.2704 429.732 6.26445C425.724 2.25852 420.289 0.00556089 414.621 0ZM434.704 302.378C434.698 307.7 432.579 312.801 428.815 316.564C425.05 320.327 419.945 322.444 414.621 322.45H21.3789C16.0546 322.444 10.9503 320.327 7.18542 316.564C3.42056 312.801 1.30248 307.7 1.29569 302.378V21.3672C1.30248 16.0458 3.42056 10.9443 7.18542 7.1815C10.9503 3.4187 16.0546 1.30177 21.3789 1.29498H414.621C419.945 1.30177 425.05 3.4187 428.815 7.1815C432.579 10.9443 434.698 16.0458 434.704 21.3672V302.378Z" fill="#F2F2F2"/>
<path d="M88.1063 48.238C95.2622 48.238 101.063 42.4402 101.063 35.2882C101.063 28.1362 95.2622 22.3384 88.1063 22.3384C80.9504 22.3384 75.1494 28.1362 75.1494 35.2882C75.1494 42.4402 80.9504 48.238 88.1063 48.238Z" fill="white"/>
<path d="M347.893 48.238C355.049 48.238 360.85 42.4402 360.85 35.2882C360.85 28.1362 355.049 22.3384 347.893 22.3384C340.738 22.3384 334.937 28.1362 334.937 35.2882C334.937 42.4402 340.738 48.238 347.893 48.238Z" fill="white"/>
<path d="M125.542 179.68H48.4639C45.1985 179.676 42.0679 178.378 39.759 176.07C37.45 173.763 36.1512 170.634 36.1475 167.37V130.96C36.1512 127.697 37.45 124.568 39.759 122.26C42.0679 119.952 45.1985 118.654 48.4639 118.65H125.542C128.808 118.654 131.938 119.952 134.247 122.26C136.556 124.568 137.855 127.697 137.859 130.96V167.37C137.855 170.634 136.556 173.763 134.247 176.07C131.938 178.378 128.808 179.676 125.542 179.68Z" fill="#00B0FF"/>
<path d="M256.665 179.68H179.587C176.322 179.676 173.191 178.378 170.882 176.07C168.573 173.763 167.274 170.634 167.271 167.37V130.96C167.274 127.697 168.573 124.568 170.882 122.26C173.191 119.952 176.322 118.654 179.587 118.65H256.665C259.931 118.654 263.061 119.952 265.37 122.26C267.679 124.568 268.978 127.697 268.982 130.96V167.37C268.978 170.634 267.679 173.763 265.37 176.07C263.061 178.378 259.931 179.676 256.665 179.68Z" fill="#00B0FF"/>
<path d="M256.665 273.755H179.587C176.223 273.751 172.997 272.414 170.618 270.036C168.239 267.658 166.901 264.435 166.897 261.072V224.662C166.901 221.299 168.239 218.075 170.618 215.698C172.997 213.32 176.223 211.983 179.587 211.979H256.665C260.03 211.983 263.255 213.32 265.634 215.698C268.013 218.075 269.351 221.299 269.355 224.662V261.072C269.351 264.435 268.013 267.658 265.634 270.036C263.255 272.414 260.03 273.751 256.665 273.755Z" fill="#F2F2F2"/>
<path d="M125.289 273.755H48.2112C44.8468 273.751 41.6213 272.414 39.2424 270.036C36.8634 267.658 35.5253 264.435 35.5215 261.072V224.662C35.5253 221.299 36.8634 218.075 39.2424 215.698C41.6213 213.32 44.8468 211.983 48.2112 211.979H125.289C128.654 211.983 131.879 213.32 134.258 215.698C136.637 218.075 137.975 221.299 137.979 224.662V261.072C137.975 264.435 136.637 267.658 134.258 270.036C131.879 272.414 128.654 273.751 125.289 273.755Z" fill="#F2F2F2"/>
<path d="M387.788 273.755H310.71C307.346 273.751 304.12 272.414 301.741 270.036C299.362 267.658 298.024 264.435 298.021 261.072V224.662C298.024 221.299 299.362 218.075 301.741 215.698C304.12 213.32 307.346 211.983 310.71 211.979H387.788C391.153 211.983 394.378 213.32 396.757 215.698C399.136 218.075 400.474 221.299 400.478 224.662V261.072C400.474 264.435 399.136 267.658 396.757 270.036C394.378 272.414 391.153 273.751 387.788 273.755Z" fill="#F2F2F2"/>
<path d="M387.788 179.753H310.71C307.346 179.749 304.12 178.412 301.741 176.034C299.362 173.657 298.024 170.433 298.021 167.07V130.66C298.024 127.297 299.362 124.074 301.741 121.696C304.12 119.318 307.346 117.981 310.71 117.977H387.788C391.153 117.981 394.378 119.318 396.757 121.696C399.136 124.074 400.474 127.297 400.478 130.66V167.07C400.474 170.433 399.136 173.657 396.757 176.034C394.378 178.412 391.153 179.749 387.788 179.753Z" fill="#F2F2F2"/>
<path d="M87.0032 170.054C98.5464 170.054 107.904 160.702 107.904 149.165C107.904 137.628 98.5464 128.276 87.0032 128.276C75.4601 128.276 66.1025 137.628 66.1025 149.165C66.1025 160.702 75.4601 170.054 87.0032 170.054Z" fill="white"/>
<path d="M84.931 157.134C84.4608 157.135 84.003 156.983 83.6268 156.701L83.6035 156.683L78.6917 152.925C78.4639 152.751 78.2726 152.534 78.1289 152.286C77.9852 152.038 77.8917 151.764 77.854 151.48C77.8162 151.195 77.8348 150.907 77.9088 150.63C77.9827 150.353 78.1106 150.093 78.285 149.866C78.4594 149.638 78.6769 149.447 78.9252 149.304C79.1735 149.161 79.4476 149.067 79.7319 149.03C80.0162 148.993 80.3051 149.011 80.582 149.086C80.859 149.16 81.1186 149.288 81.3461 149.462L84.5276 151.901L92.046 142.101C92.2203 141.874 92.4378 141.683 92.6859 141.54C92.934 141.396 93.208 141.303 93.4921 141.266C93.7762 141.228 94.0649 141.247 94.3417 141.321C94.6186 141.395 94.8781 141.523 95.1055 141.697L95.0588 141.761L95.1067 141.698C95.5654 142.051 95.8656 142.57 95.9413 143.144C96.017 143.717 95.8621 144.297 95.5106 144.756L86.6672 156.283C86.4626 156.548 86.1996 156.763 85.8985 156.911C85.5975 157.059 85.2664 157.135 84.931 157.134Z" fill="#00B0FF"/>
<path d="M218.499 169.754C230.042 169.754 239.4 160.402 239.4 148.865C239.4 137.328 230.042 127.976 218.499 127.976C206.956 127.976 197.599 137.328 197.599 148.865C197.599 160.402 206.956 169.754 218.499 169.754Z" fill="white"/>
<path d="M216.428 156.834C215.958 156.835 215.5 156.683 215.124 156.401L215.101 156.384L210.189 152.625C209.73 152.273 209.429 151.753 209.353 151.18C209.277 150.606 209.432 150.026 209.784 149.567C210.136 149.108 210.656 148.807 211.23 148.732C211.804 148.656 212.384 148.811 212.843 149.162L216.025 151.601L223.543 141.801C223.718 141.574 223.935 141.383 224.183 141.24C224.431 141.096 224.705 141.003 224.989 140.966C225.274 140.928 225.562 140.947 225.839 141.021C226.116 141.095 226.375 141.223 226.603 141.397L226.556 141.461L226.604 141.398C227.063 141.751 227.363 142.27 227.439 142.844C227.514 143.417 227.359 143.997 227.008 144.456L218.164 155.983C217.96 156.249 217.697 156.463 217.396 156.611C217.095 156.759 216.764 156.835 216.428 156.834Z" fill="#00B0FF"/>
</svg>
