<svg width="614" height="698" viewBox="0 0 614 698" fill="none" xmlns="http://www.w3.org/2000/svg">
<g clip-path="url(#clip0_55_31)">
<path d="M294.343 654.212L293.562 636.636C293.48 636.593 293.399 636.55 293.318 636.507C284.941 632.112 275.342 640.068 278.017 649.141C280.534 657.678 282.226 666.881 286.833 674.353C289.556 678.693 293.22 682.364 297.554 685.096C301.888 687.827 306.782 689.548 311.872 690.131L322.513 696.647C323.974 688.506 323.652 680.146 321.57 672.142C319.488 664.138 315.695 656.68 310.454 650.283C307.478 646.723 304.065 643.553 300.297 640.846C297.748 647.566 294.343 654.212 294.343 654.212Z" fill="#F2F2F2"/>
<path d="M199.067 475.844C178.579 454.715 148.89 442.597 117.611 442.597L116.404 442.601C95.8015 442.608 75.5665 437.144 57.7687 426.766L55.9166 425.687L57.4083 424.15C65.4839 415.795 72.227 406.248 77.4015 395.843C73.7265 399.27 69.3433 401.846 64.5622 403.391C59.7811 404.935 54.7189 405.41 49.7339 404.781C44.4711 404.154 39.4186 402.343 34.9555 399.484C30.4924 396.626 26.7345 392.793 23.9638 388.275C13.0315 370.537 0 345.369 0 326.195C0.0170178 309.988 3.41039 293.963 9.96384 279.14C16.5173 264.318 26.087 251.023 38.0631 240.104C45.645 233.267 51.701 224.91 55.8362 215.576C59.9715 206.242 62.0931 196.141 62.0629 185.932L62.0568 184.48C62.0548 171.039 63.6973 157.649 66.9476 144.607L67.2777 143.29L68.6327 143.337C77.3705 143.635 86.113 142.902 94.6795 141.155C86.6441 140.17 78.7833 138.079 71.3199 134.942L69.8623 134.352L70.357 132.859C104.458 111.745 181.434 122.679 226.114 20.4552C262.342 -62.434 390.17 94.0361 390.17 184.48C390.17 193.708 381.037 205.904 387.874 212.004C461.784 277.942 410.787 320.283 394.708 362.889C390.894 372.998 399.165 384.095 399.165 395.031C399.165 396.887 399.118 398.803 399.024 400.725L398.882 403.68L396.418 402.04C391.543 398.846 387.024 395.14 382.938 390.983C387.177 400.737 389.174 411.318 388.784 421.945C388.393 432.573 385.625 442.978 380.682 452.395C372.936 467.014 365.443 477.48 358.41 483.5C335.881 502.78 306.837 512.725 277.219 511.302C247.601 509.879 219.645 497.195 199.067 475.844Z" fill="#E6E6E6"/>
<path d="M322.808 695.78C323.312 695.779 323.799 695.597 324.179 695.267C324.559 694.936 324.807 694.48 324.878 693.981C324.967 693.356 333.679 630.527 325.855 547.025C318.629 469.909 295.425 358.834 225.916 267.61C225.749 267.391 225.541 267.207 225.303 267.069C225.066 266.93 224.803 266.84 224.53 266.803C224.258 266.766 223.98 266.783 223.714 266.853C223.448 266.923 223.199 267.045 222.98 267.212C222.761 267.379 222.577 267.587 222.439 267.825C222.301 268.063 222.211 268.326 222.174 268.598C222.137 268.871 222.155 269.148 222.225 269.414C222.296 269.68 222.418 269.93 222.585 270.148C291.495 360.584 314.512 470.844 321.686 547.416C329.465 630.432 320.821 692.771 320.733 693.391C320.691 693.688 320.713 693.991 320.799 694.278C320.884 694.566 321.029 694.832 321.226 695.059C321.423 695.285 321.666 695.467 321.939 695.591C322.212 695.715 322.508 695.78 322.808 695.78Z" fill="#3F3D56"/>
<path d="M266.083 396.286C266.526 396.286 266.957 396.146 267.314 395.887C267.672 395.627 267.939 395.261 268.076 394.84C268.213 394.42 268.213 393.967 268.076 393.546C267.94 393.125 267.674 392.759 267.316 392.499C267.064 392.316 241.635 373.993 203.619 360.074C168.477 347.208 115.037 335.544 60.0222 353.054C59.7599 353.137 59.5165 353.271 59.3059 353.448C59.0954 353.625 58.9219 353.842 58.7952 354.086C58.6686 354.33 58.5915 354.597 58.5681 354.872C58.5447 355.146 58.5757 355.422 58.6591 355.684C58.7426 355.946 58.8769 356.189 59.0544 356.4C59.2319 356.61 59.4492 356.783 59.6937 356.909C59.9382 357.035 60.2052 357.112 60.4795 357.135C60.7537 357.158 61.0297 357.127 61.2918 357.043C115.18 339.893 167.65 351.364 202.18 364.006C239.653 377.726 264.607 395.706 264.854 395.886C265.211 396.146 265.642 396.286 266.083 396.286Z" fill="#3F3D56"/>
<path d="M361.896 157.653C361.928 157.212 361.82 156.772 361.586 156.397C361.353 156.021 361.007 155.729 360.597 155.562C360.188 155.395 359.736 155.363 359.307 155.468C358.877 155.574 358.493 155.813 358.208 156.151C358.007 156.39 337.901 180.433 321.28 217.348C305.916 251.472 290.434 303.933 303.936 360.066C304.066 360.606 304.405 361.072 304.878 361.362C305.352 361.652 305.921 361.742 306.461 361.612C307.001 361.482 307.467 361.143 307.757 360.67C308.047 360.196 308.136 359.627 308.007 359.087C294.782 304.104 310.002 252.596 325.098 219.067C341.481 182.679 361.211 159.085 361.408 158.85C361.693 158.513 361.864 158.094 361.896 157.653Z" fill="#3F3D56"/>
<path d="M359.063 265.597C360.829 279.848 370.704 291.597 385.063 291.597C391.959 291.597 398.572 288.858 403.448 283.982C408.324 279.106 411.063 272.493 411.063 265.597C411.063 251.238 399.361 240.925 385.063 239.597C369.892 238.189 356.796 247.302 359.063 265.597Z" fill="#2F2E41"/>
<path d="M397.105 684.328L407.006 684.327L411.716 646.137L397.103 646.138L397.105 684.328Z" fill="#FFB6B6"/>
<path d="M396.757 694.656L427.204 694.655V694.27C427.204 691.127 425.955 688.113 423.733 685.891C421.511 683.668 418.496 682.42 415.354 682.42L409.791 678.2L399.415 682.42L396.757 682.42L396.757 694.656Z" fill="#2F2E41"/>
<path d="M358.105 684.328L368.006 684.327L372.716 646.137L358.103 646.138L358.105 684.328Z" fill="#FFB6B6"/>
<path d="M357.757 694.656L388.204 694.655V694.27C388.204 691.127 386.955 688.113 384.733 685.891C382.511 683.668 379.496 682.42 376.354 682.42L370.791 678.2L360.415 682.42L357.757 682.42L357.757 694.656Z" fill="#2F2E41"/>
<path d="M431.177 445.137L438.177 469.137L429.931 570.782C429.931 570.782 434.177 577.137 431.177 577.137C428.177 577.137 424.33 578.546 426.754 582.341C429.177 586.137 420.894 599.762 420.894 599.762L409.177 672.137L394.248 671.916C394.248 671.916 386.658 667.688 390.917 663.412C395.177 659.137 398.177 659.137 394.177 655.137C390.177 651.137 390.177 652.341 390.177 649.239C390.177 646.137 386.17 608.223 395.673 593.68L392.81 534.385L386.065 592.546L372.177 670.137L357.795 670.018C357.795 670.018 351.153 663.616 351.165 658.876C351.177 654.137 355.269 653.743 352.223 650.94C349.177 648.137 349.177 605.074 358.177 581.137C358.177 581.137 363.268 567.763 358.166 563.18C353.063 558.597 358.159 553.354 358.159 553.354C358.159 553.354 366.241 550.432 358.152 542.015C350.063 533.597 358.108 474.066 358.108 474.066C358.108 474.066 349.266 450.035 358.221 440.586C367.177 431.137 431.177 445.137 431.177 445.137Z" fill="#2F2E41"/>
<path d="M306.502 486.486L318.991 456.304L328.831 461.771L322.889 492.474C323.484 494.419 323.525 496.492 323.007 498.459C322.488 500.426 321.432 502.209 319.956 503.609C318.479 505.008 316.642 505.968 314.65 506.38C312.658 506.793 310.591 506.642 308.68 505.944C306.769 505.245 305.091 504.028 303.835 502.429C302.578 500.829 301.792 498.911 301.566 496.889C301.34 494.868 301.682 492.823 302.554 490.985C303.426 489.148 304.793 487.59 306.502 486.486Z" fill="#FFB6B6"/>
<path d="M516.077 247.816L497.074 274.383L488.729 266.829L501.473 238.271C501.334 236.242 501.764 234.214 502.715 232.415C503.665 230.617 505.098 229.119 506.853 228.09C508.608 227.062 510.615 226.543 512.649 226.593C514.682 226.642 516.662 227.258 518.364 228.371C520.067 229.484 521.426 231.05 522.287 232.892C523.149 234.735 523.48 236.781 523.242 238.802C523.004 240.822 522.208 242.736 520.942 244.328C519.676 245.921 517.992 247.128 516.077 247.816Z" fill="#FFB6B6"/>
<path d="M433.062 447.597C445.388 466.716 383.431 490.978 359.658 481.237C355.495 479.532 341.176 473.898 350.964 466.088C360.751 458.277 349.829 457.178 349.571 452.094C349.398 448.695 352.03 441.238 349.284 441.558C346.538 441.877 343.324 437.177 349.304 435.154C355.285 433.131 349.368 431.286 349.421 429.366C349.993 408.41 366.071 375.079 366.071 375.079L337.1 449.136C337.1 449.136 337.314 461.948 333.619 458.033C329.925 454.117 330.194 466.789 330.194 466.789C330.194 466.789 324.7 470.623 327.859 472.757C331.018 474.891 324.458 481.451 324.458 481.451L309.151 480.357C309.151 480.357 309.391 468.987 312.005 466.472C314.618 463.957 313.334 460.001 313.334 460.001C313.334 460.001 320.139 453.977 315.577 449.086C309.71 442.796 331.101 336.556 338.483 337.609C339.527 332.529 341.955 327.837 345.499 324.051C349.042 320.266 353.564 317.533 358.563 316.157L375.096 311.605L378.031 299.958H401.31L405.365 307.611L423.062 315.597C426.396 310.894 428.887 305.938 442.538 304.331C442.538 304.331 479.321 270.864 477.525 268.251C475.729 265.638 481.431 259.52 481.431 259.52C481.431 259.52 486.3 257.926 483.552 257.075C480.805 256.224 485.998 254.257 485.998 254.257C485.998 254.257 490.809 252.993 488.54 251.329C486.271 249.664 496.111 248.571 496.111 248.571L508.878 258.988L506.298 263.363C506.298 263.363 507.871 269.321 505.818 267.146C503.765 264.971 503.378 271.283 503.378 271.283C503.378 271.283 502.329 278.195 496.111 280.278C489.893 282.36 485.178 302.144 485.178 302.144C470.513 321.211 453.207 336.086 432.698 345.877C440.691 355.052 433.062 447.597 433.062 447.597Z" fill="#00B0FF"/>
<path d="M387.937 293.141C400.67 293.141 410.992 282.819 410.992 270.086C410.992 257.352 400.67 247.03 387.937 247.03C375.203 247.03 364.881 257.352 364.881 270.086C364.881 282.819 375.203 293.141 387.937 293.141Z" fill="#FFB6B6"/>
<path d="M364.063 272.597C364.793 277.607 369.063 284.597 368.063 284.597C367.063 284.597 359.953 263.944 367.063 262.597C372.22 261.621 373.373 262.477 378.193 260.387L377.513 261.027C380.703 263.347 385.143 261.917 388.783 260.407C392.433 258.907 396.863 257.477 400.063 259.787C402.073 261.237 402.923 263.757 404.173 265.897C405.423 268.047 407.733 270.077 410.113 269.417C412.023 268.887 413.123 266.747 413.113 264.767C413.103 262.787 410.525 260.904 411.393 259.127C413.966 253.863 411.652 250.275 406.043 247.797C404.003 247.487 401.963 247.171 399.923 246.847C400.992 245.367 402.288 244.064 403.763 242.987C403.14 241.39 402.062 240.009 400.663 239.017C399.033 238.047 397.013 238.117 395.123 238.217C390.903 238.437 386.686 238.657 382.473 238.877C379.353 239.037 376.123 239.227 373.333 240.657C369.853 242.447 367.573 245.937 365.913 249.487C362.193 257.467 362.783 263.887 364.063 272.597Z" fill="#2F2E41"/>
<path d="M186.142 593.463C186.56 590.59 183.551 587.774 179.421 587.173C175.291 586.572 171.605 588.414 171.187 591.287C170.769 594.16 173.778 596.976 177.908 597.577C182.038 598.178 185.724 596.336 186.142 593.463Z" fill="#E6E6E6"/>
<path d="M235.314 588.665C235.732 585.792 232.723 582.976 228.593 582.375C224.463 581.774 220.776 583.616 220.358 586.489C219.94 589.362 222.95 592.178 227.079 592.779C231.209 593.38 234.896 591.538 235.314 588.665Z" fill="#3F3D56"/>
<path d="M172.678 553.655C173.096 550.782 170.086 547.966 165.957 547.365C161.827 546.764 158.14 548.606 157.722 551.479C157.304 554.352 160.313 557.168 164.443 557.769C168.573 558.37 172.26 556.528 172.678 553.655Z" fill="#00A3FF"/>
<path d="M151.311 537.349C151.331 534.711 149.86 532.562 148.025 532.548C146.191 532.534 144.687 534.661 144.667 537.298C144.647 539.936 146.118 542.085 147.953 542.099C149.788 542.113 151.291 539.986 151.311 537.349Z" fill="#E6E6E6"/>
<path d="M144.066 506.977C144.086 504.34 142.615 502.19 140.78 502.176C138.945 502.162 137.442 504.289 137.422 506.927C137.402 509.564 138.873 511.714 140.708 511.728C142.543 511.742 144.046 509.615 144.066 506.977Z" fill="#3F3D56"/>
<path d="M200.411 560.429C200.431 557.791 198.96 555.642 197.125 555.628C195.29 555.614 193.787 557.741 193.767 560.379C193.747 563.016 195.218 565.166 197.053 565.18C198.888 565.193 200.391 563.067 200.411 560.429Z" fill="#E6E6E6"/>
<path d="M176.649 572.293C176.669 569.655 175.198 567.506 173.363 567.492C171.528 567.478 170.025 569.605 170.005 572.243C169.985 574.88 171.456 577.03 173.291 577.044C175.126 577.057 176.629 574.931 176.649 572.293Z" fill="#00A3FF"/>
<path d="M209.726 594.221C209.746 591.583 208.275 589.434 206.44 589.42C204.606 589.406 203.102 591.533 203.082 594.17C203.062 596.808 204.533 598.957 206.368 598.971C208.203 598.985 209.706 596.858 209.726 594.221Z" fill="#3F3D56"/>
<path d="M564.142 439.463C564.56 436.59 561.551 433.774 557.421 433.173C553.291 432.572 549.605 434.414 549.187 437.287C548.769 440.16 551.778 442.976 555.908 443.577C560.038 444.178 563.724 442.336 564.142 439.463Z" fill="#E6E6E6"/>
<path d="M613.314 434.665C613.732 431.792 610.723 428.976 606.593 428.375C602.463 427.774 598.776 429.616 598.358 432.489C597.94 435.362 600.95 438.178 605.079 438.779C609.209 439.38 612.896 437.538 613.314 434.665Z" fill="#3F3D56"/>
<path d="M550.678 399.655C551.096 396.782 548.086 393.966 543.957 393.365C539.827 392.764 536.14 394.606 535.722 397.479C535.304 400.352 538.313 403.168 542.443 403.769C546.573 404.37 550.26 402.528 550.678 399.655Z" fill="#00A3FF"/>
<path d="M529.311 383.349C529.331 380.711 527.86 378.562 526.025 378.548C524.19 378.534 522.687 380.661 522.667 383.298C522.647 385.936 524.118 388.085 525.953 388.099C527.788 388.113 529.291 385.986 529.311 383.349Z" fill="#E6E6E6"/>
<path d="M522.066 352.977C522.086 350.34 520.615 348.19 518.78 348.176C516.945 348.162 515.442 350.289 515.422 352.927C515.402 355.564 516.873 357.714 518.708 357.728C520.543 357.741 522.046 355.615 522.066 352.977Z" fill="#3F3D56"/>
<path d="M578.411 406.429C578.431 403.791 576.96 401.642 575.125 401.628C573.29 401.614 571.787 403.741 571.767 406.379C571.747 409.016 573.218 411.166 575.053 411.18C576.887 411.193 578.391 409.067 578.411 406.429Z" fill="#E6E6E6"/>
<path d="M554.649 418.293C554.669 415.655 553.198 413.506 551.363 413.492C549.528 413.478 548.025 415.605 548.005 418.243C547.985 420.88 549.456 423.03 551.291 423.043C553.126 423.057 554.629 420.93 554.649 418.293Z" fill="#00A3FF"/>
<path d="M587.726 440.221C587.746 437.583 586.275 435.434 584.44 435.42C582.606 435.406 581.102 437.533 581.082 440.17C581.062 442.808 582.533 444.957 584.368 444.971C586.203 444.985 587.706 442.858 587.726 440.221Z" fill="#3F3D56"/>
<path d="M381.142 154.463C381.56 151.59 378.551 148.774 374.421 148.173C370.291 147.572 366.605 149.414 366.187 152.287C365.769 155.16 368.778 157.976 372.908 158.577C377.038 159.178 380.724 157.336 381.142 154.463Z" fill="white"/>
<path d="M430.314 149.665C430.732 146.792 427.723 143.976 423.593 143.375C419.463 142.774 415.776 144.616 415.358 147.489C414.94 150.362 417.95 153.178 422.079 153.779C426.209 154.38 429.896 152.538 430.314 149.665Z" fill="#3F3D56"/>
<path d="M367.678 114.655C368.096 111.782 365.086 108.966 360.957 108.365C356.827 107.764 353.14 109.606 352.722 112.479C352.304 115.352 355.313 118.168 359.443 118.769C363.573 119.37 367.26 117.528 367.678 114.655Z" fill="#00A3FF"/>
<path d="M346.311 98.3487C346.331 95.7111 344.86 93.5617 343.025 93.5479C341.19 93.534 339.687 95.6609 339.667 98.2984C339.647 100.936 341.118 103.085 342.953 103.099C344.788 103.113 346.291 100.986 346.311 98.3487Z" fill="#E6E6E6"/>
<path d="M339.066 67.977C339.086 65.3395 337.615 63.1901 335.78 63.1762C333.945 63.1624 332.442 65.2893 332.422 67.9268C332.402 70.5643 333.873 72.7137 335.708 72.7276C337.543 72.7415 339.046 70.6146 339.066 67.977Z" fill="#3F3D56"/>
<path d="M395.411 121.429C395.431 118.791 393.96 116.642 392.125 116.628C390.29 116.614 388.787 118.741 388.767 121.379C388.747 124.016 390.218 126.166 392.053 126.18C393.887 126.193 395.391 124.067 395.411 121.429Z" fill="#E6E6E6"/>
<path d="M371.649 133.293C371.669 130.655 370.198 128.506 368.363 128.492C366.528 128.478 365.025 130.605 365.005 133.243C364.985 135.88 366.456 138.03 368.291 138.043C370.126 138.057 371.629 135.93 371.649 133.293Z" fill="#00A3FF"/>
<path d="M404.726 155.221C404.746 152.583 403.275 150.434 401.44 150.42C399.606 150.406 398.102 152.533 398.082 155.17C398.062 157.808 399.533 159.957 401.368 159.971C403.203 159.985 404.706 157.858 404.726 155.221Z" fill="#3F3D56"/>
</g>
<defs>
<clipPath id="clip0_55_31">
<rect width="613.353" height="700.561" fill="white" transform="translate(0 -3)"/>
</clipPath>
</defs>
</svg>
