<svg width="509" height="476" viewBox="0 0 509 476" fill="none" xmlns="http://www.w3.org/2000/svg">
<g clip-path="url(#clip0_1_111)">
<path d="M470.521 364.154L493.355 367.722C501.085 358.365 506.413 347.263 508.877 335.379C492.18 349.045 466.789 341.783 446.543 349.244C440.247 351.619 434.565 355.381 429.92 360.25C425.275 365.119 421.785 370.971 419.71 377.372L408.55 389.376C418.652 393.375 429.5 395.136 440.348 394.539C451.196 393.942 461.785 391 471.386 385.917C476.744 383.012 481.715 379.444 486.182 375.297C478.192 370.267 470.521 364.154 470.521 364.154Z" fill="#F2F2F2"/>
<path d="M462.415 327.639L484.444 320.651C487.189 308.829 487.006 296.516 483.911 284.781C475.062 304.458 449.097 309.281 434.303 324.986C429.727 329.92 426.32 335.821 424.334 342.25C422.348 348.679 421.835 355.473 422.833 362.128L418.199 377.849C429.024 376.923 439.519 373.662 448.962 368.29C458.405 362.919 466.571 355.564 472.897 346.733C476.397 341.743 479.255 336.333 481.403 330.63C472.008 329.69 462.415 327.639 462.415 327.639Z" fill="#F2F2F2"/>
<path d="M509 396.648C509 396.766 508.977 396.883 508.932 396.992C508.888 397.101 508.822 397.2 508.738 397.283C508.655 397.366 508.556 397.432 508.447 397.477C508.338 397.522 508.221 397.545 508.104 397.545H0.896483C0.658727 397.545 0.430707 397.45 0.262588 397.282C0.0944697 397.114 2.28882e-05 396.886 2.28882e-05 396.648C2.28882e-05 396.411 0.0944697 396.183 0.262588 396.015C0.430707 395.846 0.658727 395.752 0.896483 395.752H508.104C508.221 395.752 508.338 395.775 508.447 395.82C508.556 395.865 508.655 395.931 508.738 396.014C508.822 396.097 508.888 396.196 508.932 396.305C508.977 396.414 509 396.531 509 396.648Z" fill="#CCCCCC"/>
<path d="M210.176 358.435C299.627 358.435 372.141 285.931 372.141 196.491C372.141 107.052 299.627 34.5475 210.176 34.5475C120.725 34.5475 48.2112 107.052 48.2112 196.491C48.2112 285.931 120.725 358.435 210.176 358.435Z" fill="#E6E6E6"/>
<path d="M349.542 196.491C349.558 218.235 344.478 239.679 334.71 259.105C324.941 278.531 310.756 295.398 293.291 308.353C292.123 309.227 290.933 310.078 289.735 310.907C266.381 327.139 238.619 335.839 210.176 335.839C181.734 335.839 153.972 327.139 130.618 310.907C129.42 310.078 128.229 309.227 127.062 308.353C109.609 295.387 95.4325 278.518 85.6652 259.094C75.898 239.671 70.811 218.232 70.811 196.491C70.811 174.751 75.898 153.312 85.6652 133.889C95.4325 114.465 109.609 97.596 127.062 84.6296C128.229 83.7558 129.42 82.9047 130.618 82.0761C153.972 65.8442 181.734 57.1443 210.176 57.1443C238.619 57.1443 266.381 65.8442 289.735 82.0761C290.933 82.9047 292.123 83.7558 293.291 84.6296C310.756 97.5846 324.941 114.451 334.71 133.878C344.478 153.304 349.558 174.748 349.542 196.491Z" fill="white"/>
<path d="M210.176 323.787C280.489 323.787 337.488 266.795 337.488 196.491C337.488 126.188 280.489 69.1959 210.176 69.1959C139.864 69.1959 82.8642 126.188 82.8642 196.491C82.8642 266.795 139.864 323.787 210.176 323.787Z" fill="#00A3FF"/>
<path opacity="0.2" d="M210.508 69.5518C208.578 69.5518 206.66 69.6022 204.751 69.6872C236.929 72.5144 266.828 87.4656 288.392 111.512C309.956 135.558 321.572 166.901 320.887 199.191C320.201 231.481 307.266 262.303 284.701 285.413C262.136 308.523 231.629 322.192 199.36 323.651C203.035 323.97 206.751 324.143 210.508 324.143C244.274 324.143 276.656 310.731 300.532 286.859C324.407 262.986 337.821 230.608 337.821 196.847C337.821 163.086 324.407 130.708 300.532 106.836C276.656 82.9632 244.274 69.5518 210.508 69.5518Z" fill="black"/>
<path d="M210.553 60.1572C209.455 60.1592 208.402 60.5962 207.625 61.3727C206.849 62.1492 206.412 63.2018 206.41 64.3V82.3774C206.41 83.4762 206.846 84.5299 207.623 85.3068C208.4 86.0837 209.454 86.5202 210.553 86.5202C211.652 86.5202 212.706 86.0837 213.483 85.3068C214.26 84.5299 214.696 83.4762 214.696 82.3774V64.3C214.694 63.2018 214.257 62.1492 213.481 61.3727C212.704 60.5962 211.651 60.1592 210.553 60.1572Z" fill="white"/>
<path d="M293.291 84.6296C292.123 83.7558 290.933 82.9047 289.735 82.0762C289.016 82.0293 288.298 82.1707 287.651 82.4864C287.003 82.8021 286.449 83.2812 286.044 83.8764L275.866 98.8129C275.248 99.7208 275.016 100.837 275.221 101.916C275.425 102.996 276.051 103.949 276.959 104.568C277.867 105.186 278.983 105.418 280.063 105.213C281.142 105.008 282.096 104.383 282.714 103.475L292.892 88.5388C293.279 87.9722 293.518 87.3177 293.588 86.6349C293.658 85.9522 293.556 85.2628 293.291 84.6296Z" fill="white"/>
<path d="M339.53 152.736C339.325 152.233 339.023 151.774 338.642 151.388C338.26 151.001 337.805 150.693 337.304 150.482C336.804 150.27 336.266 150.16 335.722 150.156C335.179 150.153 334.64 150.257 334.136 150.462L317.382 157.263C316.365 157.678 315.554 158.478 315.128 159.49C314.701 160.502 314.694 161.642 315.107 162.659C315.52 163.676 316.321 164.488 317.332 164.915C318.343 165.343 319.483 165.351 320.501 164.939L337.255 158.137C338.271 157.721 339.082 156.919 339.508 155.907C339.934 154.894 339.942 153.754 339.53 152.736Z" fill="white"/>
<path d="M144.486 98.8129L134.309 83.8764C133.903 83.2812 133.349 82.8021 132.702 82.4864C132.055 82.1707 131.336 82.0293 130.618 82.0762C129.42 82.9047 128.229 83.7559 127.062 84.6296C126.797 85.2628 126.695 85.9522 126.765 86.6349C126.834 87.3177 127.074 87.9722 127.461 88.5388L137.639 103.475C138.257 104.383 139.211 105.008 140.29 105.213C141.369 105.418 142.486 105.186 143.394 104.568C144.302 103.949 144.927 102.996 145.132 101.916C145.337 100.837 145.105 99.7208 144.486 98.8129Z" fill="white"/>
<path d="M102.97 157.263L86.2165 150.462C85.1986 150.048 84.0582 150.056 83.0461 150.484C82.034 150.911 81.2331 151.723 80.8196 152.74C80.4061 153.758 80.4138 154.898 80.841 155.91C81.2682 156.922 82.08 157.723 83.0977 158.137L99.8517 164.939C100.869 165.351 102.009 165.343 103.021 164.915C104.032 164.487 104.832 163.676 105.246 162.659C105.659 161.642 105.652 160.502 105.225 159.49C104.798 158.478 103.987 157.678 102.97 157.263Z" fill="white"/>
<path d="M210.553 306.463C209.455 306.465 208.402 306.902 207.625 307.678C206.849 308.455 206.412 309.507 206.41 310.606V328.683C206.41 329.782 206.846 330.835 207.623 331.612C208.4 332.389 209.454 332.826 210.553 332.826C211.652 332.826 212.706 332.389 213.483 331.612C214.26 330.835 214.696 329.782 214.696 328.683V310.606C214.694 309.507 214.257 308.455 213.481 307.678C212.704 306.902 211.651 306.465 210.553 306.463Z" fill="white"/>
<path d="M292.892 304.444L282.714 289.508C282.408 289.058 282.016 288.673 281.561 288.375C281.106 288.077 280.597 287.871 280.063 287.77C279.528 287.668 278.979 287.673 278.446 287.784C277.914 287.895 277.408 288.109 276.959 288.415C276.509 288.722 276.124 289.113 275.826 289.568C275.528 290.023 275.322 290.532 275.221 291.067C275.119 291.601 275.124 292.15 275.235 292.683C275.346 293.215 275.56 293.721 275.866 294.17L286.044 309.107C286.449 309.702 287.003 310.181 287.65 310.497C288.298 310.812 289.016 310.954 289.735 310.907C290.933 310.078 292.123 309.227 293.291 308.353C293.555 307.72 293.658 307.031 293.588 306.348C293.518 305.665 293.279 305.011 292.892 304.444Z" fill="white"/>
<path d="M337.255 234.846L320.501 228.044C319.483 227.631 318.343 227.639 317.331 228.066C316.319 228.493 315.518 229.305 315.104 230.323C314.691 231.341 314.698 232.481 315.125 233.493C315.553 234.505 316.364 235.306 317.382 235.72L334.136 242.521C335.154 242.934 336.294 242.925 337.305 242.497C338.317 242.07 339.117 241.258 339.53 240.241C339.944 239.224 339.936 238.084 339.509 237.073C339.083 236.061 338.272 235.26 337.255 234.846Z" fill="white"/>
<path d="M143.394 288.415C142.486 287.797 141.369 287.565 140.29 287.77C139.211 287.975 138.257 288.6 137.639 289.508L127.461 304.444C127.074 305.011 126.834 305.665 126.765 306.348C126.695 307.031 126.797 307.72 127.062 308.353C128.23 309.227 129.42 310.078 130.618 310.907C131.336 310.954 132.055 310.812 132.702 310.496C133.35 310.181 133.903 309.702 134.309 309.107L144.486 294.17C144.793 293.721 145.007 293.215 145.118 292.683C145.229 292.15 145.234 291.601 145.132 291.066C145.031 290.532 144.825 290.023 144.527 289.568C144.229 289.113 143.844 288.722 143.394 288.415Z" fill="white"/>
<path d="M105.246 230.319C105.041 229.815 104.739 229.357 104.357 228.97C103.975 228.583 103.521 228.275 103.02 228.064C102.519 227.853 101.981 227.742 101.438 227.739C100.894 227.735 100.355 227.839 99.8517 228.044L83.0977 234.846C82.0808 235.26 81.2699 236.061 80.8432 237.073C80.4166 238.084 80.4091 239.224 80.8224 240.241C81.2358 241.258 82.0361 242.07 83.0475 242.497C84.059 242.925 85.1988 242.933 86.2165 242.521L102.97 235.72C103.987 235.303 104.797 234.501 105.223 233.489C105.65 232.477 105.658 231.337 105.246 230.319Z" fill="white"/>
<path d="M215.929 194.436C216.311 196.7 215.78 199.024 214.451 200.897C213.123 202.77 211.105 204.04 208.841 204.428L135.318 216.932C134.196 217.123 133.048 217.091 131.939 216.838C130.83 216.585 129.781 216.116 128.853 215.458C127.925 214.8 127.136 213.966 126.531 213.003C125.925 212.04 125.515 210.967 125.324 209.846C125.134 208.724 125.166 207.576 125.419 206.467C125.672 205.358 126.141 204.31 126.799 203.382C127.457 202.454 128.291 201.665 129.255 201.059C130.218 200.454 131.291 200.044 132.412 199.854L205.936 187.349C208.2 186.966 210.524 187.498 212.398 188.826C214.271 190.155 215.541 192.172 215.929 194.436Z" fill="#3F3D56"/>
<path d="M293.31 275.883C292.254 276.945 290.819 277.545 289.322 277.551C287.824 277.557 286.384 276.968 285.32 275.915L206.173 197.399C205.111 196.343 204.512 194.909 204.506 193.412C204.501 191.915 205.091 190.476 206.145 189.413C207.2 188.35 208.634 187.75 210.131 187.743C211.629 187.737 213.068 188.325 214.132 189.378L293.279 267.894C294.341 268.95 294.941 270.384 294.947 271.882C294.953 273.38 294.364 274.819 293.31 275.883Z" fill="#3F3D56"/>
<path d="M210.176 206.283C215.585 206.283 219.97 201.899 219.97 196.491C219.97 191.084 215.585 186.7 210.176 186.7C204.768 186.7 200.383 191.084 200.383 196.491C200.383 201.899 204.768 206.283 210.176 206.283Z" fill="#CCCCCC"/>
<path d="M142.721 26.698C127.688 50.3286 104.752 66.011 76.4657 76.3134C75.9067 76.732 75.2708 77.0364 74.5942 77.2092C73.9176 77.3821 73.2136 77.42 72.5224 77.3208C71.8311 77.2215 71.1662 76.9872 70.5655 76.631C69.9649 76.2749 69.4403 75.8039 69.0216 75.2451C53.6569 54.7328 57.1262 25.4167 77.4045 9.74294C82.3071 5.96015 87.9123 3.18876 93.8949 1.58968C99.8774 -0.00940942 106.118 -0.404347 112.255 0.427803C118.391 1.25995 124.301 3.30261 129.641 6.43718C134.982 9.57175 139.646 13.7358 143.364 18.6876L143.789 19.2549C144.208 19.8138 144.512 20.4496 144.685 21.1261C144.858 21.8027 144.896 22.5066 144.797 23.1977C144.697 23.8889 144.463 24.5537 144.107 25.1543C143.751 25.7549 143.28 26.2794 142.721 26.698Z" fill="#E6E6E6"/>
<path d="M276.989 18.6875C280.706 13.7357 285.371 9.57168 290.711 6.43711C296.052 3.30254 301.962 1.25989 308.098 0.427745C314.235 -0.404405 320.475 -0.00947871 326.458 1.58961C332.44 3.18869 338.046 5.96008 342.948 9.74287C363.226 25.4166 366.696 54.7327 351.331 75.245C350.912 75.8039 350.388 76.2748 349.787 76.631C349.186 76.9871 348.522 77.2215 347.83 77.3207C347.139 77.4199 346.435 77.382 345.758 77.2092C345.082 77.0363 344.446 76.7319 343.887 76.3133C317.628 66.2613 296.094 48.8661 277.632 26.6979C276.503 25.8526 275.756 24.5935 275.556 23.1976C275.356 21.8018 275.718 20.3835 276.564 19.2548L276.989 18.6875Z" fill="#E6E6E6"/>
<path d="M270.4 336.794C269.442 337.332 268.737 338.227 268.439 339.284C268.14 340.341 268.273 341.473 268.807 342.432L292.719 385.157C293.256 386.116 294.152 386.822 295.209 387.12C296.266 387.419 297.399 387.285 298.358 386.748C299.317 386.212 300.023 385.317 300.322 384.26C300.62 383.202 300.487 382.07 299.951 381.111L276.039 338.386C275.501 337.429 274.605 336.724 273.548 336.425C272.491 336.127 271.359 336.259 270.4 336.794Z" fill="#E6E6E6"/>
<path d="M144.314 338.386L120.402 381.111C119.866 382.07 119.732 383.202 120.031 384.26C120.33 385.317 121.036 386.212 121.995 386.748C122.954 387.285 124.086 387.419 125.144 387.12C126.201 386.822 127.097 386.116 127.633 385.157L151.545 342.432C151.811 341.957 151.981 341.435 152.045 340.895C152.109 340.354 152.065 339.807 151.918 339.283C151.77 338.759 151.52 338.27 151.183 337.843C150.846 337.415 150.428 337.059 149.953 336.793C149.479 336.527 148.956 336.358 148.416 336.294C147.875 336.23 147.327 336.274 146.804 336.422C146.28 336.569 145.791 336.819 145.363 337.156C144.936 337.493 144.58 337.911 144.314 338.386Z" fill="#E6E6E6"/>
<path d="M297.562 396.097C304.635 396.097 310.369 390.364 310.369 383.292C310.369 376.22 304.635 370.487 297.562 370.487C290.489 370.487 284.756 376.22 284.756 383.292C284.756 390.364 290.489 396.097 297.562 396.097Z" fill="#E6E6E6"/>
<path d="M306.602 68.4428C313.675 68.4428 319.409 62.7098 319.409 55.6379C319.409 48.5659 313.675 42.833 306.602 42.833C299.529 42.833 293.796 48.5659 293.796 55.6379C293.796 62.7098 299.529 68.4428 306.602 68.4428Z" fill="#E6E6E6"/>
<path d="M209.423 38.3136C216.496 38.3136 222.23 32.5807 222.23 25.5087C222.23 18.4368 216.496 12.7039 209.423 12.7039C202.35 12.7039 196.616 18.4368 196.616 25.5087C196.616 32.5807 202.35 38.3136 209.423 38.3136Z" fill="#E6E6E6"/>
<path d="M116.764 66.9363C123.837 66.9363 129.57 61.2033 129.57 54.1314C129.57 47.0595 123.837 41.3265 116.764 41.3265C109.691 41.3265 103.957 47.0595 103.957 54.1314C103.957 61.2033 109.691 66.9363 116.764 66.9363Z" fill="#E6E6E6"/>
<path d="M125.05 396.097C132.123 396.097 137.857 390.364 137.857 383.292C137.857 376.22 132.123 370.487 125.05 370.487C117.978 370.487 112.244 376.22 112.244 383.292C112.244 390.364 117.978 396.097 125.05 396.097Z" fill="#E6E6E6"/>
<path d="M287.517 268.681C288.021 269.472 288.694 270.142 289.485 270.644C290.277 271.147 291.17 271.47 292.1 271.59C293.03 271.711 293.975 271.626 294.869 271.341C295.763 271.057 296.583 270.58 297.273 269.944L317.368 280.711L316.29 268.914L297.373 260.499C296.228 259.412 294.724 258.782 293.145 258.729C291.567 258.677 290.025 259.205 288.81 260.213C287.595 261.222 286.792 262.641 286.554 264.202C286.316 265.762 286.658 267.356 287.517 268.681Z" fill="#FFB7B7"/>
<path d="M302.159 272.798L310.033 261.93L347.971 279.861L395.18 271.005C397.513 270.567 399.914 270.648 402.213 271.243C404.512 271.837 406.651 272.93 408.479 274.445C410.308 275.959 411.781 277.857 412.793 280.004C413.805 282.152 414.332 284.496 414.337 286.87C414.34 291.157 412.642 295.271 409.615 298.309C406.589 301.346 402.48 303.059 398.192 303.072L344.091 303.172L302.159 272.798Z" fill="#00A3FF"/>
<path d="M290.03 460.523L282.062 456.713L293.007 423.414L304.766 429.038L290.03 460.523Z" fill="#FFB7B7"/>
<path d="M343.445 455.155C342.866 455.518 342.286 455.874 341.701 456.231C340.537 456.945 339.36 457.647 338.184 458.338C337.593 458.683 336.996 459.028 336.405 459.368V459.385L336.37 459.391L336.358 459.397L335.457 459.62L334.163 456.202L333.566 454.628L332.724 452.399L331.179 448.32L323.044 426.845L335.691 423.726L336.165 425.663H336.171L336.405 426.622L340.823 444.54L341.725 448.203L341.754 448.314L342.298 450.503L342.766 452.399L343.287 454.517L343.445 455.155Z" fill="#FFB7B7"/>
<path d="M418.89 379.738C418.088 381.025 417.268 382.307 416.443 383.576C414.91 385.94 413.336 388.269 411.72 390.563C411.72 390.569 411.715 390.569 411.709 390.575C410.766 391.448 409.725 392.208 408.607 392.839C408.56 392.875 408.507 392.898 408.461 392.927C407.637 393.382 406.76 393.734 405.85 393.975C405.523 394.057 405.189 394.139 404.861 394.22C403.679 394.501 402.509 394.741 401.344 394.952C399.272 395.321 397.224 395.584 395.187 395.748C395.024 395.765 394.86 395.777 394.696 395.789C386.321 396.403 378.169 395.414 369.659 393.793C365.457 392.997 361.167 392.044 356.726 391.055C355.274 390.727 353.817 390.405 352.342 390.083C352.231 390.06 352.114 390.031 351.997 390.007C349.89 389.545 347.748 389.089 345.553 388.638C342.791 388.07 339.941 387.52 336.98 387L337.19 391.172C337.366 394.381 338.033 397.545 339.168 400.552C340.433 404.25 341.433 407.176 339.321 413.267L338.302 416.217C338.83 417.681 339.011 419.248 338.832 420.794C338.652 422.341 338.116 423.824 337.266 425.129L337.062 425.439L345.553 446.92L346.103 448.313H341.755L336.406 448.319H327.341L314.261 422.08L313.634 420.828V420.763L314.986 370.34C315.004 369.895 315.039 369.445 315.097 369C315.336 366.978 315.975 365.024 316.976 363.252C317.978 361.48 319.323 359.925 320.932 358.678C322.474 357.473 324.241 356.586 326.129 356.07C328.016 355.553 329.988 355.418 331.929 355.67L336.406 356.249L345.553 357.431L351.997 358.268L352.126 358.286L371.128 360.743L372.492 355.184L372.744 355.091L380.744 352.159L408.414 342.018L408.484 341.995L410.304 341.328L410.521 341.679C410.585 341.784 410.649 341.889 410.708 341.995C412.507 345.219 413.972 348.619 415.08 352.141C416.943 357.895 418.477 363.751 419.674 369.679C419.727 369.936 419.773 370.17 419.814 370.381L419.832 370.445C419.849 370.545 419.861 370.609 419.867 370.627C420.505 373.283 420.06 376.525 418.89 379.738Z" fill="#2F2E41"/>
<path d="M420.058 361.155C419.97 360.781 419.859 360.4 419.741 360.032C418.812 357.239 417.73 354.501 416.499 351.828C415.118 348.785 413.462 345.525 411.49 341.997C410.536 340.288 409.51 338.511 408.411 336.666C407.861 335.742 407.29 334.799 406.697 333.84C406.673 333.796 406.648 333.753 406.62 333.711L406.451 333.43L379.073 337.093L368.878 338.457L368.27 343.536L368.123 344.794C368.118 344.794 368.118 344.794 368.123 344.8L367.714 348.229V348.235L367.169 352.764L367.123 352.758L351.994 350.798L336.403 348.779L328.029 347.696C326.088 347.444 324.116 347.579 322.228 348.096C320.34 348.612 318.574 349.499 317.032 350.704C315.423 351.952 314.079 353.507 313.077 355.279C312.075 357.051 311.436 359.005 311.197 361.026C311.145 361.436 311.109 361.857 311.092 362.273L303.191 380.992C298.463 392.187 295.453 404.032 294.26 416.125L288.467 434.646L289.292 434.722L301.57 435.863L304.812 436.167L311.952 425.745C312.766 424.558 313.538 423.335 314.258 422.082C315.443 420.037 316.497 417.918 317.412 415.739L332.857 378.991C334.051 379.196 335.233 379.391 336.403 379.576C341.817 380.454 347.014 381.17 351.994 381.724C368.188 383.532 382.21 383.672 394.693 382.139C398.199 381.712 401.587 381.15 404.859 380.454C406.059 380.202 407.243 379.931 408.411 379.64C408.686 379.576 408.956 379.512 409.225 379.442C411.643 378.818 413.867 377.598 415.692 375.892C417.517 374.187 418.885 372.052 419.671 369.681C420.61 366.934 420.744 363.976 420.058 361.155Z" fill="#2F2E41"/>
<path d="M292.575 455.085L283.954 450.954L282.602 450.305L280.443 455.606L265.367 458.924C264.622 459.088 263.948 459.485 263.445 460.058C262.941 460.632 262.634 461.351 262.569 462.111C262.504 462.872 262.683 463.633 263.081 464.284C263.479 464.935 264.075 465.441 264.782 465.73L279.512 471.739L284.188 467.532L283.041 473.179L288.589 475.443L294.67 456.092L292.575 455.085Z" fill="#2F2E41"/>
<path d="M345.553 446.92L346.104 448.313H345.553V446.92Z" fill="#2F2E41"/>
<path d="M342.551 448.61L333.518 451.74L332.101 452.229L334.297 457.516L325.919 470.48C325.504 471.12 325.305 471.876 325.351 472.638C325.397 473.4 325.685 474.127 326.174 474.713C326.662 475.299 327.326 475.714 328.067 475.896C328.808 476.079 329.587 476.019 330.292 475.727L344.989 469.634L345.35 463.355L348.509 468.174L354.045 465.88L344.748 447.852L342.551 448.61Z" fill="#2F2E41"/>
<path d="M417.805 369.633C417.269 369.632 416.74 369.501 416.266 369.251L368.6 344.348L368.049 342.093L367.011 334.959L367.025 334.892L371.558 313.995C371.475 313.816 371.302 313.521 371.106 313.189C369.082 309.76 362.923 299.325 374.677 284.957L395.315 260.9L413.028 260.138L413.229 260.392C417.966 266.336 421.16 273.358 422.528 280.833C423.896 288.309 423.396 296.007 421.072 303.242L419.227 336.548L421.206 343.274C422.362 347.226 422.171 351.451 420.662 355.283L421.115 366.174C421.133 366.621 421.061 367.066 420.902 367.484C420.744 367.902 420.503 368.284 420.194 368.606C419.885 368.929 419.515 369.186 419.104 369.363C418.694 369.539 418.252 369.631 417.805 369.633Z" fill="#00A3FF"/>
<path d="M376.458 397.1C377.265 396.623 377.958 395.975 378.488 395.201C379.018 394.427 379.372 393.547 379.525 392.622C379.677 391.696 379.625 390.749 379.372 389.846C379.119 388.943 378.671 388.106 378.06 387.395L389.52 367.689L377.691 368.356L368.622 386.967C367.495 388.073 366.813 389.554 366.706 391.129C366.598 392.704 367.072 394.264 368.038 395.513C369.004 396.762 370.395 397.614 371.947 397.906C373.498 398.199 375.103 397.912 376.458 397.1Z" fill="#FFB7B7"/>
<path d="M381.082 382.612L370.492 374.365L389.735 337.079L382.525 289.597C382.168 287.25 382.333 284.853 383.007 282.577C383.682 280.301 384.849 278.201 386.426 276.427C388.003 274.652 389.952 273.247 392.133 272.31C394.315 271.373 396.676 270.928 399.049 271.006C403.334 271.152 407.387 272.992 410.318 276.122C413.249 279.252 414.818 283.417 414.682 287.702L412.9 341.767L381.082 382.612Z" fill="#00A3FF"/>
<path d="M383.953 250.903V233.378C383.949 227.15 386.42 221.175 390.822 216.769C395.223 212.362 401.196 209.884 407.425 209.88C413.654 209.876 419.629 212.346 424.037 216.747C428.444 221.148 430.922 227.12 430.926 233.348V233.378C435.066 242.003 432.476 246.104 430.926 250.903C430.925 251.739 430.592 252.54 430.001 253.131C429.41 253.722 428.609 254.055 427.773 254.056H387.108C386.272 254.056 385.471 253.723 384.879 253.132C384.288 252.541 383.955 251.739 383.953 250.903Z" fill="#2F2E41"/>
<path d="M399.739 252.918C409.449 252.918 417.32 245.048 417.32 235.339C417.32 225.631 409.449 217.761 399.739 217.761C390.03 217.761 382.159 225.631 382.159 235.339C382.159 245.048 390.03 252.918 399.739 252.918Z" fill="#FFB7B7"/>
<path d="M418.138 239.948C417.979 239.923 417.819 239.889 417.66 239.864C414.918 239.377 412.175 238.9 409.441 238.405L409.19 232.208L405.877 237.759C398.321 240.266 391.252 238.849 384.601 235.722C382.408 234.68 380.279 233.507 378.228 232.208C378.787 228.781 380.104 225.522 382.085 222.67C384.066 219.818 386.659 217.444 389.675 215.723C389.927 215.581 390.17 215.455 390.422 215.329L390.425 215.328L390.427 215.327L390.429 215.324L390.43 215.321C390.858 215.119 391.294 214.926 391.73 214.75C395.144 213.416 398.866 213.079 402.465 213.776C406.063 214.474 409.39 216.178 412.058 218.691C417.425 223.815 419.84 232.275 418.138 239.948Z" fill="#2F2E41"/>
</g>
<defs>
<clipPath id="clip0_1_111">
<rect width="509" height="476" fill="white"/>
</clipPath>
</defs>
</svg>
