<svg width="194" height="200" viewBox="0 0 194 200" fill="none" xmlns="http://www.w3.org/2000/svg">
<path d="M168.481 109.022L168.293 110.436L169.414 111.318L190.268 127.71L190.299 127.735L190.33 127.758C191.208 128.405 191.555 129.586 190.876 130.853L170.974 165.267L170.958 165.294L170.943 165.322C170.334 166.439 169.092 166.879 167.904 166.464L143.152 156.521L141.822 155.987L140.688 156.866C135.771 160.679 130.365 163.88 124.471 166.278L123.139 166.82L122.938 168.243L119.203 194.595L119.2 194.616L119.197 194.636C119.048 195.833 118.074 196.7 116.802 196.7H76.9618C75.8045 196.7 74.7674 195.924 74.4443 194.506L70.722 168.243L70.5203 166.82L69.1887 166.278C63.3069 163.885 57.9979 160.686 52.952 156.851L51.8231 155.993L50.5074 156.521L25.8081 166.442C24.4876 166.83 23.2783 166.352 22.7165 165.322L22.7015 165.294L22.6859 165.267L2.78194 130.85C2.22009 129.804 2.53246 128.379 3.3816 127.718L3.38228 127.718L24.4435 111.325L25.6188 110.411L25.374 108.941C24.8839 106.001 24.6818 102.721 24.6818 99.6C24.6818 96.5788 25.0734 93.3068 25.5815 90.2585L25.8263 88.7894L24.651 87.8746L3.58978 71.4821L3.5398 71.4432L3.48791 71.4069C2.61161 70.7935 2.28816 69.5794 2.97853 68.3689C2.97897 68.3682 2.97942 68.3674 2.97986 68.3666L22.7925 33.9279L22.8066 33.9033L22.8202 33.8784C23.4297 32.7611 24.6719 32.3209 25.8594 32.7365L50.6112 42.6786L51.9221 43.2052L53.0495 42.3539C58.0023 38.614 63.4165 35.3122 69.2925 32.922L70.624 32.3803L70.8258 30.9571L74.5559 4.63883C74.7914 3.29105 75.7798 2.5 76.9618 2.5H116.802C118.047 2.5 119.086 3.35435 119.311 4.63929L123.041 30.9571L123.243 32.3803L124.575 32.922C130.457 35.3146 135.766 38.5142 140.812 42.3492L141.94 43.2071L143.256 42.6786L167.955 32.7576C169.276 32.3697 170.485 32.8483 171.047 33.8784L171.062 33.9058L171.078 33.9328L190.982 68.3502C191.543 69.3957 191.231 70.8212 190.382 71.4816L190.381 71.4821L169.32 87.8746L168.145 88.7894L168.39 90.2585C168.88 93.2005 169.082 96.3775 169.082 99.6C169.082 102.921 168.881 106.027 168.481 109.022ZM57.0317 99.6C57.0317 121.523 74.9585 139.45 96.8818 139.45C118.805 139.45 136.732 121.523 136.732 99.6C136.732 77.6768 118.805 59.75 96.8818 59.75C74.9585 59.75 57.0317 77.6768 57.0317 99.6Z" stroke="#00A3FF" stroke-width="5"/>
</svg>
