<svg width="421" height="335" viewBox="0 0 421 335" fill="none" xmlns="http://www.w3.org/2000/svg">
<g clip-path="url(#clip0_363_2)">
<path d="M354.804 320.749C356.462 320.852 357.378 318.796 356.123 317.598L355.998 317.103C356.014 317.063 356.031 317.024 356.047 316.984C357.036 314.63 359.759 313.515 362.123 314.49C369.597 317.575 361.706 324.662 362.299 329.458C362.507 331.113 369.003 331.204 368.635 332.828C372.09 325.29 373.906 317.059 373.903 308.782C373.902 306.703 373.788 304.623 373.554 302.549C373.361 300.852 373.096 299.166 372.754 297.495C370.9 288.464 366.891 279.862 361.11 272.679C358.332 271.164 360.026 268.795 358.626 265.955C358.123 264.931 353.637 264.908 353.45 263.785C353.65 263.812 356.55 260.805 355.593 259.319C354.962 258.341 355.158 257.095 355.968 256.259C356.047 256.177 356.122 256.091 356.191 255.998C358.583 252.759 361.88 253.323 363.603 257.723C367.28 259.574 367.317 262.646 365.062 265.601C363.627 267.481 363.431 270.025 362.172 272.037C362.302 272.203 362.437 272.363 362.566 272.529C364.943 275.57 367 278.838 368.733 282.273C368.242 278.455 368.963 273.856 370.195 270.891C371.606 267.489 374.263 264.626 376.589 261.683C379.368 258.169 385.023 259.764 385.514 264.214C385.519 264.257 385.523 264.299 385.528 264.342C385.184 264.536 384.847 264.742 384.517 264.96C382.641 266.199 383.291 269.104 385.516 269.445L385.566 269.453C385.442 270.689 381.046 274.584 380.736 275.79C383.709 287.25 381.484 288.763 372.338 288.954L371.858 289.637C372.724 292.124 373.422 294.672 373.946 297.252C374.439 299.647 374.782 302.067 374.974 304.499C375.214 307.566 375.194 310.649 374.936 313.712L374.952 313.603C375.609 310.23 377.442 307.079 380.105 304.895C384.073 301.64 389.679 300.44 393.959 297.823C396.02 296.563 398.661 298.189 398.302 300.574L398.285 300.689C397.647 300.947 397.025 301.248 396.424 301.584C396.08 301.778 395.743 301.984 395.413 302.202C393.536 303.442 394.187 306.347 396.412 306.687L396.462 306.695C396.499 306.7 396.53 306.705 396.566 306.711C395.473 309.303 385.063 312.959 383.157 315.034C381.303 325.044 382.214 324.746 373.68 321.834H373.674C372.743 325.89 371.381 329.853 369.631 333.63L355.171 333.635C355.119 333.474 355.073 333.309 355.026 333.149C356.363 333.231 357.711 333.153 359.027 332.909C357.954 331.596 356.88 330.272 355.807 328.958C355.781 328.932 355.76 328.906 355.74 328.881L355.723 328.86L354.235 323.969C354.352 322.884 354.544 321.808 354.804 320.749Z" fill="#F2F2F2"/>
<path d="M202.002 333.517L74.0524 333.562C67.6245 333.564 61.8666 330.248 58.6507 324.693C57.0426 321.915 56.2384 318.868 56.2373 315.82C56.2362 312.772 57.0388 309.724 58.6446 306.945L122.579 190.773C125.791 185.215 131.547 181.896 137.975 181.894C144.403 181.892 150.161 185.207 153.377 190.762L217.4 306.905C219.004 309.675 219.806 312.719 219.806 315.765C219.806 318.811 219.004 321.859 217.398 324.638C214.186 330.196 208.43 333.515 202.002 333.517ZM57.8456 315.818C57.8454 318.592 71.9643 312.614 73.427 315.141C76.3527 320.195 68.2038 331.962 74.0518 331.96C74.0518 331.96 213.085 328.894 216.008 323.838C217.469 321.31 218.199 318.536 218.198 315.764C218.197 312.991 217.465 310.219 216.002 307.692L151.979 191.549C149.061 186.51 143.823 183.494 137.975 183.496C132.13 183.498 57.8459 313.043 57.8456 315.818Z" fill="#3F3D56"/>
<path d="M203.423 331.915C201.819 335.119 276.934 334.135 277.823 334.134C277.823 334.134 298.935 333.669 299.379 332.901C299.601 332.517 299.712 332.096 299.712 331.675C299.712 331.254 299.6 330.833 299.378 330.449L289.656 312.812C289.213 312.047 288.418 311.589 287.53 311.589C287.493 311.589 287.438 311.622 287.368 311.685C274.398 323.253 258.415 330.901 241.023 331.159C222.53 331.433 203.525 331.712 203.423 331.915Z" fill="#3F3D56"/>
<path d="M6.00614e-08 334.047C0.000184614 334.576 0.42563 335 0.955244 335L420.045 334.855C420.575 334.855 421 334.43 421 333.902C421 333.373 420.574 332.949 420.045 332.949L0.954586 333.094C0.424972 333.094 -0.000184494 333.519 6.00614e-08 334.047Z" fill="#CCCCCC"/>
<path d="M324.075 329.421L316.818 329.423L313.355 301.482L324.067 301.479L324.075 329.421Z" fill="#A0616A"/>
<path d="M299.21 329.265C298.984 329.645 298.865 330.871 298.865 331.313C298.866 332.671 299.969 333.772 301.329 333.771L323.805 333.763C324.733 333.763 325.485 333.012 325.485 332.085L325.485 331.151C325.485 331.151 326.596 328.344 324.305 324.885C324.305 324.885 321.461 327.595 317.208 323.353L315.954 321.087L306.881 327.714L301.852 328.334C300.751 328.469 299.775 328.314 299.21 329.265Z" fill="#2F2E41"/>
<path d="M296.247 305.524L289.373 307.845L277.127 282.483L287.274 279.056L296.247 305.524Z" fill="#A0616A"/>
<path d="M272.642 313.325C272.55 313.757 272.831 314.957 272.972 315.375C273.409 316.661 274.807 317.351 276.095 316.916L297.385 309.723C298.264 309.426 298.735 308.474 298.438 307.597L298.138 306.712C298.138 306.712 298.289 303.697 295.01 301.152C295.01 301.152 293.185 304.629 287.795 301.97L285.88 300.224L279.412 309.403L274.846 311.598C273.847 312.078 272.872 312.242 272.642 313.325Z" fill="#2F2E41"/>
<path d="M285.037 143.436L270.96 189.97L254.341 231.827L280.651 291.602L290.406 287.27L278.733 232.359L303.213 195.099L314.636 311.417L324.393 310.873L337.624 170.47L339.511 139.901L285.037 143.436Z" fill="#2F2E41"/>
<path d="M327.551 40.3542L306.955 44.1486L305.332 53.3468L292.867 59.3024L286.386 126.934C286.386 126.934 275.55 141.005 284.224 145.33L339.511 139.901C339.511 139.901 342.217 129.897 339.507 128.948C336.796 127.999 336.788 104.104 336.788 104.104L349.238 54.9547L330.806 48.4687L327.551 40.3542Z" fill="#E6E6E6"/>
<path d="M315.403 40.1768C324.589 40.1768 332.035 32.7442 332.035 23.5757C332.035 14.4072 324.589 6.97461 315.403 6.97461C306.217 6.97461 298.771 14.4072 298.771 23.5757C298.771 32.7442 306.217 40.1768 315.403 40.1768Z" fill="#A0616A"/>
<path d="M326.417 26.0396C325.09 26.7648 326.349 30.2273 325.52 30.5267C324.561 30.8727 321.065 26.9008 321.022 22.452C321.008 21.1056 321.319 20.4591 321.02 18.8626C320.63 16.7744 319.431 14.3114 318.322 14.3768C317.664 14.4155 317.022 15.3437 316.974 16.172C316.907 17.3328 318.036 17.7897 317.874 18.415C317.564 19.6061 312.82 20.4284 311.131 18.4174C309.807 16.8408 310.822 14.0726 310.23 13.9309C309.794 13.8264 309.325 15.3504 307.534 17.0726C306.859 17.7214 305.856 18.6863 305.287 18.4194C304.466 18.0336 305.062 15.3148 304.837 15.2788C304.65 15.2489 304.532 17.1599 303.489 18.8687C302.15 21.064 299.386 22.7561 298.096 22.0113C297.306 21.5549 297.244 20.2845 297.196 19.3195C297.096 17.2867 294.137 12.6107 294.902 10.4361C296.461 6.00995 299.131 9.12993 300.339 7.65284C301.974 5.6532 303.441 6.72831 306.181 4.51007C308.859 2.34308 308.882 0.16507 310.675 0.0217385C312.29 -0.107337 312.864 1.61178 314.721 1.36637C316.294 1.15848 316.637 -0.174878 317.867 0.0192476C318.994 0.196971 319.068 1.37159 320.565 1.81303C321.521 2.09485 321.731 1.68694 322.812 1.81225C325.064 2.073 326.576 4.11955 326.859 4.50292C327.951 5.98082 327.527 6.60405 328.658 8.09171C329.634 9.37462 331.795 8.82984 332.608 9.47059C335.263 11.5643 336.404 15.4254 336.427 19.8261C336.443 22.9041 336.041 24.4593 335.144 28.3444C334.463 31.2945 331.307 35.1068 329.567 36.8068C329.1 37.2631 327.791 38.5424 326.871 38.1537C325.998 37.7855 325.972 36.1293 325.971 35.9107C325.967 35.1586 326.168 34.228 327.767 31.8719C329.448 29.3971 330.116 29.1146 330.014 28.2817C329.834 26.8095 327.475 25.4615 326.417 26.0396Z" fill="#2F2E41"/>
<path d="M268.402 180.815C267.884 185.142 269.701 188.916 272.459 189.245C275.218 189.574 277.874 186.332 278.392 182.005C278.618 180.111 278.398 178.323 277.846 176.883L279.809 158.521L271.157 157.785L270.14 175.965C269.265 177.235 268.628 178.921 268.402 180.815Z" fill="#A0616A"/>
<path d="M293.273 58.8655C293.273 58.8655 288.79 58.9291 285.822 64.7152C284.245 67.7899 275.806 125.287 275.806 125.287L268.033 172.387L281.275 172.454L291.593 127.848L300.273 101.978L293.273 58.8655Z" fill="#E6E6E6"/>
<path d="M330.536 173.903C329.268 178.073 330.395 182.106 333.054 182.912C335.712 183.717 338.895 180.99 340.163 176.82C340.718 174.994 340.814 173.195 340.524 171.682L345.675 153.945L337.284 151.71L333.097 169.432C332.013 170.529 331.091 172.078 330.536 173.903Z" fill="#A0616A"/>
<path d="M339.753 55.7695C339.753 55.7695 346.256 50.898 351.679 58.4706C357.102 66.0432 359.291 128.261 359.291 128.261L344.128 166.68L332.743 162.897L343.568 115.823L324.584 80.1213L339.753 55.7695Z" fill="#E6E6E6"/>
<path d="M175.31 307.897C207.661 307.897 233.886 281.721 233.886 249.431C233.886 217.14 207.661 190.964 175.31 190.964C142.96 190.964 116.734 217.14 116.734 249.431C116.734 281.721 142.96 307.897 175.31 307.897Z" fill="#00B0FF"/>
<path d="M175.321 285.272C178.291 285.272 180.699 282.868 180.699 279.903C180.699 276.938 178.291 274.535 175.321 274.535C172.35 274.535 169.942 276.938 169.942 279.903C169.942 282.868 172.35 285.272 175.321 285.272Z" fill="white"/>
<path d="M175.298 213.59C174.804 216.866 175.689 217.552 175.694 231.678C175.699 245.805 178.635 264.745 175.316 264.746C171.996 264.747 170.782 225.659 159.254 222.199C145.701 218.132 176.897 202.982 175.298 213.59Z" fill="white"/>
<path d="M96.693 279.281L91.4008 290.442C97.7987 285.863 107.792 281.916 115.744 279.801C108.335 276.229 99.268 270.469 93.8515 264.767L96.8953 276.56C61.209 269.305 35.5821 241.979 35.5713 210.677L34.2822 210.234C34.2936 242.93 59.5659 271.874 96.693 279.281Z" fill="#3F3D56"/>
</g>
<defs>
<clipPath id="clip0_363_2">
<rect width="421" height="335" fill="white"/>
</clipPath>
</defs>
</svg>
